#N canvas 827 239 734 565 12;
#N canvas 733 172 450 300 sample 0;
#X obj 3 5 bng 25 250 50 0 empty empty empty 0 -10 0 10 #191919 #e1e1e1 #e1e1e1;
#X obj -8 55 bng 25 250 50 0 empty empty empty 0 -10 0 10 #191919 #e1e1e1 #e1e1e1;
#X obj -8 -162 inlet;
#X obj 52 234 outlet~;
#N canvas 733 172 450 300 (subpatch) 0;
#X obj -176 191 sample~ s1;
#X obj -189 504 tabread4~ s1;
#X obj -20 113 openpanel;
#X obj -20 185 soundfiler;
#X floatatom -20 318 5 0 0 0 - - - 12;
#X obj 25 211 unpack f;
#X floatatom 25 318 5 0 0 0 - - - 12;
#X obj -113 241 samps2ms;
#X floatatom -157 249 5 0 0 0 - - - 12;
#X obj -113 292 * 0.001;
#X floatatom -113 318 5 0 0 0 - - - 12;
#X text 25 342 sample rate;
#X text -20 343 tsamp;
#X text -113 343 len sec;
#X obj -198 298 s len;
#X obj -20 375 s tsamp;
#X msg -20 139 read -resize \$1 s1;
#X msg -176 157 open -resize \$1 s1;
#X obj -189 478 vline~;
#X msg -236 407 0;
#X obj -190 386 pack f f;
#X msg -190 413 set \$1 \$2;
#X msg -190 442 35237 799.025;
#X obj -237 329 del;
#X obj -350 113 inlet;
#X obj -339 63 inlet;
#X obj -189 532 outlet~;
#X connect 1 0 26 0;
#X connect 2 0 16 0;
#X connect 2 0 17 0;
#X connect 3 0 7 0;
#X connect 3 0 4 0;
#X connect 3 1 5 0;
#X connect 4 0 15 0;
#X connect 4 0 20 0;
#X connect 5 0 6 0;
#X connect 7 0 8 0;
#X connect 8 0 9 0;
#X connect 8 0 14 0;
#X connect 8 0 20 1;
#X connect 9 0 10 0;
#X connect 16 0 3 0;
#X connect 17 0 0 0;
#X connect 18 0 1 0;
#X connect 19 0 18 0;
#X connect 20 0 21 0;
#X connect 21 0 22 0;
#X connect 22 0 18 0;
#X connect 23 0 22 0;
#X connect 24 0 23 0;
#X connect 24 0 19 0;
#X connect 25 0 2 0;
#X restore -8 113 pd;
#X obj -8 152 +~;
#N canvas 733 172 450 300 (subpatch) 0;
#X obj -20 113 openpanel;
#X obj -20 185 soundfiler;
#X floatatom -20 318 5 0 0 0 - - - 12;
#X obj 25 211 unpack f;
#X floatatom 25 318 5 0 0 0 - - - 12;
#X obj -113 241 samps2ms;
#X floatatom -157 249 5 0 0 0 - - - 12;
#X obj -113 292 * 0.001;
#X floatatom -113 318 5 0 0 0 - - - 12;
#X text 25 342 sample rate;
#X text -20 343 tsamp;
#X text -113 343 len sec;
#X obj -198 298 s len;
#X obj -20 375 s tsamp;
#X obj -189 478 vline~;
#X msg -236 407 0;
#X obj -190 386 pack f f;
#X msg -190 413 set \$1 \$2;
#X msg -190 442 19656 445.714;
#X obj -237 329 del;
#X obj -368 157 inlet;
#X obj -217 44 inlet;
#X obj -189 532 outlet~;
#X msg -176 157 open -resize \$1 s2;
#X obj -176 191 sample~ s2;
#X msg -20 139 read -resize \$1 s2;
#X obj -189 504 tabread4~ s2;
#X connect 0 0 25 0;
#X connect 0 0 23 0;
#X connect 1 0 5 0;
#X connect 1 0 2 0;
#X connect 1 1 3 0;
#X connect 2 0 13 0;
#X connect 2 0 16 0;
#X connect 3 0 4 0;
#X connect 5 0 6 0;
#X connect 6 0 7 0;
#X connect 6 0 12 0;
#X connect 6 0 16 1;
#X connect 7 0 8 0;
#X connect 14 0 26 0;
#X connect 15 0 14 0;
#X connect 16 0 17 0;
#X connect 17 0 18 0;
#X connect 18 0 14 0;
#X connect 19 0 18 0;
#X connect 20 0 19 0;
#X connect 20 0 15 0;
#X connect 21 0 0 0;
#X connect 23 0 24 0;
#X connect 25 0 1 0;
#X connect 26 0 22 0;
#X restore 59 113 pd;
#N canvas 733 172 450 300 (subpatch) 0;
#X obj -176 191 sample~ s1;
#X obj -189 504 tabread4~ s1;
#X obj -20 113 openpanel;
#X obj -20 185 soundfiler;
#X floatatom -20 318 5 0 0 0 - - - 12;
#X obj 25 211 unpack f;
#X floatatom 25 318 5 0 0 0 - - - 12;
#X obj -113 241 samps2ms;
#X floatatom -157 249 5 0 0 0 - - - 12;
#X obj -113 292 * 0.001;
#X floatatom -113 318 5 0 0 0 - - - 12;
#X text 25 342 sample rate;
#X text -20 343 tsamp;
#X text -113 343 len sec;
#X obj -198 298 s len;
#X obj -20 375 s tsamp;
#X msg -20 139 read -resize \$1 s1;
#X msg -176 157 open -resize \$1 s1;
#X obj -189 478 vline~;
#X msg -236 407 0;
#X obj -190 386 pack f f;
#X msg -190 413 set \$1 \$2;
#X msg -190 442 89344 2025.94;
#X obj -237 329 del;
#X obj -377 191 inlet;
#X obj -326 107 inlet;
#X obj -189 532 outlet~;
#X connect 1 0 26 0;
#X connect 2 0 16 0;
#X connect 2 0 17 0;
#X connect 3 0 7 0;
#X connect 3 0 4 0;
#X connect 3 1 5 0;
#X connect 4 0 15 0;
#X connect 4 0 20 0;
#X connect 5 0 6 0;
#X connect 7 0 8 0;
#X connect 8 0 9 0;
#X connect 8 0 14 0;
#X connect 8 0 20 1;
#X connect 9 0 10 0;
#X connect 16 0 3 0;
#X connect 17 0 0 0;
#X connect 18 0 1 0;
#X connect 19 0 18 0;
#X connect 20 0 21 0;
#X connect 21 0 22 0;
#X connect 22 0 18 0;
#X connect 23 0 22 0;
#X connect 24 0 19 0;
#X connect 24 0 23 0;
#X connect 25 0 2 0;
#X restore 126 113 pd;
#N canvas 733 172 450 300 (subpatch) 0;
#X obj -20 113 openpanel;
#X obj -20 185 soundfiler;
#X floatatom -20 318 5 0 0 0 - - - 12;
#X obj 25 211 unpack f;
#X floatatom 25 318 5 0 0 0 - - - 12;
#X obj -113 241 samps2ms;
#X floatatom -157 249 5 0 0 0 - - - 12;
#X obj -113 292 * 0.001;
#X floatatom -113 318 5 0 0 0 - - - 12;
#X text 25 342 sample rate;
#X text -20 343 tsamp;
#X text -113 343 len sec;
#X obj -198 298 s len;
#X obj -20 375 s tsamp;
#X obj -189 478 vline~;
#X msg -236 407 0;
#X obj -190 386 pack f f;
#X msg -190 413 set \$1 \$2;
#X msg -190 442 3308 75.0113;
#X obj -237 329 del;
#X obj -361 157 inlet;
#X obj 3 5 inlet;
#X obj -189 532 outlet~;
#X obj -176 191 sample~ s4;
#X msg -176 157 open -resize \$1 s4;
#X msg -20 139 read -resize \$1 s4;
#X obj -189 504 tabread4~ s4;
#X connect 0 0 25 0;
#X connect 0 0 24 0;
#X connect 1 0 5 0;
#X connect 1 0 2 0;
#X connect 1 1 3 0;
#X connect 2 0 13 0;
#X connect 2 0 16 0;
#X connect 3 0 4 0;
#X connect 5 0 6 0;
#X connect 6 0 7 0;
#X connect 6 0 12 0;
#X connect 6 0 16 1;
#X connect 7 0 8 0;
#X connect 14 0 26 0;
#X connect 15 0 14 0;
#X connect 16 0 17 0;
#X connect 17 0 18 0;
#X connect 18 0 14 0;
#X connect 19 0 18 0;
#X connect 20 0 19 0;
#X connect 20 0 15 0;
#X connect 21 0 0 0;
#X connect 24 0 23 0;
#X connect 25 0 1 0;
#X connect 26 0 22 0;
#X restore 193 113 pd;
#X obj 126 152 +~;
#X obj 52 192 +~;
#X obj 73 5 bng 25 250 50 0 empty empty empty 0 -10 0 10 #191919 #e1e1e1 #e1e1e1;
#X obj 59 55 bng 25 250 50 0 empty empty empty 0 -10 0 10 #191919 #e1e1e1 #e1e1e1;
#X text 237 11 4 mono samplerrr;
#X obj 137 5 bng 25 250 50 0 empty empty empty 0 -10 0 10 #191919 #e1e1e1 #e1e1e1;
#X obj 127 55 bng 25 250 50 0 empty empty empty 0 -10 0 10 #191919 #e1e1e1 #e1e1e1;
#X obj 204 5 bng 25 250 50 0 empty empty empty 0 -10 0 10 #191919 #e1e1e1 #e1e1e1;
#X obj 194 55 bng 25 250 50 0 empty empty empty 0 -10 0 10 #191919 #e1e1e1 #e1e1e1;
#X obj 59 -162 inlet;
#X obj 127 -162 inlet;
#X obj 194 -162 inlet;
#X text 231 61 4 mono samplerrr;
#X connect 0 0 4 1;
#X connect 1 0 4 0;
#X connect 2 0 1 0;
#X connect 4 0 5 0;
#X connect 5 0 10 0;
#X connect 6 0 5 1;
#X connect 7 0 9 0;
#X connect 8 0 9 1;
#X connect 9 0 10 1;
#X connect 10 0 3 0;
#X connect 11 0 6 1;
#X connect 12 0 6 0;
#X connect 14 0 7 1;
#X connect 15 0 7 0;
#X connect 16 0 8 1;
#X connect 17 0 8 0;
#X connect 18 0 12 0;
#X connect 19 0 15 0;
#X connect 20 0 17 0;
#X coords 0 0 1 1 352 77 1 -9 5;
#X restore 176 309 pd sample;
