#N canvas 0 446 1357 803 12;
#X obj -55 241 mixer;
#X obj -92 497 dac~, f 16;
#X obj -483 -192 sel 1;
#X obj -429 -208 + 60;
#X obj -429 -192 mtof;
#X obj -22 204 r~ synth;
#X obj -34 174 r~ break, f 11;
#X obj 29 -176 s~ break;
#X obj -1068 -615 tabread;
#X obj -442 107 s~ synth;
#N canvas 15 190 1788 682 (subpatch) 0;
#N canvas 0 22 450 250 (subpatch) 0;
#X array DB 259028 float 2;
#A color 0;
#A width 2;
#X coords 0 1 259028 -1 200 140 1;
#X restore 3 5 graph;
#X obj 199 161 openpanel;
#X obj 199 213 soundfiler;
#X floatatom 199 366 5 0 0 0 - - - 0;
#X obj 244 239 unpack f;
#X floatatom 244 366 5 0 0 0 - - - 0;
#X floatatom 106 315 5 0 0 0 - - - 0;
#X obj 106 340 * 0.001;
#X floatatom 106 366 5 0 0 0 - - - 0;
#X text 244 391 sample rate;
#X text 199 391 tsamp;
#X text 106 391 len sec;
#X text 201 107 load;
#X obj 21 346 s len;
#X obj 199 423 s tsamp;
#X obj 515 48 + 1;
#X obj 509 202 line~;
#X obj 738 374 s2f~;
#X floatatom 738 400 7 0 0 0 - - - 0;
#X obj 550 148 / 16;
#X obj 509 119 - 1;
#X obj 509 148 / 16;
#X obj 550 239 scope~ 200 122 256 3 128 0 1 0 0 0 0 77 77 77 228 228 228 183 183 183 0 empty;
#X obj 509 84 t b f;
#X obj 550 119 del;
#X obj 550 174 pack f f;
#X obj 461 311 *~;
#X obj 581 72 r len;
#X msg 634 101 set \$1;
#X msg 657 131 2893.88;
#X obj 658 201 / 16;
#X obj 725 19 vsl 17 128 0 1 0 0 empty empty empty 0 -9 0 10 #e4e4e4 #4d4d4d #373737 0 1;
#X text 781 200 speed;
#X obj 756 131 t b f;
#X floatatom 715 199 5 0 0 0 - - - 0;
#X obj 657 165 expr ($f1)*pow(2 \, (($f2*2)-1));
#X obj 756 101 !- 1;
#X obj 722 -15 r speed;
#X obj 125 148 s speed;
#X floatatom 288 122 5 0 0 0 - - - 0;
#X text 259 121 divs;
#X obj 288 148 s div;
#X obj 560 37 r div;
#X obj 268 11 hsl 56 16 0 1 0 0 empty empty empty -2 -8 0 10 #e4e4e4 #4d4d4d #373737 0 1;
#X obj 268 48 hsl 56 16 0 1 0 0 empty empty empty -2 -8 0 10 #e4e4e4 #4d4d4d #373737 0 1;
#X text 203 5 pitch;
#X text 290 29 skip;
#X text 295 61 far;
#X floatatom 349 34 5 0 0 0 - - - 0;
#X obj 360 -79 r div;
#X obj 349 -27 int;
#X obj 349 8 rand.i 0;
#X obj 349 -52 * 16;
#X obj 416 -27 rand.i 0 100;
#X obj 416 -1 / 100;
#X obj 416 84 >;
#X floatatom 416 110 5 0 0 0 - - - 0;
#X obj 428 48 !- 1;
#X obj 515 -27 +;
#X obj 375 152 *;
#X obj 515 11 %;
#X obj 578 -25 r div;
#X floatatom 469 84 5 0 0 0 - - - 0;
#X obj 217 -52 loadbang;
#X msg 217 -26 16;
#X floatatom 515 -129 5 0 0 0 - - - 0;
#X obj 515 -79 t b f;
#X obj 428 -165 inlet;
#X obj 462 751 outlet~;
#X floatatom 515 -233 5 0 0 0 - - - 0;
#X floatatom 565 -233 5 0 0 0 - - - 0;
#X obj 515 -271 stripnote;
#X floatatom -166 -15 5 0 0 0 - - - 0;
#X floatatom -96 -15 5 0 0 0 - - - 0;
#X obj -111 -61 ctl.in 17;
#X obj -166 66 spigot;
#X obj -166 92 / 127;
#X obj -96 19 == 20;
#X floatatom -293 -15 5 0 0 0 - - - 0;
#X floatatom -223 -15 5 0 0 0 - - - 0;
#X obj -238 -61 ctl.in 17;
#X obj -293 66 spigot;
#X obj -293 92 / 127;
#X obj -223 19 == 16;
#X obj 467 707 tanh~;
#X obj 463 607 *~ 0.8;
#X obj 515 -386 midi.in 5;
#X floatatom 559 -192 5 0 0 0 - - - 0;
#X obj 515 -203 - 61;
#X obj 203 119 bng 14 250 50 0 empty empty empty 0 -7 0 12 #fcfcfc #000000 #000000;
#X obj 246 6 vsl 14 119 0 1 0 0 empty empty empty 0 -9 0 12 #e3c6ff #000000 #000000 0 1;
#X obj 258 589 scope~ 200 122 256 3 128 0 1 0 0 0 0 77 77 77 228 228 228 183 183 183 0 empty;
#X obj 643 526;
#X obj 461 549 tabread4~ DB;
#X msg 199 187 read -resize \$1 DB;
#X obj 111 238 / 44.1;
#X connect 1 0 94 0;
#X connect 2 0 3 0;
#X connect 3 0 14 0;
#X connect 3 0 26 1;
#X connect 3 0 95 0;
#X connect 4 0 5 0;
#X connect 6 0 7 0;
#X connect 6 0 13 0;
#X connect 7 0 8 0;
#X connect 15 0 23 0;
#X connect 15 0 62 0;
#X connect 16 0 26 0;
#X connect 17 0 18 0;
#X connect 19 0 25 0;
#X connect 20 0 21 0;
#X connect 21 0 16 0;
#X connect 23 0 20 0;
#X connect 23 0 24 0;
#X connect 23 0 29 0;
#X connect 23 1 20 0;
#X connect 23 1 19 0;
#X connect 24 0 19 0;
#X connect 25 0 16 0;
#X connect 26 0 93 0;
#X connect 27 0 25 1;
#X connect 27 0 28 0;
#X connect 28 0 29 0;
#X connect 29 0 35 0;
#X connect 30 0 25 1;
#X connect 31 0 36 0;
#X connect 33 0 35 0;
#X connect 33 1 35 1;
#X connect 35 0 30 0;
#X connect 35 0 34 0;
#X connect 36 0 33 0;
#X connect 37 0 31 0;
#X connect 39 0 41 0;
#X connect 42 0 21 1;
#X connect 42 0 19 1;
#X connect 42 0 30 1;
#X connect 43 0 57 0;
#X connect 44 0 52 0;
#X connect 48 0 59 0;
#X connect 49 0 52 1;
#X connect 50 0 51 2;
#X connect 51 0 48 0;
#X connect 52 0 50 0;
#X connect 53 0 54 0;
#X connect 54 0 55 0;
#X connect 55 0 56 0;
#X connect 56 0 59 1;
#X connect 57 0 55 1;
#X connect 58 0 60 0;
#X connect 59 0 58 1;
#X connect 60 0 15 0;
#X connect 61 0 60 1;
#X connect 63 0 64 0;
#X connect 64 0 39 0;
#X connect 65 0 66 0;
#X connect 66 0 58 0;
#X connect 66 0 51 0;
#X connect 66 0 53 0;
#X connect 66 1 58 0;
#X connect 67 0 65 0;
#X connect 69 0 88 0;
#X connect 71 0 69 0;
#X connect 71 1 70 0;
#X connect 72 0 75 0;
#X connect 73 0 77 0;
#X connect 74 0 72 0;
#X connect 74 1 73 0;
#X connect 75 0 76 0;
#X connect 76 0 43 0;
#X connect 76 0 44 0;
#X connect 77 0 75 1;
#X connect 78 0 81 0;
#X connect 79 0 83 0;
#X connect 80 0 78 0;
#X connect 80 1 79 0;
#X connect 81 0 82 0;
#X connect 82 0 90 0;
#X connect 83 0 81 1;
#X connect 84 0 68 0;
#X connect 85 0 84 0;
#X connect 86 0 71 0;
#X connect 86 1 71 1;
#X connect 87 0 65 0;
#X connect 88 0 87 0;
#X connect 89 0 1 0;
#X connect 90 0 38 0;
#X connect 93 0 85 0;
#X connect 94 0 2 0;
#X connect 95 0 6 0;
#X coords 0 1 100 -1 400 150 1 0 2;
#X restore 29 -331 graph;
#X obj -483 -211 % 5;
#X obj -69 140 expr~ tanh($v1+$v2+$v3+$v4)/2;
#N canvas 15 190 1788 682 (subpatch) 0;
#N canvas 0 22 450 250 (subpatch) 0;
#X array DB2 127620 float 2;
#A color 0;
#A width 2;
#X coords 0 1 127620 -1 200 140 1;
#X restore 3 5 graph;
#X obj 199 161 openpanel;
#X obj 199 213 soundfiler;
#X floatatom 199 366 5 0 0 0 - - - 0;
#X obj 244 239 unpack f;
#X floatatom 244 366 5 0 0 0 - - - 0;
#X floatatom 106 315 5 0 0 0 - - - 0;
#X obj 106 340 * 0.001;
#X floatatom 106 366 5 0 0 0 - - - 0;
#X text 244 391 sample rate;
#X text 199 391 tsamp;
#X text 106 391 len sec;
#X text 201 107 load;
#X obj 21 346 s len;
#X obj 199 423 s tsamp;
#X obj 515 48 + 1;
#X obj 509 202 line~;
#X obj 738 374 s2f~;
#X floatatom 738 400 7 0 0 0 - - - 0;
#X obj 550 148 / 16;
#X obj 509 119 - 1;
#X obj 509 148 / 16;
#X obj 550 239 scope~ 200 122 256 3 128 0 1 0 0 0 0 77 77 77 228 228 228 183 183 183 0 empty;
#X obj 509 84 t b f;
#X obj 550 119 del;
#X obj 550 174 pack f f;
#X obj 461 311 *~;
#X obj 581 72 r len;
#X msg 634 101 set \$1;
#X msg 657 131 2893.88;
#X obj 658 201 / 16;
#X obj 725 19 vsl 17 128 0 1 0 0 empty empty empty 0 -9 0 10 #e4e4e4 #4d4d4d #373737 0 1;
#X text 781 200 speed;
#X obj 756 131 t b f;
#X floatatom 715 199 5 0 0 0 - - - 0;
#X obj 657 165 expr ($f1)*pow(2 \, (($f2*2)-1));
#X obj 756 101 !- 1;
#X floatatom 288 122 5 0 0 0 - - - 0;
#X text 259 121 divs;
#X obj 288 148 s div;
#X obj 560 37 r div;
#X obj 268 11 hsl 56 16 0 1 0 0 empty empty empty -2 -8 0 10 #e4e4e4 #4d4d4d #373737 0 1;
#X obj 268 48 hsl 56 16 0 1 0 0 empty empty empty -2 -8 0 10 #e4e4e4 #4d4d4d #373737 0 1;
#X text 203 5 pitch;
#X text 290 29 skip;
#X text 295 61 far;
#X floatatom 349 34 5 0 0 0 - - - 0;
#X obj 360 -79 r div;
#X obj 349 -27 int;
#X obj 349 8 rand.i 0;
#X obj 349 -52 * 16;
#X obj 416 -27 rand.i 0 100;
#X obj 416 -1 / 100;
#X obj 416 84 >;
#X floatatom 416 110 5 0 0 0 - - - 0;
#X obj 428 48 !- 1;
#X obj 515 -27 +;
#X obj 375 152 *;
#X obj 515 11 %;
#X obj 578 -25 r div;
#X floatatom 469 84 5 0 0 0 - - - 0;
#X obj 217 -52 loadbang;
#X msg 217 -26 16;
#X floatatom 515 -129 5 0 0 0 - - - 0;
#X obj 515 -79 t b f;
#X obj 428 -165 inlet;
#X obj 462 751 outlet~;
#X floatatom 515 -233 5 0 0 0 - - - 0;
#X floatatom 565 -233 5 0 0 0 - - - 0;
#X obj 515 -271 stripnote;
#X floatatom -166 -15 5 0 0 0 - - - 0;
#X floatatom -96 -15 5 0 0 0 - - - 0;
#X obj -111 -61 ctl.in 17;
#X obj -166 66 spigot;
#X obj -166 92 / 127;
#X obj -96 19 == 20;
#X floatatom -293 -15 5 0 0 0 - - - 0;
#X floatatom -223 -15 5 0 0 0 - - - 0;
#X obj -238 -61 ctl.in 17;
#X obj -293 66 spigot;
#X obj -293 92 / 127;
#X obj -223 19 == 16;
#X obj 467 707 tanh~;
#X obj 463 607 *~ 0.8;
#X obj 515 -386 midi.in 5;
#X floatatom 559 -192 5 0 0 0 - - - 0;
#X obj 515 -203 - 61;
#X obj 203 119 bng 14 250 50 0 empty empty empty 0 -7 0 12 #fcfcfc #000000 #000000;
#X obj 246 6 vsl 14 119 0 1 0 0 empty empty empty 0 -9 0 12 #e3c6ff #000000 #000000 0 1;
#X obj 258 589 scope~ 200 122 256 3 128 0 1 0 0 0 0 77 77 77 228 228 228 183 183 183 0 empty;
#X obj 643 526;
#X obj 111 238 / 44.1;
#X msg 199 187 read -resize \$1 DB2;
#X obj 461 549 tabread4~ DB2;
#X obj 125 148 s speed2;
#X obj 722 -15 r speed2;
#X connect 1 0 92 0;
#X connect 2 0 3 0;
#X connect 3 0 14 0;
#X connect 3 0 26 1;
#X connect 3 0 91 0;
#X connect 4 0 5 0;
#X connect 6 0 7 0;
#X connect 6 0 13 0;
#X connect 7 0 8 0;
#X connect 15 0 23 0;
#X connect 15 0 60 0;
#X connect 16 0 26 0;
#X connect 17 0 18 0;
#X connect 19 0 25 0;
#X connect 20 0 21 0;
#X connect 21 0 16 0;
#X connect 23 0 20 0;
#X connect 23 0 24 0;
#X connect 23 0 29 0;
#X connect 23 1 20 0;
#X connect 23 1 19 0;
#X connect 24 0 19 0;
#X connect 25 0 16 0;
#X connect 26 0 93 0;
#X connect 27 0 25 1;
#X connect 27 0 28 0;
#X connect 28 0 29 0;
#X connect 29 0 35 0;
#X connect 30 0 25 1;
#X connect 31 0 36 0;
#X connect 33 0 35 0;
#X connect 33 1 35 1;
#X connect 35 0 30 0;
#X connect 35 0 34 0;
#X connect 36 0 33 0;
#X connect 37 0 39 0;
#X connect 40 0 21 1;
#X connect 40 0 19 1;
#X connect 40 0 30 1;
#X connect 41 0 55 0;
#X connect 42 0 50 0;
#X connect 46 0 57 0;
#X connect 47 0 50 1;
#X connect 48 0 49 2;
#X connect 49 0 46 0;
#X connect 50 0 48 0;
#X connect 51 0 52 0;
#X connect 52 0 53 0;
#X connect 53 0 54 0;
#X connect 54 0 57 1;
#X connect 55 0 53 1;
#X connect 56 0 58 0;
#X connect 57 0 56 1;
#X connect 58 0 15 0;
#X connect 59 0 58 1;
#X connect 61 0 62 0;
#X connect 62 0 37 0;
#X connect 63 0 64 0;
#X connect 64 0 56 0;
#X connect 64 0 49 0;
#X connect 64 0 51 0;
#X connect 64 1 56 0;
#X connect 65 0 63 0;
#X connect 67 0 86 0;
#X connect 69 0 67 0;
#X connect 69 1 68 0;
#X connect 70 0 73 0;
#X connect 71 0 75 0;
#X connect 72 0 70 0;
#X connect 72 1 71 0;
#X connect 73 0 74 0;
#X connect 74 0 41 0;
#X connect 74 0 42 0;
#X connect 75 0 73 1;
#X connect 76 0 79 0;
#X connect 77 0 81 0;
#X connect 78 0 76 0;
#X connect 78 1 77 0;
#X connect 79 0 80 0;
#X connect 80 0 88 0;
#X connect 81 0 79 1;
#X connect 82 0 66 0;
#X connect 83 0 82 0;
#X connect 84 0 69 0;
#X connect 84 1 69 1;
#X connect 85 0 63 0;
#X connect 86 0 85 0;
#X connect 87 0 1 0;
#X connect 88 0 94 0;
#X connect 91 0 6 0;
#X connect 92 0 2 0;
#X connect 93 0 83 0;
#X connect 95 0 31 0;
#X coords 0 1 100 -1 400 150 1 0 2;
#X restore -370 -330 graph;
#X obj -184 220 r~ kb;
#X obj 422 172 s~ kb;
#X obj -69 -69 4_smplr, f 19;
#X obj 422 -79 Kick~;
#X obj -374 -173 Synth~;
#X obj -483 -234 r seq1;
#X obj -429 -233 r seq2;
#X obj -484 -351 r dbreakcnt;
#X obj 422 -101 r kptrn;
#X obj -359 -919 cardreader;
#X obj -341 -366 s kptrn;
#X obj -69 -163 r 4smpl;
#X obj -69 -137 unpack f f f f;
#X obj -69 -111 sel 1;
#X obj 68 -107 sel 1;
#X obj 206 -107 sel 1;
#X obj 344 -112 sel 1;
#X obj 282 -365 s 4smpl;
#X obj -46 -88 bng 14 250 50 0 empty empty empty 0 -7 0 12 #fcfcfc #000000 #000000;
#X obj -471 -826 s dbreakcnt;
#X obj -447 69 freeverb~;
#X msg -616 -123 roomsize \$1;
#X msg -616 -78 damping \$1;
#X msg -616 -34 width \$1;
#X msg -616 10 wet \$1;
#X msg -616 54 dry \$1;
#X msg -533 -147 print;
#X msg -499 -72 freeze \$1;
#X msg -518 -8 bypass \$1;
#X obj -518 -27 tgl 15 0 empty empty empty 0 -6 0 8 #fcfcfc #000000 #000000 0 1;
#X obj -499 -91 tgl 15 0 empty empty empty 0 -6 0 8 #fcfcfc #000000 #000000 0 1;
#X obj -600 39 hsl 60 18 0 1 0 1 empty empty dry 2 9 1 12 #d8fcd8 #000000 #000000 0 0;
#X obj -604 -13 hsl 60 18 0 1 0 1 empty empty wet 2 9 1 12 #d8fcd8 #000000 #000000 5900 0;
#X obj -604 -57 hsl 60 18 0 1 0 1 empty empty width 2 9 1 12 #fcfcc8 #000000 #000000 5900 0;
#X obj -604 -101 hsl 60 18 0 2 0 1 empty empty damping 2 9 1 12 #fce0e0 #000000 #000000 0 0;
#X obj -604 -146 hsl 60 18 0.11 1.1 0 1 empty empty roomsize 2 9 1 12 #fce0e0 #000000 #000000 4850 0;
#X floatatom -634 -142 3 0 0 0 - - - 0;
#X floatatom -634 -97 3 0 0 0 - - - 0;
#X floatatom -634 -52 3 0 0 0 - - - 0;
#X floatatom -634 -9 3 0 0 0 - - - 0;
#X floatatom -634 35 3 0 0 0 - - - 0;
#X obj -471 -914 tempo;
#X obj 113 190 osc~ 300;
#X obj -356 268 vsl 15 128 0 1 0 0 empty empty empty 0 -9 0 10 #fcfcfc #000000 #000000 0 1;
#X obj -357 244 hsl 12 15 0 1 0 0 empty empty empty -2 -8 0 10 #fcfcfc #000000 #000000 0 1;
#X obj -357 218 hsl 12 15 0 1 0 0 empty empty empty -2 -8 0 10 #fcfcfc #000000 #000000 0 1;
#X obj -326 268 vsl 15 128 0 127 0 0 empty empty empty 0 -9 0 10 #fcfcfc #000000 #000000 0 1;
#X obj -327 244 hsl 12 15 0 127 0 0 empty empty empty -2 -8 0 10 #fcfcfc #000000 #000000 0 1;
#X obj -327 218 hsl 12 15 0 127 0 0 empty empty empty -2 -8 0 10 #fcfcfc #000000 #000000 0 1;
#X obj -301 267 vsl 15 128 0 127 0 0 empty empty empty 0 -9 0 10 #fcfcfc #000000 #000000 0 1;
#X obj -302 243 hsl 12 15 0 127 0 0 empty empty empty -2 -8 0 10 #fcfcfc #000000 #000000 0 1;
#X obj -297 218 hsl 12 15 0 127 0 0 empty empty empty -2 -8 0 10 #fcfcfc #000000 #000000 0 1;
#X obj -271 267 vsl 15 128 0 127 0 0 empty empty empty 0 -9 0 10 #fcfcfc #000000 #000000 0 1;
#X obj -272 243 hsl 12 15 0 127 0 0 empty empty empty -2 -8 0 10 #fcfcfc #000000 #000000 0 1;
#X obj -267 218 hsl 12 15 0 127 0 0 empty empty empty -2 -8 0 10 #fcfcfc #000000 #000000 0 1;
#X obj -204 408 Mixer~, f 34;
#X obj -138 326 osc~ 300;
#X msg -204 301 /f1 \$1;
#X msg -204 329 /v1 \$1;
#X msg -204 271 /s1 \$1;
#X text 92 582 comment;
#X connect 2 0 18 1;
#X connect 3 0 4 0;
#X connect 4 0 18 0;
#X connect 5 0 0 3;
#X connect 6 0 0 2;
#X connect 10 0 7 0;
#X connect 11 0 2 0;
#X connect 12 0 0 1;
#X connect 13 0 7 0;
#X connect 14 0 0 0;
#X connect 16 0 12 0;
#X connect 16 1 12 1;
#X connect 16 2 12 2;
#X connect 16 3 12 3;
#X connect 17 0 15 0;
#X connect 19 0 11 0;
#X connect 20 0 3 0;
#X connect 21 0 13 0;
#X connect 21 0 10 0;
#X connect 22 0 17 0;
#X connect 23 0 24 0;
#X connect 23 3 31 0;
#X connect 25 0 26 0;
#X connect 26 0 27 0;
#X connect 26 1 28 0;
#X connect 26 2 29 0;
#X connect 26 3 30 0;
#X connect 27 0 16 0;
#X connect 27 0 32 0;
#X connect 28 0 16 1;
#X connect 29 0 16 2;
#X connect 30 0 16 3;
#X connect 34 0 9 0;
#X connect 34 1 9 0;
#X connect 35 0 34 0;
#X connect 36 0 34 0;
#X connect 37 0 34 0;
#X connect 38 0 34 0;
#X connect 39 0 34 0;
#X connect 41 0 34 0;
#X connect 42 0 34 0;
#X connect 43 0 42 0;
#X connect 44 0 41 0;
#X connect 45 0 39 0;
#X connect 45 0 54 0;
#X connect 46 0 38 0;
#X connect 46 0 53 0;
#X connect 47 0 37 0;
#X connect 47 0 52 0;
#X connect 48 0 36 0;
#X connect 48 0 51 0;
#X connect 49 0 35 0;
#X connect 49 0 50 0;
#X connect 55 0 33 0;
#X connect 55 1 23 0;
#X connect 57 0 72 0;
#X connect 58 0 71 0;
#X connect 59 0 73 0;
#X connect 69 1 1 0;
#X connect 69 2 1 1;
#X connect 70 0 69 1;
#X connect 71 0 69 0;
#X connect 72 0 69 0;
#X connect 73 0 69 0;
#X coords 0 0 1.52587e-05 1.52587e-05 0 0 0;
