#N canvas -19 140 1434 968 12;
#X obj 61 297 vsl 50 179 0 127 0 0 empty empty empty 0 -9 0 12 #c7c6ff #000000 #000000 0 1;
#X obj 61 177 else/knob 50 0 127 0 0 empty empty #e3c6ff #ffe3c6 #0400ff 1 0 0 0 1 320 0 0 0 empty empty 0 12 6 -15 0 1 0 0 1 0;
#X obj 118 297 vsl 50 179 0 127 0 0 empty empty empty 0 -9 0 12 #c7c6ff #000000 #000000 0 1;
#X obj 118 177 else/knob 50 0 127 0 0 empty empty #e3c6ff #ffe3c6 #0400ff 1 0 0 0 1 320 0 0 0 empty empty 0 12 6 -15 0 1 0 0 1 0;
#X obj 175 297 vsl 50 179 0 127 0 0 empty empty empty 0 -9 0 12 #c7c6ff #000000 #000000 0 1;
#X obj 175 177 else/knob 50 0 127 0 0 empty empty #e3c6ff #ffe3c6 #0400ff 1 0 0 0 1 320 0 0 0 empty empty 0 12 6 -15 0 1 0 0 1 0;
#X obj 232 297 vsl 50 179 0 127 0 0 empty empty empty 0 -9 0 12 #c7c6ff #000000 #000000 0 1;
#X obj 232 177 else/knob 50 0 127 0 0 empty empty #e3c6ff #ffe3c6 #0400ff 1 0 0 0 1 320 0 0 0 empty empty 0 12 6 -15 0 1 0 0 1 0;
#X obj 61 122 else/knob 50 0 127 0 0 empty empty #e3c6ff #ffe3c6 #0400ff 1 0 0 0 1 320 0 0 0 empty empty 0 12 6 -15 0 1 0 0 1 0;
#X obj 118 122 else/knob 50 0 127 0 0 empty empty #e3c6ff #ffe3c6 #0400ff 1 0 0 0 1 320 0 0 0 empty empty 0 12 6 -15 0 1 0 0 1 0;
#X obj 175 122 else/knob 50 0 127 0 0 empty empty #e3c6ff #ffe3c6 #0400ff 1 0 0 0 1 320 0 0 0 empty empty 0 12 6 -15 0 1 0 0 1 0;
#X obj 232 122 else/knob 50 0 127 0 0 empty empty #e3c6ff #ffe3c6 #0400ff 1 0 0 0 1 320 0 0 0 empty empty 0 12 6 -15 0 1 0 0 1 0;
#X obj 61 67 else/knob 50 0 127 0 0 empty empty #e3c6ff #ffe3c6 #0400ff 1 0 0 0 1 320 0 0 0 empty empty 0 12 6 -15 0 1 0 0 1 0;
#X obj 118 67 else/knob 50 0 127 0 0 empty empty #e3c6ff #ffe3c6 #0400ff 1 0 0 0 1 320 0 0 0 empty empty 0 12 6 -15 0 1 0 0 1 0;
#X obj 175 67 else/knob 50 0 127 0 0 empty empty #e3c6ff #ffe3c6 #0400ff 1 0 0 0 1 320 0 0 0 empty empty 0 12 6 -15 0 1 0 0 1 0;
#X obj 232 67 else/knob 50 0 127 0 0 empty empty #e3c6ff #ffe3c6 #0400ff 1 0 0 0 1 320 0 0 0 empty empty 0 12 6 -15 0 1 0 0 1 0;
#X obj 61 12 else/knob 50 0 127 0 0 empty empty #e3c6ff #ffe3c6 #0400ff 1 0 0 0 1 320 0 0 0 empty empty 0 12 6 -15 0 1 0 0 1 0;
#X obj 118 12 else/knob 50 0 127 0 0 empty empty #e3c6ff #ffe3c6 #0400ff 1 0 0 0 1 320 0 0 0 empty empty 0 12 6 -15 0 1 0 0 1 0;
#X obj 175 12 else/knob 50 0 127 0 0 empty empty #e3c6ff #ffe3c6 #0400ff 1 0 0 0 1 320 0 0 0 empty empty 0 12 6 -15 0 1 0 0 1 0;
#X obj 232 12 else/knob 50 0 127 0 0 empty empty #e3c6ff #ffe3c6 #0400ff 1 0 0 0 1 320 0 0 0 empty empty 0 12 6 -15 0 1 0 0 1 0;
#X obj 4 -48 else/knob 50 0 127 0 0 empty empty #e3c6ff #ffe3c6 #0400ff 1 0 0 0 1 320 0 0 0 empty empty 0 12 6 -15 0 1 0 0 1 0;
#X obj 61 -48 else/knob 50 0 127 0 0 empty empty #e3c6ff #ffe3c6 #0400ff 1 0 0 0 1 320 0 0 0 empty empty 0 12 6 -15 0 1 0 0 1 0;
#X obj 232 -48 else/knob 50 0 127 0 0 empty empty #e3c6ff #ffe3c6 #0400ff 1 0 0 0 1 320 0 0 0 empty empty 0 12 6 -15 0 1 0 0 1 0;
#X obj 289 -48 else/knob 50 0 127 0 0 empty empty #e3c6ff #ffe3c6 #0400ff 1 0 0 0 1 320 0 0 0 empty empty 0 12 6 -15 0 1 0 0 1 0;
#X obj 61 250 tgl 20 0 empty empty empty 0 -11 0 12 #fcfcfc #000000 #000000 0 1;
#X obj 91 250 tgl 20 0 empty empty empty 0 -11 0 12 #fcfcfc #000000 #000000 0 1;
#X obj 118 251 tgl 20 0 empty empty empty 0 -11 0 12 #fcfcfc #000000 #000000 0 1;
#X obj 148 251 tgl 20 0 empty empty empty 0 -11 0 12 #fcfcfc #000000 #000000 0 1;
#X obj 175 251 tgl 20 0 empty empty empty 0 -11 0 12 #fcfcfc #000000 #000000 0 1;
#X obj 205 251 tgl 20 0 empty empty empty 0 -11 0 12 #fcfcfc #000000 #000000 0 1;
#X obj 232 251 tgl 20 0 empty empty empty 0 -11 0 12 #fcfcfc #000000 #000000 0 1;
#X obj 262 251 tgl 20 0 empty empty empty 0 -11 0 12 #fcfcfc #000000 #000000 0 1;
#X obj 76 273 tgl 20 0 empty empty empty 0 -11 0 12 #fcfcfc #000000 #000000 0 1;
#X obj 131 273 tgl 20 0 empty empty empty 0 -11 0 12 #fcfcfc #000000 #000000 0 1;
#X obj 189 273 tgl 20 0 empty empty empty 0 -11 0 12 #fcfcfc #000000 #000000 0 1;
#X obj 245 273 tgl 20 0 empty empty empty 0 -11 0 12 #fcfcfc #000000 #000000 0 1;
#X obj 159 229 tgl 20 0 empty empty empty 0 -11 0 12 #fcfcfc #000000 #000000 0 1;
#X obj 162 -36 tgl 20 0 empty empty empty 0 -11 0 12 #fcfcfc #000000 #000000 0 1;
#X obj 115 -18 tgl 20 0 empty empty empty 0 -11 0 12 #fcfcfc #000000 #000000 0 1;
#X obj 209 -48 tgl 20 0 empty empty empty 0 -11 0 12 #fcfcfc #000000 #000000 0 1;
#X obj 74 483 hsl 200 25 0 127 0 0 empty empty empty -2 -11 0 12 #fcfcfc #000000 #000000 0 1;
#X obj -86 462 ctlin 64 1;
#X obj -112 -125 ctlin, f 12;
#X floatatom -112 -100 5 0 0 0 - - - 0;
#X floatatom -75 -100 5 0 0 0 - - - 0;
#X floatatom -37 -100 5 0 0 0 - - - 0;
#X obj -276 274 ctlin 48 1;
#X obj -204 274 ctlin 49 1;
#X obj -419 274 ctlin 50 1;
#X obj -347 274 ctlin 51 1;
#X obj -419 156 ctlin 18 1;
#X obj -348 156 ctlin 19 1;
#X obj -277 156 ctlin 20 1;
#X obj -206 156 ctlin 21 1;
#X obj -419 101 ctlin 14 1;
#X obj -348 101 ctlin 15 1;
#X obj -277 101 ctlin 16 1;
#X obj -206 101 ctlin 17 1;
#X obj -419 46 ctlin 10 1;
#X obj -348 46 ctlin 11 1;
#X obj -277 46 ctlin 12 1;
#X obj -206 46 ctlin 13 1;
#X obj -419 -9 ctlin 6 1;
#X obj -346 -9 ctlin 7 1;
#X obj -275 -9 ctlin 8 1;
#X obj -204 -9 ctlin 9 1;
#X obj -154 -69 ctlin 1 1;
#X obj -83 -69 ctlin 2 1;
#X obj 366 -69 ctlin 4 1;
#X obj 437 -69 ctlin 5 1;
#X floatatom 1324 154 5 0 0 0 - - - 0;
#X floatatom 1484 154 5 0 0 0 - - - 0;
#X obj 1324 122 notein 1, f 25;
#X msg 1484 205 set \$1;
#X obj 1324 205 bng 21 250 50 0 empty empty empty 0 -11 0 12 #fcfcfc #000000 #000000;
#X msg 1349 226 0;
#X msg 1389 226 0;
#X obj 1389 252 tgl 21 0 empty empty empty 0 -11 0 12 #fcfcfc #000000 #000000 0 1;
#X obj 1349 252 tgl 21 0 empty empty empty 0 -11 0 12 #fcfcfc #000000 #000000 0 1;
#X obj 1324 179 sel 48 49 50 51;
#X msg 1429 226 0;
#X obj 1429 252 tgl 21 0 empty empty empty 0 -11 0 12 #fcfcfc #000000 #000000 0 1;
#X msg 1469 226 0;
#X obj 1469 252 tgl 21 0 empty empty empty 0 -11 0 12 #fcfcfc #000000 #000000 0 1;
#X floatatom 244 -206 5 0 0 0 - - - 0;
#X floatatom 404 -206 5 0 0 0 - - - 0;
#X obj 244 -238 notein 1, f 25;
#X msg 404 -155 set \$1;
#X msg 244 -134 0;
#X msg 266 -134 0;
#X msg 288 -134 0;
#X obj 244 -108 tgl 21 0 empty empty empty 0 -11 0 12 #fcfcfc #000000 #000000 0 1;
#X obj 266 -108 tgl 21 0 empty empty empty 0 -11 0 12 #fcfcfc #000000 #000000 0 1;
#X obj 288 -108 tgl 21 0 empty empty empty 0 -11 0 12 #fcfcfc #000000 #000000 0 1;
#X obj 244 -180 sel 3 16 17;
#X floatatom 121 -171 5 0 0 0 - - - 0;
#X obj 138 -38 bng 21 250 50 0 empty empty empty 0 -11 0 12 #fcfcfc #000000 #000000;
#X obj 185 -37 bng 21 250 50 0 empty empty empty 0 -11 0 12 #fcfcfc #000000 #000000;
#X obj 121 -197 ctlin;
#X obj 121 -146 sel 63 65;
#X floatatom 344 132 5 0 0 0 - - - 0;
#X floatatom 744 123 5 0 0 0 - - - 0;
#X obj 344 100 notein 1, f 25;
#X msg 744 185 set \$1;
#X obj 344 183 bng 21 250 50 0 empty empty empty 0 -11 0 12 #fcfcfc #000000 #000000;
#X msg 369 204 0;
#X msg 409 204 0;
#X obj 409 230 tgl 21 0 empty empty empty 0 -11 0 12 #fcfcfc #000000 #000000 0 1;
#X obj 369 230 tgl 21 0 empty empty empty 0 -11 0 12 #fcfcfc #000000 #000000 0 1;
#X msg 449 204 0;
#X obj 449 230 tgl 21 0 empty empty empty 0 -11 0 12 #fcfcfc #000000 #000000 0 1;
#X msg 489 204 0;
#X obj 489 230 tgl 21 0 empty empty empty 0 -11 0 12 #fcfcfc #000000 #000000 0 1;
#X msg 529 204 0;
#X obj 529 230 tgl 21 0 empty empty empty 0 -11 0 12 #fcfcfc #000000 #000000 0 1;
#X msg 569 204 0;
#X obj 569 230 tgl 21 0 empty empty empty 0 -11 0 12 #fcfcfc #000000 #000000 0 1;
#X msg 609 204 0;
#X obj 609 230 tgl 21 0 empty empty empty 0 -11 0 12 #fcfcfc #000000 #000000 0 1;
#X msg 649 204 0;
#X obj 649 230 tgl 21 0 empty empty empty 0 -11 0 12 #fcfcfc #000000 #000000 0 1;
#X obj 344 157 sel 19 20 23 24 27 28 31 32 18;
#X msg 686 204 0;
#X obj 686 230 tgl 21 0 empty empty empty 0 -11 0 12 #fcfcfc #000000 #000000 0 1;
#X connect 41 0 40 0;
#X connect 42 0 43 0;
#X connect 42 1 44 0;
#X connect 42 2 45 0;
#X connect 46 0 0 0;
#X connect 47 0 2 0;
#X connect 48 0 4 0;
#X connect 49 0 6 0;
#X connect 50 0 1 0;
#X connect 51 0 3 0;
#X connect 52 0 5 0;
#X connect 53 0 7 0;
#X connect 54 0 8 0;
#X connect 55 0 9 0;
#X connect 56 0 10 0;
#X connect 57 0 11 0;
#X connect 58 0 12 0;
#X connect 59 0 13 0;
#X connect 60 0 14 0;
#X connect 61 0 15 0;
#X connect 62 0 16 0;
#X connect 63 0 17 0;
#X connect 64 0 18 0;
#X connect 65 0 19 0;
#X connect 66 0 20 0;
#X connect 67 0 21 0;
#X connect 68 0 22 0;
#X connect 69 0 23 0;
#X connect 70 0 79 0;
#X connect 71 0 73 0;
#X connect 72 0 70 0;
#X connect 72 1 71 0;
#X connect 73 0 75 0;
#X connect 73 0 76 0;
#X connect 73 0 82 0;
#X connect 73 0 80 0;
#X connect 74 0 75 0;
#X connect 75 0 78 0;
#X connect 76 0 77 0;
#X connect 77 0 33 0;
#X connect 78 0 32 0;
#X connect 79 0 74 0;
#X connect 79 1 76 0;
#X connect 79 2 80 0;
#X connect 79 3 82 0;
#X connect 80 0 81 0;
#X connect 81 0 34 0;
#X connect 82 0 83 0;
#X connect 83 0 35 0;
#X connect 84 0 94 0;
#X connect 85 0 87 0;
#X connect 86 0 84 0;
#X connect 86 1 85 0;
#X connect 87 0 88 0;
#X connect 87 0 90 0;
#X connect 87 0 89 0;
#X connect 88 0 91 0;
#X connect 89 0 92 0;
#X connect 90 0 93 0;
#X connect 91 0 37 0;
#X connect 92 0 38 0;
#X connect 93 0 39 0;
#X connect 94 0 88 0;
#X connect 94 1 89 0;
#X connect 94 2 90 0;
#X connect 95 0 99 0;
#X connect 98 0 95 0;
#X connect 99 0 96 0;
#X connect 99 1 97 0;
#X connect 100 0 121 0;
#X connect 101 0 103 0;
#X connect 102 0 100 0;
#X connect 102 1 101 0;
#X connect 103 0 105 0;
#X connect 103 0 106 0;
#X connect 103 0 111 0;
#X connect 103 0 109 0;
#X connect 103 0 119 0;
#X connect 103 0 117 0;
#X connect 103 0 115 0;
#X connect 103 0 113 0;
#X connect 103 0 122 0;
#X connect 104 0 105 0;
#X connect 105 0 108 0;
#X connect 106 0 107 0;
#X connect 107 0 25 0;
#X connect 108 0 24 0;
#X connect 109 0 110 0;
#X connect 110 0 26 0;
#X connect 111 0 112 0;
#X connect 112 0 27 0;
#X connect 113 0 114 0;
#X connect 114 0 28 0;
#X connect 115 0 116 0;
#X connect 116 0 29 0;
#X connect 117 0 118 0;
#X connect 118 0 30 0;
#X connect 119 0 120 0;
#X connect 120 0 31 0;
#X connect 121 0 104 0;
#X connect 121 1 106 0;
#X connect 121 2 109 0;
#X connect 121 3 111 0;
#X connect 121 4 113 0;
#X connect 121 5 115 0;
#X connect 121 6 117 0;
#X connect 121 7 119 0;
#X connect 121 8 122 0;
#X connect 122 0 123 0;
#X connect 123 0 36 0;
