#N canvas 1132 110 611 755 12;
#X obj 41 16 inlet;
#X obj 41 40 t l b;
#X obj 73 69 bng 20 250 50 0 empty empty empty 0 -10 0 12 #fcfcfc #000000 #000000;
#X obj 73 119 bng 20 250 50 0 empty empty empty 0 -10 0 12 #fcfcfc #000000 #000000;
#X obj 129 89 random 39;
#X obj 129 118 * 2;
#X floatatom 156 118 5 0 0 0 - - - 0;
#X obj 38 358 outlet;
#X obj 41 154 zl.rot;
#X obj 40 192 zl.ecils, f 13;
#X obj 73 94 del 5;
#X obj 232 120 * -1;
#X obj 41 315 zl.join;
#X obj 89 358 zl.len;
#X floatatom 89 383 5 0 0 0 - - - 0;
#X obj 126 216 zl.delace;
#X obj 126 241 zl.join;
#X connect 0 0 1 0;
#X connect 1 0 8 0;
#X connect 1 1 2 0;
#X connect 2 0 4 0;
#X connect 2 0 10 0;
#X connect 4 0 5 0;
#X connect 4 0 8 1;
#X connect 4 0 11 0;
#X connect 5 0 6 0;
#X connect 5 0 9 1;
#X connect 8 0 9 0;
#X connect 9 0 12 0;
#X connect 9 1 15 0;
#X connect 10 0 3 0;
#X connect 12 0 7 0;
#X connect 12 0 13 0;
#X connect 13 0 14 0;
#X connect 15 0 16 0;
#X connect 15 1 16 1;
#X connect 16 0 12 1;
#X coords 0 0 0.5 0.5 0 0 0;
