#N canvas 272 332 1050 531 12;
#X obj 138 155 hsl 119 14 0 100 0 0 empty empty empty -2 -7 0 12 #fcfcfc #000000 #000000 0 1;
#X text 70 149 transport;
#X obj 106 138 tgl 14 0 empty empty empty 0 -7 0 12 #fcfcfc #000000 #000000 0 1;
#X obj 106 181 metro;
#X obj 106 200 counter;
#X obj 106 219 % 5;
#X obj 106 237 sel 0;
#X obj 106 264 bng 14 250 50 0 empty empty empty 0 -7 0 12 #fcfcfc #000000 #000000;
#X obj 51 278 bng 21 250 50 0 empty empty empty 0 -11 0 12 #fcfcfc #000000 #000000;
#X obj 52 306 counter;
#X obj 52 333 expr ($f1%16)+1;
#X floatatom 135 105 5 0 0 0 - - - 0;
#X obj 259 278 outlet;
#X obj 52 49 outlet;
#X obj 396 64 r clock_run;
#X connect 0 0 3 1;
#X connect 2 0 3 0;
#X connect 3 0 4 0;
#X connect 4 0 5 0;
#X connect 5 0 6 0;
#X connect 6 0 7 0;
#X connect 7 0 8 0;
#X connect 7 0 12 0;
#X connect 8 0 9 0;
#X connect 9 0 10 0;
#X connect 10 0 13 0;
#X connect 11 0 0 0;
#X connect 14 0 2 0;
#X coords 0 -1 1 1 85 60 1 100 100;
