#N canvas 348 160 1263 750 12;
#X obj 208 187 bng 14 250 50 0 empty empty empty 0 -7 0 12 #fcfcfc #000000 #000000;
#X obj 215 299 bng 14 250 50 0 empty empty empty 0 -7 0 12 #fcfcfc #000000 #000000;
#N canvas 0 50 450 250 (subpatch) 0;
#X array Sampler_2 1873 float 0;
#A color 0;
#A width 1;
#X coords 0 1 1872 -1 100 80 1;
#X restore 208 215 graph;
#X obj 186 390 soundfiler;
#X obj 186 355 openpanel;
#X floatatom 186 410 5 0 0 0 - - - 0;
#X floatatom 313 464 5 0 0 0 - - - 0;
#X msg 186 371 read -resize \$1 Sampler_2;
#X obj 217 323 tabplay~ Sampler_2;
#X obj 415 186 bng 14 250 50 0 empty empty empty 0 -7 0 12 #fcfcfc #000000 #000000;
#N canvas 0 50 450 250 (subpatch) 0;
#X array Sampler_4 16128 float 0;
#A color 0;
#A width 1;
#X coords 0 1 16127 -1 100 80 1;
#X restore 414 215 graph;
#X obj 535 365 soundfiler;
#X obj 535 330 openpanel;
#X floatatom 535 385 5 0 0 0 - - - 0;
#X floatatom 602 385 5 0 0 0 - - - 0;
#X msg 535 346 read -resize \$1 Sampler_4;
#X obj 535 440 tabplay~ Sampler_4;
#X msg 547 412 0 44100;
#X obj 108 186 bng 14 250 50 0 empty empty empty 0 -7 0 12 #fcfcfc #000000 #000000;
#X obj 74 279 bng 14 250 50 0 empty empty empty 0 -7 0 12 #fcfcfc #000000 #000000;
#N canvas 0 50 450 250 (subpatch) 0;
#X array Sampler_1 5180 float 0;
#A color 0;
#A width 1;
#X coords 0 1 5179 -1 100 80 1;
#X restore 105 215 graph;
#X obj -84 196 soundfiler;
#X msg -84 177 read -resize \$1 Sampler_1;
#X obj -84 161 openpanel;
#X obj 72 303 tabplay~ Sampler_1;
#X obj 312 185 bng 14 250 50 0 empty empty empty 0 -7 0 12 #fcfcfc #000000 #000000;
#X obj 369 320 bng 14 250 50 0 empty empty empty 0 -7 0 12 #fcfcfc #000000 #000000;
#N canvas 0 50 450 250 (subpatch) 0;
#X array Sampler_3 2349 float 0;
#A color 0;
#A width 1;
#X coords 0 1 2348 -1 100 80 1;
#X restore 311 215 graph;
#X obj 339 409 soundfiler;
#X obj 339 374 openpanel;
#X obj 369 344 tabplay~ Sampler_3;
#X msg 339 390 read -resize \$1 Sampler_3;
#X obj 70 605 outlet~;
#X obj 216 604 outlet~;
#X obj 333 604 outlet~;
#X obj 491 605 outlet~;
#X obj 75 64 inlet;
#X obj 364 158 inlet;
#X obj 215 59 inlet;
#X obj 581 156 inlet;
#X text -195 32 comment;
#X connect 0 0 4 0;
#X connect 1 0 8 0;
#X connect 3 0 5 0;
#X connect 3 1 6 0;
#X connect 4 0 7 0;
#X connect 7 0 3 0;
#X connect 8 0 33 0;
#X connect 9 0 12 0;
#X connect 11 0 13 0;
#X connect 11 1 14 0;
#X connect 12 0 15 0;
#X connect 15 0 11 0;
#X connect 16 0 35 0;
#X connect 17 0 16 0;
#X connect 18 0 23 0;
#X connect 19 0 24 0;
#X connect 22 0 21 0;
#X connect 23 0 22 0;
#X connect 24 0 32 0;
#X connect 25 0 29 0;
#X connect 26 0 30 0;
#X connect 29 0 31 0;
#X connect 30 0 34 0;
#X connect 31 0 28 0;
#X connect 36 0 19 0;
#X connect 37 0 26 0;
#X connect 38 0 1 0;
#X connect 39 0 17 0;
#X coords 0 -1 1 1 420 200 1 100 100;
