#N struct 1209-slot float x float y float slotsize float color float width float bordercolor;
#N canvas 244 156 1828 785 12;
#X obj 114 111 pic 0 /home/orangepi/Desktop/PD/tarot_bw/minor_arcana_wands_knight.gif next card 0 0;
#X obj 338 710 cnv 20 10 80 empty empty empty 20 12 0 12 #c6ffc7 #404040 0;
#X text 295 712 indexer;
#X obj 383 778 counter;
#X obj 366 715 bng 20 250 50 0 empty flush empty 0 -10 0 12 #fcfcfc #000000 #000000;
#X obj 366 743 bng 20 250 50 0 empty next empty 0 -10 0 12 #fcfcfc #000000 #000000;
#X text 390 714 flush;
#X text 390 743 next_;
#X obj 383 803 % 78;
#X floatatom 383 828 5 0 0 0 - - - 0;
#X obj 489 712 cnv 20 10 80 empty empty empty 20 12 0 12 #e3c6ff #404040 0;
#X text 439 714 shuffler;
#X text 962 1020 comment;
#X obj 618 688 bng 20 250 50 0 empty empty empty 0 -10 0 12 #fcfcfc #000000 #000000;
#X obj 679 708 del 1;
#X obj 679 733 bng 20 250 50 0 empty empty empty 0 -10 0 12 #fcfcfc #000000 #000000;
#X obj 679 757 uzi 78;
#X obj 718 782 - 1;
#X obj 718 808 t b i;
#X msg 618 809 zlclear;
#X obj 557 708 del 5, f 7;
#X obj 557 733 bng 20 250 50 0 empty empty empty 0 -10 0 12 #fcfcfc #000000 #000000;
#X msg 778 753 78;
#X obj 557 852 list;
#X floatatom 500 898 5 0 0 0 - - - 0;
#X obj 556 876 Shuffler;
#X obj 563 1174 list;
#X obj 556 1078 t b l;
#X floatatom 500 920 5 0 0 0 - - - 0;
#X obj 500 871 zl.len;
#X obj 718 833 zl.stream;
#X obj 610 1097 zl.len;
#X obj 556 898 Shuffler;
#X obj 556 927 Shuffler;
#X obj 556 949 Shuffler;
#X obj 556 977 Shuffler;
#X obj 556 999 Shuffler;
#X obj 556 1027 Shuffler;
#X obj 556 1049 Shuffler;
#X obj 610 1122 == 78;
#X obj 610 1147 sel 1 0;
#X obj 632 1174 s rethrow;
#X obj 658 668 r rethrow;
#X floatatom 707 1111 5 0 0 0 - - - 0;
#X obj 333 1155 cnv 20 10 80 empty empty empty 20 12 0 12 #ffe3c6 #404040 0;
#X text 296 1157 finder;
#X obj 383 1193 zl.nth;
#X obj 383 1169 t b f, f 6;
#X text 72 1216 iconset;
#X obj 342 1297 dir, f 19;
#X floatatom 383 1218 5 0 0 0 - - - 0;
#X msg 383 1242 seek \$1;
#X msg 535 1310 set \$1;
#X obj 1046 2405 file join;
#X obj 258 1513 file join;
#X text 157 1417 trailing slash ->;
#X text 117 1465 components ->;
#X obj 258 1489 list;
#X listbox 283 1420 25 0 0 0 - - - 0;
#X listbox 216 1459 0 0 0 0 - - - 0;
#X obj 43 1223 bng 20 250 50 0 empty empty empty 0 -10 0 12 #fcfcfc #000000 #000000;
#X obj 43 1248 openpanel 1;
#X msg 43 1284 open \$1;
#X obj 737 1294 bng 20 250 50 0 empty empty empty 0 -10 0 12 #fcfcfc #000000 #000000;
#X obj 241 1576 s card;
#X listbox 294 1556 0 0 0 0 - - - 0;
#X obj 216 1348 bng 20 250 50 0 empty empty empty 0 -10 0 12 #fcfcfc #000000 #000000;
#X msg 292 1575 open \$1;
#X obj 157 698 cnv 20 10 80 empty empty empty 20 12 0 12 #c6ffc7 #404040 0;
#X text 100 698 card info;
#X obj 156 697 cnv 20 10 80 empty empty empty 20 12 0 12 #c6ffc7 #404040 0;
#X text 100 788 note maker;
#X obj 820 1382 symbol2list _;
#X obj 820 1401 unpack s s s s;
#X obj 925 1400 symbol2list .gif;
#X obj 725 1426 sel major minor;
#X obj 725 1518 bng 14 250 50 0 empty empty empty 0 -7 0 12 #fcfcfc #000000 #000000;
#X obj 776 1465 bng 14 250 50 0 empty empty empty 0 -7 0 12 #fcfcfc #000000 #000000;
#X obj 776 1484 t b b;
#X obj 883 1440 symbol2list .gif;
#X listbox 640 1402 25 0 0 0 - - - 0;
#X text 650 1460 card info;
#X obj -65 1306 zl.nth;
#X obj -65 1282 t b f, f 6;
#X obj -65 1443 dir, f 19;
#X floatatom -65 1331 5 0 0 0 - - - 0;
#X msg -65 1355 seek \$1;
#X msg 44 1355 open \$1;
#X listbox -65 1610 15 0 0 0 - - - 0;
#X obj -104 1262 uzi 78;
#X obj -104 1240 bng 14 250 50 0 empty empty empty 0 -7 0 12 #fcfcfc #000000 #000000;
#X obj -65 1462 symbol2list _;
#X obj -65 1477 unpack s s s s;
#X listbox -65 1492 25 0 0 0 - - - 0;
#X obj -65 1513 sel major minor;
#X obj -65 1586 zl.stream 78;
#X msg -65 1531 1;
#X msg -14 1531 0;
#X obj -65 1635 reverse;
#X obj -163 1634 uzi 78;
#X obj -163 1612 bng 14 250 50 0 empty empty empty 0 -7 0 12 #fcfcfc #000000 #000000;
#X obj -124 1676 zl.nth;
#X obj -124 1652 t b f, f 6;
#X msg -163 1694 set 0;
#X obj -124 1694 sel 0 1;
#X obj -124 1721 bng 14 250 50 0 empty empty empty 0 -7 0 12 #fcfcfc #000000 #000000;
#X obj -101 1721 bng 14 250 50 0 empty empty empty 0 -7 0 12 #fcfcfc #000000 #000000;
#X msg -164 1740 set 1;
#X obj -101 1802 s var_majin;
#X msg -68 1737 set \$1, f 7;
#X msg -68 1755 0;
#X obj -138 1780 +;
#X msg -101 1740 0;
#X obj 5 1733 zl.stream 78;
#X obj 5 1755 reverse;
#X listbox 5 1780 15 0 0 0 - - - 0;
#X obj -40 1666 s var_majin;
#X msg -40 1651 0;
#X obj 253 870 s counter;
#X obj 5 1849 zl.nth;
#X obj 122 1778 r counter;
#X obj 122 1806 + 1;
#X floatatom 5 1877 5 0 0 0 - - - 0;
#X obj 5 1915 s nextmajin;
#X obj -163 1163 r flush;
#X obj -163 1181 del 10;
#X obj -163 1386 del 10;
#X floatatom 162 1796 5 0 0 0 - - - 0;
#X obj 436 132 bng 20 250 50 0 flush empty Flush 0 -10 0 12 #fcfcfc #000000 #000000;
#X obj 467 132 bng 20 250 50 0 next empty Next 0 -10 0 12 #fcfcfc #000000 #000000;
#X obj 122 1824 t b f;
#X obj 840 1360 symbol;
#X msg 883 1539 set \$1;
#X listbox 853 1606 8 0 0 0 - - - 0;
#X obj 853 1635 s last_maj;
#X msg 1016 1563 set knight of wands;
#X msg 1006 1537 add2 of;
#X obj 1006 1497 del 1;
#X obj 1066 1497 del 2;
#X msg 1066 1516 add2 wands;
#X msg 1066 1453 set add2 \$1;
#X listbox 501 156 20 0 0 0 Last\ Maj\  last_maj - 0;
#X obj 496 1310 bng 14 250 50 0 empty empty empty 0 -7 0 12 #fcfcfc #000000 #000000;
#X msg 496 1335 minor_arcana_wands_knight.gif;
#X obj 1026 1720 s last_min;
#X obj 838 1665 s last_card;
#X listbox 501 176 20 0 0 0 Last\ Min last_min - 0;
#X listbox 501 196 20 0 0 0 Last\ Card last_card - 0;
#X obj 776 1502 del 3;
#X obj 1026 1671 unpack s s s;
#X obj 1026 1689 pack s s s, f 12;
#X obj 952 1309 sel 1 2 3 4 5 6 7 8 9 10;
#X msg 952 1331 one;
#X msg 968 1351 two;
#X msg 985 1331 three;
#X msg 1001 1352 four;
#X msg 1032 1331 five;
#X msg 1048 1351 six;
#X msg 1075 1331 seven;
#X msg 1091 1352 eight;
#X msg 1125 1331 nine;
#X msg 1141 1352 ten;
#X obj 952 1574 + 0;
#X obj 952 1592 sel 0;
#X obj 952 1611 bng 14 250 50 0 empty empty empty 0 -7 0 12 #fcfcfc #000000 #000000;
#X obj 984 1611 bng 14 250 50 0 empty empty empty 0 -7 0 12 #fcfcfc #000000 #000000;
#X floatatom 952 1560 5 0 0 0 - - - 0;
#X obj 1125 1671 unpack f s s;
#X obj 1125 1688 pack f s s, f 12;
#X msg 1042 1401 set set \$1;
#X msg 1026 1608 knight of wands;
#X obj 1086 1537 del 1;
#X msg 1136 1608 knight of wands;
#X obj 1146 1537 del 1;
#X listbox 501 135 11 0 0 1 Next\ Maj\ in nextmajin - 0;
#X obj 615 1738 metro 400;
#X obj 615 1720 tgl 14 0 empty empty empty 0 -7 0 12 #fcfcfc #000000 #000000 0 1;
#X obj 615 1756 bng 14 250 50 0 empty empty empty 0 -7 0 12 #fcfcfc #000000 #000000;
#X text 684 1737 // feu - pentacles - perc //eau - coupes - breaks //terre - batons - kick //air - epees - synth, f 25;
#X msg 866 1739 chariot death devil emperor empress fool fortune hanged hermit hierophant judgement justice lovers magician moon priestess star strength sun temperance tower world;
#X obj 614 1848 sel chariot death devil emperor empress fool fortune hanged hermit hierophant judgement justice lovers magician moon priestess star strength sun temperance tower world, f 57;
#X obj 421 392 else/drum.seq 4 16;
#X obj 421 520 else/keyboard 17 80 1 2 0 0 empty empty;
#X obj 621 520 else/keyboard 17 80 1 2 0 0 empty empty;
#X text 423 373 drm;
#X text 422 503 brk;
#X text 622 503 synth;
#X msg -138 1760 0;
#X obj -60 1686 r var_majin;
#X floatatom -60 1704 5 0 0 0 - - - 0;
#X obj 563 1192 s list_full;
#X obj 761 113 r list_full;
#X obj 811 149 r counter;
#X obj 811 167 t b f;
#X obj 761 201 zl rot;
#X listbox 761 219 20 0 0 0 - - - 0;
#X obj 761 245 unpack f f f f f f f f f f f f f f f f;
#X obj 680 53 bng 14 250 50 0 inbang empty empty 0 -7 0 12 #fcfcfc #000000 #000000;
#X obj 681 37 inlet;
#N canvas 0 0 977 875 kick_seq 0;
#X obj 1581 541 outlet;
#X obj 1174 470 tgl 14 0 empty empty empty 0 -7 0 12 #dfdfdf #000000 #000000 0 1;
#X obj 1192 470 tgl 14 0 empty empty empty 0 -7 0 12 #fcfcfc #000000 #000000 0 1;
#X obj 1209 470 tgl 14 0 empty empty empty 0 -7 0 12 #fcfcfc #000000 #000000 0 1;
#X obj 1227 470 tgl 14 0 empty empty empty 0 -7 0 12 #fcfcfc #000000 #000000 0 1;
#X obj 1244 470 tgl 14 0 empty empty empty 0 -7 0 12 #dfdfdf #000000 #000000 0 1;
#X obj 1262 470 tgl 14 0 empty empty empty 0 -7 0 12 #fcfcfc #000000 #000000 0 1;
#X obj 1279 470 tgl 14 0 empty empty empty 0 -7 0 12 #fcfcfc #000000 #000000 0 1;
#X obj 1297 470 tgl 14 0 empty empty empty 0 -7 0 12 #fcfcfc #000000 #000000 0 1;
#X obj 1314 470 tgl 14 0 empty empty empty 0 -7 0 12 #dfdfdf #000000 #000000 0 1;
#X obj 1332 470 tgl 14 0 empty empty empty 0 -7 0 12 #fcfcfc #000000 #000000 0 1;
#X obj 1348 470 tgl 14 0 empty empty empty 0 -7 0 12 #fcfcfc #000000 #000000 0 1;
#X obj 1366 470 tgl 14 0 empty empty empty 0 -7 0 12 #fcfcfc #000000 #000000 0 1;
#X obj 1384 470 tgl 14 0 empty empty empty 0 -7 0 12 #dfdfdf #000000 #000000 0 1;
#X obj 1402 470 tgl 14 0 empty empty empty 0 -7 0 12 #fcfcfc #000000 #000000 0 1;
#X obj 1419 470 tgl 14 0 empty empty empty 0 -7 0 12 #fcfcfc #000000 #000000 0 1;
#X obj 1437 470 tgl 14 0 empty empty empty 0 -7 0 12 #fcfcfc #000000 #000000 0 1;
#X obj 1235 751 noteout;
#X obj 1281 715 notein, f 7;
#X floatatom 1057 722 5 0 0 0 - - - 0;
#X floatatom 1273 625 5 0 0 0 - - - 0;
#X obj 1485 540 counter;
#X floatatom 1368 631 5 0 0 0 - - - 0;
#X floatatom 1368 616 5 0 0 0 - - - 0;
#X obj 1273 605 expr $f1%4;
#X obj 1174 495 pack f f f f f f f f f f f f f f f f;
#X listbox 1174 513 36 0 0 0 - - - 0;
#X obj 1172 613 zl nth;
#X obj 1174 595 t b f;
#X floatatom 1172 631 5 0 0 0 - - - 0;
#X obj 1220 691 expr ($f1+$f2)%127;
#X obj 1172 648 * 50;
#X obj 1236 673 makenote 127 100;
#X obj 1101 762 tgl 14 0 empty empty empty 0 -7 0 12 #fcfcfc #000000 #000000 0 1;
#X obj 843 791 tgl 14 0 empty empty empty 0 -7 0 12 #fcfcfc #000000 #000000 0 1;
#X obj 883 792 tgl 14 0 empty empty empty 0 -7 0 12 #fcfcfc #000000 #000000 0 1;
#X obj 843 831 tgl 14 0 empty empty empty 0 -7 0 12 #fcfcfc #000000 #000000 0 1;
#X obj 883 831 tgl 14 0 empty empty empty 0 -7 0 12 #fcfcfc #000000 #000000 0 1;
#X obj 843 871 tgl 14 0 empty empty empty 0 -7 0 12 #fcfcfc #000000 #000000 0 1;
#X obj 883 871 tgl 14 0 empty empty empty 0 -7 0 12 #fcfcfc #000000 #000000 0 1;
#X obj 1101 744 < 4;
#X obj 843 773 > 15;
#X obj 843 853 > 47;
#X obj 843 813 > 31;
#X obj 1000 789 &;
#X obj 1000 807 tgl 14 0 empty empty empty 0 -7 0 12 #fcfcfc #000000 #000000 0 1;
#X obj 970 819 &;
#X obj 970 837 tgl 14 0 empty empty empty 0 -7 0 12 #fcfcfc #000000 #000000 0 1;
#X obj 880 899 &;
#X obj 880 917 tgl 14 0 empty empty empty 0 -7 0 12 #fcfcfc #000000 #000000 0 1;
#X floatatom 1144 793 5 0 0 0 - - - 0;
#X obj 1144 776 *;
#X floatatom 1098 816 5 0 0 0 - - - 0;
#X obj 1098 799 *;
#X obj 983 695 t f f f f f;
#X obj 1144 760 + 1;
#X obj 1098 780 - 11;
#X obj 883 774 < 20;
#X obj 883 813 < 36;
#X obj 883 853 < 52;
#X floatatom 1148 866 5 0 0 0 - - - 0;
#X obj 1148 849 *;
#X obj 1281 730 stripnote;
#X obj 1148 830 - 23;
#X floatatom 1098 905 5 0 0 0 - - - 0;
#X obj 1098 889 *;
#X obj 1240 859 +;
#X obj 1270 859 +;
#X obj 1240 889 +;
#X obj 955 798 t b f;
#X obj 985 768 t b f;
#X floatatom 1240 907 5 0 0 0 - - - 0;
#X obj 1098 870 - 35;
#X obj 1240 924 s grid1_nbr;
#X obj 872 466 r grid1_nbr;
#X obj 873 457 sel 1 2 3 4 5 6 7 8 9 10 11 12 13 14 15 16;
#X obj 872 481 t b f;
#X obj 1784 470 tgl 14 0 empty empty empty 0 -7 0 12 #dfdfdf #000000 #000000 0 1;
#X obj 1802 470 tgl 14 0 empty empty empty 0 -7 0 12 #fcfcfc #000000 #000000 0 1;
#X obj 1819 470 tgl 14 0 empty empty empty 0 -7 0 12 #fcfcfc #000000 #000000 0 1;
#X obj 1837 470 tgl 14 0 empty empty empty 0 -7 0 12 #fcfcfc #000000 #000000 0 1;
#X obj 1854 470 tgl 14 0 empty empty empty 0 -7 0 12 #dfdfdf #000000 #000000 0 1;
#X obj 1872 470 tgl 14 0 empty empty empty 0 -7 0 12 #fcfcfc #000000 #000000 0 1;
#X obj 1889 470 tgl 14 0 empty empty empty 0 -7 0 12 #fcfcfc #000000 #000000 0 1;
#X obj 1907 470 tgl 14 0 empty empty empty 0 -7 0 12 #fcfcfc #000000 #000000 0 1;
#X obj 1924 470 tgl 14 0 empty empty empty 0 -7 0 12 #dfdfdf #000000 #000000 0 1;
#X obj 1942 470 tgl 14 0 empty empty empty 0 -7 0 12 #fcfcfc #000000 #000000 0 1;
#X obj 1958 470 tgl 14 0 empty empty empty 0 -7 0 12 #fcfcfc #000000 #000000 0 1;
#X obj 1976 470 tgl 14 0 empty empty empty 0 -7 0 12 #fcfcfc #000000 #000000 0 1;
#X obj 1994 470 tgl 14 0 empty empty empty 0 -7 0 12 #dfdfdf #000000 #000000 0 1;
#X obj 2012 470 tgl 14 0 empty empty empty 0 -7 0 12 #fcfcfc #000000 #000000 0 1;
#X obj 2029 470 tgl 14 0 empty empty empty 0 -7 0 12 #fcfcfc #000000 #000000 0 1;
#X obj 2047 470 tgl 14 0 empty empty empty 0 -7 0 12 #fcfcfc #000000 #000000 0 1;
#X obj 1784 495 pack f f f f f f f f f f f f f f f f;
#X obj 1483 457 sel 1 2 3 4 5 6 7 8 9 10 11 12 13 14 15 16;
#X obj 1799 697 notein, f 7;
#X floatatom 1703 625 5 0 0 0 - - - 0;
#X obj 1703 642 +;
#X obj 1703 605 expr $f1%4;
#X obj 1602 613 zl nth;
#X obj 1604 595 t b f;
#X floatatom 1602 631 5 0 0 0 - - - 0;
#X obj 1602 701 expr ($f1+$f2)%127;
#X obj 1602 648 * 50;
#X obj 1703 680 makenote 127 100;
#X obj 1751 715 stripnote;
#X obj 1736 642 + 4;
#X obj 1642 740 noteout;
#X floatatom 1609 778 5 0 0 0 - - - 0;
#X obj 1677 808 tgl 14 0 empty empty empty 0 -7 0 12 #fcfcfc #000000 #000000 0 1;
#X obj 1717 809 tgl 14 0 empty empty empty 0 -7 0 12 #fcfcfc #000000 #000000 0 1;
#X obj 1677 872 tgl 14 0 empty empty empty 0 -7 0 12 #fcfcfc #000000 #000000 0 1;
#X obj 1717 872 tgl 14 0 empty empty empty 0 -7 0 12 #fcfcfc #000000 #000000 0 1;
#X obj 1677 940 tgl 14 0 empty empty empty 0 -7 0 12 #fcfcfc #000000 #000000 0 1;
#X obj 1717 940 tgl 14 0 empty empty empty 0 -7 0 12 #fcfcfc #000000 #000000 0 1;
#X obj 1800 807 &;
#X obj 1800 825 tgl 14 0 empty empty empty 0 -7 0 12 #fcfcfc #000000 #000000 0 1;
#X obj 1800 867 &;
#X obj 1800 885 tgl 14 0 empty empty empty 0 -7 0 12 #fcfcfc #000000 #000000 0 1;
#X obj 1800 929 &;
#X obj 1800 947 tgl 14 0 empty empty empty 0 -7 0 12 #fcfcfc #000000 #000000 0 1;
#X floatatom 1940 856 5 0 0 0 - - - 0;
#X obj 1940 839 *;
#X obj 1903 744 t f f f f f;
#X floatatom 1921 916 5 0 0 0 - - - 0;
#X obj 1921 899 *;
#X floatatom 1902 975 5 0 0 0 - - - 0;
#X obj 1902 959 *;
#X obj 1785 846 t b f;
#X obj 1785 786 t b f;
#X obj 1687 1010 tgl 14 0 empty empty empty 0 -7 0 12 #fcfcfc #000000 #000000 0 1;
#X obj 1727 1011 tgl 14 0 empty empty empty 0 -7 0 12 #fcfcfc #000000 #000000 0 1;
#X obj 1810 1009 &;
#X obj 1810 1027 tgl 14 0 empty empty empty 0 -7 0 12 #fcfcfc #000000 #000000 0 1;
#X floatatom 1957 1058 5 0 0 0 - - - 0;
#X obj 1957 1041 *;
#X obj 1795 988 t b f;
#X obj 900 872 t b f;
#X obj 1703 585 expr $f1%17;
#X obj 1273 585 expr $f1%17;
#X obj 1273 643 expr $f1+$f2;
#X obj 1677 790 > 3;
#X obj 1717 790 < 8;
#X obj 1677 854 > 19;
#X obj 1717 854 < 24;
#X obj 1940 820 - 3;
#X obj 1921 880 - 15;
#X obj 1677 922 > 35;
#X obj 1717 922 < 40;
#X obj 1902 940 - 27;
#X obj 1799 909 t b f;
#X obj 1687 992 > 51;
#X obj 1727 993 < 56;
#X obj 1957 1022 - 39;
#X obj 2020 869 +;
#X obj 2050 869 +;
#X obj 2020 899 +;
#X floatatom 2020 917 5 0 0 0 - - - 0;
#X obj 2020 934 s grid2_nbr;
#X obj 1483 431 t b f;
#X obj 1483 416 r grid2_nbr;
#X obj 1368 598 expr int(($f1+1)/4)*(16);
#X obj 1478 656 print;
#X obj 1798 598 expr int(($f1+1)/4)*(16);
#X obj 1819 643 sel 68;
#X msg 1819 661 4;
#X obj 1429 656 sel 64;
#X msg 1429 674 0;
#X obj 1581 525 pack;
#X obj 1480 517 r inbang;
#X obj 1665 598 + 1;
#X obj 1235 598 + 1;
#X obj 1485 558 % 16;
#X obj 1485 576 + 1;
#X obj 1581 508 zl nth;
#X obj 1637 508 zl nth;
#X obj 1588 484 t b f;
#X connect 1 0 25 0;
#X connect 2 0 25 1;
#X connect 3 0 25 2;
#X connect 4 0 25 3;
#X connect 5 0 25 4;
#X connect 6 0 25 5;
#X connect 7 0 25 6;
#X connect 8 0 25 7;
#X connect 9 0 25 8;
#X connect 10 0 25 9;
#X connect 11 0 25 10;
#X connect 12 0 25 11;
#X connect 13 0 25 12;
#X connect 14 0 25 13;
#X connect 15 0 25 14;
#X connect 16 0 25 15;
#X connect 18 0 62 0;
#X connect 18 1 62 1;
#X connect 18 2 17 2;
#X connect 19 0 40 0;
#X connect 19 0 41 0;
#X connect 19 0 42 0;
#X connect 19 0 43 0;
#X connect 19 0 57 0;
#X connect 19 0 58 0;
#X connect 19 0 59 0;
#X connect 20 0 140 0;
#X connect 21 0 138 0;
#X connect 21 0 139 0;
#X connect 21 0 172 0;
#X connect 22 0 140 1;
#X connect 23 0 22 0;
#X connect 24 0 20 0;
#X connect 25 0 26 0;
#X connect 25 0 174 0;
#X connect 26 0 27 0;
#X connect 27 0 29 0;
#X connect 28 0 27 0;
#X connect 28 1 27 1;
#X connect 29 0 31 0;
#X connect 30 0 17 1;
#X connect 31 0 30 0;
#X connect 32 0 17 0;
#X connect 32 1 30 1;
#X connect 33 0 51 1;
#X connect 37 0 69 0;
#X connect 40 0 33 0;
#X connect 41 0 34 0;
#X connect 41 0 44 0;
#X connect 42 0 38 0;
#X connect 42 0 48 0;
#X connect 43 0 36 0;
#X connect 43 0 46 0;
#X connect 44 0 45 0;
#X connect 45 0 53 1;
#X connect 46 0 47 0;
#X connect 47 0 61 1;
#X connect 48 0 49 0;
#X connect 49 0 65 1;
#X connect 50 0 67 1;
#X connect 51 0 50 0;
#X connect 52 0 67 0;
#X connect 53 0 52 0;
#X connect 54 0 72 0;
#X connect 54 1 63 0;
#X connect 54 2 56 0;
#X connect 54 3 55 0;
#X connect 54 4 19 0;
#X connect 55 0 51 0;
#X connect 56 0 53 0;
#X connect 57 0 35 0;
#X connect 57 0 70 0;
#X connect 58 0 37 0;
#X connect 59 0 39 0;
#X connect 59 0 137 0;
#X connect 60 0 66 1;
#X connect 61 0 60 0;
#X connect 62 0 54 0;
#X connect 63 0 61 0;
#X connect 64 0 66 0;
#X connect 65 0 64 0;
#X connect 66 0 68 0;
#X connect 67 0 68 1;
#X connect 68 0 71 0;
#X connect 69 0 46 0;
#X connect 69 1 46 1;
#X connect 70 0 44 0;
#X connect 70 1 44 1;
#X connect 71 0 73 0;
#X connect 72 0 65 0;
#X connect 74 0 76 0;
#X connect 75 0 1 0;
#X connect 75 1 2 0;
#X connect 75 2 3 0;
#X connect 75 3 4 0;
#X connect 75 4 5 0;
#X connect 75 5 6 0;
#X connect 75 6 7 0;
#X connect 75 7 8 0;
#X connect 75 8 9 0;
#X connect 75 9 10 0;
#X connect 75 10 11 0;
#X connect 75 11 12 0;
#X connect 75 12 13 0;
#X connect 75 13 14 0;
#X connect 75 14 15 0;
#X connect 75 15 16 0;
#X connect 76 0 25 0;
#X connect 76 1 75 0;
#X connect 77 0 93 0;
#X connect 78 0 93 1;
#X connect 79 0 93 2;
#X connect 80 0 93 3;
#X connect 81 0 93 4;
#X connect 82 0 93 5;
#X connect 83 0 93 6;
#X connect 84 0 93 7;
#X connect 85 0 93 8;
#X connect 86 0 93 9;
#X connect 87 0 93 10;
#X connect 88 0 93 11;
#X connect 89 0 93 12;
#X connect 90 0 93 13;
#X connect 91 0 93 14;
#X connect 92 0 93 15;
#X connect 93 0 99 0;
#X connect 93 0 175 0;
#X connect 94 0 77 0;
#X connect 94 1 78 0;
#X connect 94 2 79 0;
#X connect 94 3 80 0;
#X connect 94 4 81 0;
#X connect 94 5 82 0;
#X connect 94 6 83 0;
#X connect 94 7 84 0;
#X connect 94 8 85 0;
#X connect 94 9 86 0;
#X connect 94 10 87 0;
#X connect 94 11 88 0;
#X connect 94 12 89 0;
#X connect 94 13 90 0;
#X connect 94 14 91 0;
#X connect 94 15 92 0;
#X connect 95 0 105 0;
#X connect 95 1 105 1;
#X connect 95 2 107 2;
#X connect 96 0 97 0;
#X connect 97 0 106 0;
#X connect 98 0 96 0;
#X connect 99 0 101 0;
#X connect 100 0 99 0;
#X connect 100 1 99 1;
#X connect 101 0 103 0;
#X connect 102 0 107 1;
#X connect 103 0 102 0;
#X connect 104 0 107 0;
#X connect 104 1 102 1;
#X connect 105 0 123 0;
#X connect 106 0 164 0;
#X connect 108 0 141 0;
#X connect 108 0 142 0;
#X connect 108 0 143 0;
#X connect 108 0 144 0;
#X connect 108 0 147 0;
#X connect 108 0 148 0;
#X connect 108 0 151 0;
#X connect 108 0 152 0;
#X connect 112 0 128 0;
#X connect 114 0 150 0;
#X connect 115 0 116 0;
#X connect 116 0 122 1;
#X connect 117 0 118 0;
#X connect 118 0 125 1;
#X connect 119 0 120 0;
#X connect 120 0 127 1;
#X connect 121 0 155 0;
#X connect 122 0 121 0;
#X connect 123 0 149 0;
#X connect 123 1 146 0;
#X connect 123 2 145 0;
#X connect 123 3 153 0;
#X connect 123 4 108 0;
#X connect 124 0 154 1;
#X connect 125 0 124 0;
#X connect 126 0 154 0;
#X connect 127 0 126 0;
#X connect 128 0 117 0;
#X connect 128 1 117 1;
#X connect 129 0 115 0;
#X connect 129 1 115 1;
#X connect 132 0 133 0;
#X connect 133 0 135 1;
#X connect 134 0 155 1;
#X connect 135 0 134 0;
#X connect 136 0 132 0;
#X connect 136 1 132 1;
#X connect 137 0 48 0;
#X connect 137 1 48 1;
#X connect 138 0 98 0;
#X connect 138 0 163 0;
#X connect 138 0 170 0;
#X connect 139 0 24 0;
#X connect 139 0 161 0;
#X connect 139 0 171 0;
#X connect 140 0 166 0;
#X connect 141 0 109 0;
#X connect 141 0 115 0;
#X connect 142 0 110 0;
#X connect 142 0 129 0;
#X connect 143 0 111 0;
#X connect 143 0 117 0;
#X connect 144 0 112 0;
#X connect 145 0 122 0;
#X connect 146 0 125 0;
#X connect 147 0 113 0;
#X connect 147 0 119 0;
#X connect 148 0 114 0;
#X connect 149 0 127 0;
#X connect 150 0 119 0;
#X connect 150 1 119 1;
#X connect 151 0 130 0;
#X connect 151 0 132 0;
#X connect 152 0 131 0;
#X connect 152 0 136 0;
#X connect 153 0 135 0;
#X connect 154 0 156 0;
#X connect 155 0 156 1;
#X connect 156 0 157 0;
#X connect 157 0 158 0;
#X connect 159 0 93 0;
#X connect 159 1 94 0;
#X connect 160 0 159 0;
#X connect 161 0 23 0;
#X connect 163 0 97 1;
#X connect 164 0 165 0;
#X connect 164 1 104 0;
#X connect 165 0 104 0;
#X connect 166 0 167 0;
#X connect 166 1 32 0;
#X connect 167 0 32 0;
#X connect 168 0 0 0;
#X connect 169 0 21 0;
#X connect 170 0 100 0;
#X connect 171 0 28 0;
#X connect 172 0 173 0;
#X connect 173 0 176 0;
#X connect 174 0 168 0;
#X connect 175 0 168 1;
#X connect 176 0 175 0;
#X connect 176 0 174 0;
#X connect 176 1 174 1;
#X connect 176 1 175 1;
#X coords 0 0 0.5 0.5 0 0 0;
#X restore 781 314 pd kick_seq;
#X obj 781 338 outlet;
#X obj 1548 266 tgl 14 0 empty empty empty 0 -7 0 12 #fcfcfc #000000 #000000 0 1;
#N canvas 782 39 1072 939 onelineseq 0;
#X obj 395 256 tgl 14 0 empty empty empty 0 -7 0 12 #bbbbbb #000000 #000000 0 1;
#X obj 411 256 tgl 14 0 empty empty empty 0 -7 0 12 #fcfcfc #000000 #000000 0 1;
#X obj 427 256 tgl 14 0 empty empty empty 0 -7 0 12 #fcfcfc #000000 #000000 0 1;
#X obj 443 256 tgl 14 0 empty empty empty 0 -7 0 12 #fcfcfc #000000 #000000 0 1;
#X obj 460 256 tgl 14 0 empty empty empty 0 -7 0 12 #bbbbbb #000000 #000000 0 1;
#X obj 476 256 tgl 14 0 empty empty empty 0 -7 0 12 #fcfcfc #000000 #000000 0 1;
#X obj 492 256 tgl 14 0 empty empty empty 0 -7 0 12 #fcfcfc #000000 #000000 0 1;
#X obj 187 270 pack f f f f f f f f;
#X obj 187 288 zl nth;
#X obj 59 221 r inbang;
#X obj 59 239 counter;
#X floatatom 114 287 5 0 0 0 - - - 0;
#X obj 59 275 t b f;
#X floatatom 187 306 5 0 0 0 - - - 0;
#X obj 388 223 sel 1 2 3 4 5 6 7 8;
#X floatatom 284 71 5 0 0 0 - - - 0;
#X obj 161 101 tgl 14 0 empty empty empty 0 -7 0 12 #fcfcfc #000000 #000000 0 1;
#X obj 201 101 tgl 14 0 empty empty empty 0 -7 0 12 #fcfcfc #000000 #000000 0 1;
#X obj 161 83 > 63;
#X obj 201 83 < 72;
#X obj 161 133 &;
#X obj 201 120 t b f;
#X obj 161 150 tgl 14 0 empty empty empty 0 -7 0 12 #fcfcfc #000000 #000000 0 1;
#X obj 317 164 *;
#X floatatom 317 180 5 0 0 0 - - - 0;
#X obj 335 124 - 63;
#X obj 187 323 * 50;
#X obj 187 341 expr ($f1+$f2)%127;
#X obj 340 299 + 63;
#X obj 340 316 makenote 127 100;
#X obj 284 88 t b f;
#X obj 317 195 t b f;
#X msg 359 75 63;
#X obj 359 93 + 9;
#X obj 177 30 expr $f1*($f2/127);
#X obj 59 257 expr ($f1%8)+1;
#X obj 512 256 tgl 14 0 empty empty empty 0 -7 0 12 #fcfcfc #000000 #000000 0 1;
#X obj 109 390 outlet;
#X obj 349 17 inlet;
#X msg 365 57 set \$1;
#X obj 349 35 t b f;
#X obj 284 3 notein 17;
#X obj 200 374 noteout 17;
#X connect 0 0 7 0;
#X connect 1 0 7 1;
#X connect 2 0 7 2;
#X connect 3 0 7 3;
#X connect 4 0 7 4;
#X connect 5 0 7 5;
#X connect 6 0 7 6;
#X connect 7 0 8 0;
#X connect 7 0 37 0;
#X connect 8 0 13 0;
#X connect 9 0 10 0;
#X connect 10 0 35 0;
#X connect 11 0 28 0;
#X connect 12 0 8 0;
#X connect 12 1 8 1;
#X connect 13 0 26 0;
#X connect 14 0 0 0;
#X connect 14 1 1 0;
#X connect 14 2 2 0;
#X connect 14 3 3 0;
#X connect 14 4 4 0;
#X connect 14 5 5 0;
#X connect 14 6 6 0;
#X connect 14 7 36 0;
#X connect 15 0 18 0;
#X connect 15 0 19 0;
#X connect 15 0 30 0;
#X connect 16 0 20 0;
#X connect 17 0 21 0;
#X connect 18 0 16 0;
#X connect 19 0 17 0;
#X connect 20 0 22 0;
#X connect 21 0 20 0;
#X connect 21 1 20 1;
#X connect 22 0 23 0;
#X connect 23 0 24 0;
#X connect 24 0 31 0;
#X connect 25 0 23 1;
#X connect 26 0 27 0;
#X connect 27 0 42 1;
#X connect 28 0 29 0;
#X connect 29 0 42 0;
#X connect 29 1 27 1;
#X connect 30 0 25 0;
#X connect 30 0 23 0;
#X connect 30 1 25 0;
#X connect 31 0 7 0;
#X connect 31 0 14 0;
#X connect 31 1 14 0;
#X connect 32 0 25 1;
#X connect 32 0 18 1;
#X connect 32 0 33 0;
#X connect 32 0 28 1;
#X connect 33 0 19 1;
#X connect 34 0 15 0;
#X connect 35 0 11 0;
#X connect 35 0 12 0;
#X connect 36 0 7 7;
#X connect 38 0 40 0;
#X connect 39 0 32 0;
#X connect 40 0 32 0;
#X connect 40 1 39 0;
#X connect 41 0 34 0;
#X connect 41 1 34 1;
#X coords 0 0 0.5 0.5 0 0 0;
#X restore 1166 282 pd onelineseq;
#X listbox 1166 300 20 0 0 0 - - - 0;
#X msg 1166 265 63;
#X obj 1166 242 bng 14 250 50 0 empty empty empty 0 -7 0 12 #fcfcfc #000000 #000000;
#N canvas 782 39 1072 939 onelineseq 0;
#X obj 395 256 tgl 14 0 empty empty empty 0 -7 0 12 #bbbbbb #000000 #000000 0 1;
#X obj 411 256 tgl 14 0 empty empty empty 0 -7 0 12 #fcfcfc #000000 #000000 0 1;
#X obj 427 256 tgl 14 0 empty empty empty 0 -7 0 12 #fcfcfc #000000 #000000 0 1;
#X obj 443 256 tgl 14 0 empty empty empty 0 -7 0 12 #fcfcfc #000000 #000000 0 1;
#X obj 460 256 tgl 14 0 empty empty empty 0 -7 0 12 #bbbbbb #000000 #000000 0 1;
#X obj 476 256 tgl 14 0 empty empty empty 0 -7 0 12 #fcfcfc #000000 #000000 0 1;
#X obj 492 256 tgl 14 0 empty empty empty 0 -7 0 12 #fcfcfc #000000 #000000 0 1;
#X obj 187 270 pack f f f f f f f f;
#X obj 187 288 zl nth;
#X obj 59 221 r inbang;
#X obj 59 239 counter;
#X floatatom 114 287 5 0 0 0 - - - 0;
#X obj 59 275 t b f;
#X floatatom 187 306 5 0 0 0 - - - 0;
#X obj 388 223 sel 1 2 3 4 5 6 7 8;
#X floatatom 284 71 5 0 0 0 - - - 0;
#X obj 161 101 tgl 14 0 empty empty empty 0 -7 0 12 #fcfcfc #000000 #000000 0 1;
#X obj 201 101 tgl 14 0 empty empty empty 0 -7 0 12 #fcfcfc #000000 #000000 0 1;
#X obj 161 83 > 63;
#X obj 201 83 < 72;
#X obj 161 133 &;
#X obj 201 120 t b f;
#X obj 161 150 tgl 14 0 empty empty empty 0 -7 0 12 #fcfcfc #000000 #000000 0 1;
#X obj 317 164 *;
#X floatatom 317 180 5 0 0 0 - - - 0;
#X obj 335 124 - 63;
#X obj 187 323 * 50;
#X obj 187 341 expr ($f1+$f2)%127;
#X obj 340 299 + 63;
#X obj 340 316 makenote 127 100;
#X obj 284 88 t b f;
#X obj 317 195 t b f;
#X msg 359 75 95;
#X obj 359 93 + 9;
#X obj 177 30 expr $f1*($f2/127);
#X obj 59 257 expr ($f1%8)+1;
#X obj 512 256 tgl 14 0 empty empty empty 0 -7 0 12 #fcfcfc #000000 #000000 0 1;
#X obj 109 390 outlet;
#X obj 349 17 inlet;
#X msg 365 57 set \$1;
#X obj 349 35 t b f;
#X obj 284 3 notein 17;
#X obj 200 374 noteout 17;
#X connect 0 0 7 0;
#X connect 1 0 7 1;
#X connect 2 0 7 2;
#X connect 3 0 7 3;
#X connect 4 0 7 4;
#X connect 5 0 7 5;
#X connect 6 0 7 6;
#X connect 7 0 8 0;
#X connect 7 0 37 0;
#X connect 8 0 13 0;
#X connect 9 0 10 0;
#X connect 10 0 35 0;
#X connect 11 0 28 0;
#X connect 12 0 8 0;
#X connect 12 1 8 1;
#X connect 13 0 26 0;
#X connect 14 0 0 0;
#X connect 14 1 1 0;
#X connect 14 2 2 0;
#X connect 14 3 3 0;
#X connect 14 4 4 0;
#X connect 14 5 5 0;
#X connect 14 6 6 0;
#X connect 14 7 36 0;
#X connect 15 0 18 0;
#X connect 15 0 19 0;
#X connect 15 0 30 0;
#X connect 16 0 20 0;
#X connect 17 0 21 0;
#X connect 18 0 16 0;
#X connect 19 0 17 0;
#X connect 20 0 22 0;
#X connect 21 0 20 0;
#X connect 21 1 20 1;
#X connect 22 0 23 0;
#X connect 23 0 24 0;
#X connect 24 0 31 0;
#X connect 25 0 23 1;
#X connect 26 0 27 0;
#X connect 27 0 42 1;
#X connect 28 0 29 0;
#X connect 29 0 42 0;
#X connect 29 1 27 1;
#X connect 30 0 25 0;
#X connect 30 0 23 0;
#X connect 30 1 25 0;
#X connect 31 0 7 0;
#X connect 31 0 14 0;
#X connect 31 1 14 0;
#X connect 32 0 25 1;
#X connect 32 0 18 1;
#X connect 32 0 33 0;
#X connect 32 0 28 1;
#X connect 33 0 19 1;
#X connect 34 0 15 0;
#X connect 35 0 11 0;
#X connect 35 0 12 0;
#X connect 36 0 7 7;
#X connect 38 0 40 0;
#X connect 39 0 32 0;
#X connect 40 0 32 0;
#X connect 40 1 39 0;
#X connect 41 0 34 0;
#X connect 41 1 34 1;
#X restore 1166 362 pd onelineseq;
#X listbox 1166 380 20 0 0 0 - - - 0;
#X obj 1166 322 bng 14 250 50 0 empty empty empty 0 -7 0 12 #fcfcfc #000000 #000000;
#N canvas 782 39 1072 939 onelineseq 0;
#X obj 395 256 tgl 14 0 empty empty empty 0 -7 0 12 #bbbbbb #000000 #000000 0 1;
#X obj 411 256 tgl 14 0 empty empty empty 0 -7 0 12 #fcfcfc #000000 #000000 0 1;
#X obj 427 256 tgl 14 0 empty empty empty 0 -7 0 12 #fcfcfc #000000 #000000 0 1;
#X obj 443 256 tgl 14 0 empty empty empty 0 -7 0 12 #fcfcfc #000000 #000000 0 1;
#X obj 460 256 tgl 14 0 empty empty empty 0 -7 0 12 #bbbbbb #000000 #000000 0 1;
#X obj 476 256 tgl 14 0 empty empty empty 0 -7 0 12 #fcfcfc #000000 #000000 0 1;
#X obj 492 256 tgl 14 0 empty empty empty 0 -7 0 12 #fcfcfc #000000 #000000 0 1;
#X obj 187 270 pack f f f f f f f f;
#X obj 187 288 zl nth;
#X obj 59 221 r inbang;
#X obj 59 239 counter;
#X floatatom 114 287 5 0 0 0 - - - 0;
#X obj 59 275 t b f;
#X floatatom 187 306 5 0 0 0 - - - 0;
#X obj 388 223 sel 1 2 3 4 5 6 7 8;
#X floatatom 284 71 5 0 0 0 - - - 0;
#X obj 161 101 tgl 14 0 empty empty empty 0 -7 0 12 #fcfcfc #000000 #000000 0 1;
#X obj 201 101 tgl 14 0 empty empty empty 0 -7 0 12 #fcfcfc #000000 #000000 0 1;
#X obj 161 83 > 63;
#X obj 201 83 < 72;
#X obj 161 133 &;
#X obj 201 120 t b f;
#X obj 161 150 tgl 14 0 empty empty empty 0 -7 0 12 #fcfcfc #000000 #000000 0 1;
#X obj 317 164 *;
#X floatatom 317 180 5 0 0 0 - - - 0;
#X obj 335 124 - 63;
#X obj 187 323 * 50;
#X obj 187 341 expr ($f1+$f2)%127;
#X obj 340 299 + 63;
#X obj 340 316 makenote 127 100;
#X obj 284 88 t b f;
#X obj 317 195 t b f;
#X msg 359 75 79;
#X obj 359 93 + 9;
#X obj 177 30 expr $f1*($f2/127);
#X obj 59 257 expr ($f1%8)+1;
#X obj 512 256 tgl 14 0 empty empty empty 0 -7 0 12 #fcfcfc #000000 #000000 0 1;
#X obj 109 390 outlet;
#X obj 349 17 inlet;
#X msg 365 57 set \$1;
#X obj 349 35 t b f;
#X obj 284 3 notein 17;
#X obj 200 374 noteout 17;
#X connect 0 0 7 0;
#X connect 1 0 7 1;
#X connect 2 0 7 2;
#X connect 3 0 7 3;
#X connect 4 0 7 4;
#X connect 5 0 7 5;
#X connect 6 0 7 6;
#X connect 7 0 8 0;
#X connect 7 0 37 0;
#X connect 8 0 13 0;
#X connect 9 0 10 0;
#X connect 10 0 35 0;
#X connect 11 0 28 0;
#X connect 12 0 8 0;
#X connect 12 1 8 1;
#X connect 13 0 26 0;
#X connect 14 0 0 0;
#X connect 14 1 1 0;
#X connect 14 2 2 0;
#X connect 14 3 3 0;
#X connect 14 4 4 0;
#X connect 14 5 5 0;
#X connect 14 6 6 0;
#X connect 14 7 36 0;
#X connect 15 0 18 0;
#X connect 15 0 19 0;
#X connect 15 0 30 0;
#X connect 16 0 20 0;
#X connect 17 0 21 0;
#X connect 18 0 16 0;
#X connect 19 0 17 0;
#X connect 20 0 22 0;
#X connect 21 0 20 0;
#X connect 21 1 20 1;
#X connect 22 0 23 0;
#X connect 23 0 24 0;
#X connect 24 0 31 0;
#X connect 25 0 23 1;
#X connect 26 0 27 0;
#X connect 27 0 42 1;
#X connect 28 0 29 0;
#X connect 29 0 42 0;
#X connect 29 1 27 1;
#X connect 30 0 25 0;
#X connect 30 0 23 0;
#X connect 30 1 25 0;
#X connect 31 0 7 0;
#X connect 31 0 14 0;
#X connect 31 1 14 0;
#X connect 32 0 25 1;
#X connect 32 0 18 1;
#X connect 32 0 33 0;
#X connect 32 0 28 1;
#X connect 33 0 19 1;
#X connect 34 0 15 0;
#X connect 35 0 11 0;
#X connect 35 0 12 0;
#X connect 36 0 7 7;
#X connect 38 0 40 0;
#X connect 39 0 32 0;
#X connect 40 0 32 0;
#X connect 40 1 39 0;
#X connect 41 0 34 0;
#X connect 41 1 34 1;
#X restore 1326 282 pd onelineseq;
#X listbox 1326 300 20 0 0 0 - - - 0;
#X obj 1326 242 bng 14 250 50 0 empty empty empty 0 -7 0 12 #fcfcfc #000000 #000000;
#N canvas 782 39 1072 939 onelineseq 0;
#X obj 395 256 tgl 14 0 empty empty empty 0 -7 0 12 #bbbbbb #000000 #000000 0 1;
#X obj 411 256 tgl 14 0 empty empty empty 0 -7 0 12 #fcfcfc #000000 #000000 0 1;
#X obj 427 256 tgl 14 0 empty empty empty 0 -7 0 12 #fcfcfc #000000 #000000 0 1;
#X obj 443 256 tgl 14 0 empty empty empty 0 -7 0 12 #fcfcfc #000000 #000000 0 1;
#X obj 460 256 tgl 14 0 empty empty empty 0 -7 0 12 #bbbbbb #000000 #000000 0 1;
#X obj 476 256 tgl 14 0 empty empty empty 0 -7 0 12 #fcfcfc #000000 #000000 0 1;
#X obj 492 256 tgl 14 0 empty empty empty 0 -7 0 12 #fcfcfc #000000 #000000 0 1;
#X obj 187 270 pack f f f f f f f f;
#X obj 187 288 zl nth;
#X obj 59 221 r inbang;
#X obj 59 239 counter;
#X floatatom 114 287 5 0 0 0 - - - 0;
#X obj 59 275 t b f;
#X floatatom 187 306 5 0 0 0 - - - 0;
#X obj 388 223 sel 1 2 3 4 5 6 7 8;
#X floatatom 284 71 5 0 0 0 - - - 0;
#X obj 161 101 tgl 14 0 empty empty empty 0 -7 0 12 #fcfcfc #000000 #000000 0 1;
#X obj 201 101 tgl 14 0 empty empty empty 0 -7 0 12 #fcfcfc #000000 #000000 0 1;
#X obj 161 83 > 63;
#X obj 201 83 < 72;
#X obj 161 133 &;
#X obj 201 120 t b f;
#X obj 161 150 tgl 14 0 empty empty empty 0 -7 0 12 #fcfcfc #000000 #000000 0 1;
#X obj 317 164 *;
#X floatatom 317 180 5 0 0 0 - - - 0;
#X obj 335 124 - 63;
#X obj 187 323 * 50;
#X obj 187 341 expr ($f1+$f2)%127;
#X obj 340 299 + 63;
#X obj 340 316 makenote 127 100;
#X obj 284 88 t b f;
#X obj 317 195 t b f;
#X msg 359 75 111;
#X obj 359 93 + 9;
#X obj 177 30 expr $f1*($f2/127);
#X obj 59 257 expr ($f1%8)+1;
#X obj 512 256 tgl 14 0 empty empty empty 0 -7 0 12 #fcfcfc #000000 #000000 0 1;
#X obj 109 390 outlet;
#X obj 349 17 inlet;
#X msg 365 57 set \$1;
#X obj 349 35 t b f;
#X obj 284 3 notein 17;
#X obj 200 374 noteout 17;
#X connect 0 0 7 0;
#X connect 1 0 7 1;
#X connect 2 0 7 2;
#X connect 3 0 7 3;
#X connect 4 0 7 4;
#X connect 5 0 7 5;
#X connect 6 0 7 6;
#X connect 7 0 8 0;
#X connect 7 0 37 0;
#X connect 8 0 13 0;
#X connect 9 0 10 0;
#X connect 10 0 35 0;
#X connect 11 0 28 0;
#X connect 12 0 8 0;
#X connect 12 1 8 1;
#X connect 13 0 26 0;
#X connect 14 0 0 0;
#X connect 14 1 1 0;
#X connect 14 2 2 0;
#X connect 14 3 3 0;
#X connect 14 4 4 0;
#X connect 14 5 5 0;
#X connect 14 6 6 0;
#X connect 14 7 36 0;
#X connect 15 0 18 0;
#X connect 15 0 19 0;
#X connect 15 0 30 0;
#X connect 16 0 20 0;
#X connect 17 0 21 0;
#X connect 18 0 16 0;
#X connect 19 0 17 0;
#X connect 20 0 22 0;
#X connect 21 0 20 0;
#X connect 21 1 20 1;
#X connect 22 0 23 0;
#X connect 23 0 24 0;
#X connect 24 0 31 0;
#X connect 25 0 23 1;
#X connect 26 0 27 0;
#X connect 27 0 42 1;
#X connect 28 0 29 0;
#X connect 29 0 42 0;
#X connect 29 1 27 1;
#X connect 30 0 25 0;
#X connect 30 0 23 0;
#X connect 30 1 25 0;
#X connect 31 0 7 0;
#X connect 31 0 14 0;
#X connect 31 1 14 0;
#X connect 32 0 25 1;
#X connect 32 0 18 1;
#X connect 32 0 33 0;
#X connect 32 0 28 1;
#X connect 33 0 19 1;
#X connect 34 0 15 0;
#X connect 35 0 11 0;
#X connect 35 0 12 0;
#X connect 36 0 7 7;
#X connect 38 0 40 0;
#X connect 39 0 32 0;
#X connect 40 0 32 0;
#X connect 40 1 39 0;
#X connect 41 0 34 0;
#X connect 41 1 34 1;
#X coords 0 0 0.5 0.5 0 0 0;
#X restore 1326 362 pd onelineseq;
#X listbox 1326 380 20 0 0 0 - - - 0;
#X obj 1326 322 bng 14 250 50 0 empty empty empty 0 -7 0 12 #fcfcfc #000000 #000000;
#X obj 1207 154 notein;
#X floatatom 1207 172 5 0 0 0 - - - 0;
#X msg 1326 265 79;
#X msg 1166 345 95;
#X msg 1326 345 111;
#X obj 898 425 pack f f f f;
#X obj 898 443 outlet;
#X obj 904 307 counter;
#X obj 904 325 expr ($f1%8)+1;
#X obj 904 289 r inbang;
#X floatatom 964 343 5 0 0 0 - - - 0;
#X obj 982 368 zl nth;
#X obj 904 343 t b b f;
#X obj 954 385 zl nth;
#X obj 930 399 zl nth;
#X obj 878 397 zl nth;
#X obj 1302 187 loadbang;
#X connect 3 0 8 0;
#X connect 4 0 3 3;
#X connect 4 0 13 0;
#X connect 5 0 3 0;
#X connect 8 0 9 0;
#X connect 9 0 47 0;
#X connect 9 0 118 0;
#X connect 13 0 19 0;
#X connect 13 0 14 0;
#X connect 13 0 20 0;
#X connect 14 0 15 0;
#X connect 15 0 16 0;
#X connect 15 0 22 0;
#X connect 16 2 17 0;
#X connect 17 0 18 0;
#X connect 18 0 30 0;
#X connect 18 1 30 0;
#X connect 19 0 30 0;
#X connect 20 0 21 0;
#X connect 21 0 23 0;
#X connect 22 0 30 1;
#X connect 23 0 29 0;
#X connect 23 0 25 0;
#X connect 24 0 28 0;
#X connect 25 0 32 0;
#X connect 26 0 46 0;
#X connect 26 0 82 0;
#X connect 26 0 190 0;
#X connect 27 0 31 0;
#X connect 27 1 26 1;
#X connect 27 1 31 0;
#X connect 29 0 24 0;
#X connect 30 0 23 1;
#X connect 31 0 39 0;
#X connect 31 0 43 0;
#X connect 32 0 33 0;
#X connect 33 0 34 0;
#X connect 34 0 35 0;
#X connect 35 0 36 0;
#X connect 36 0 37 0;
#X connect 37 0 38 0;
#X connect 38 0 27 0;
#X connect 39 0 40 0;
#X connect 40 0 26 0;
#X connect 40 1 41 0;
#X connect 42 0 13 0;
#X connect 46 0 50 0;
#X connect 47 0 46 0;
#X connect 47 1 46 1;
#X connect 49 0 58 0;
#X connect 49 0 66 0;
#X connect 49 0 52 0;
#X connect 49 0 142 0;
#X connect 50 0 51 0;
#X connect 51 0 49 0;
#X connect 52 0 143 0;
#X connect 54 0 65 0;
#X connect 57 0 54 0;
#X connect 58 0 57 1;
#X connect 59 0 57 0;
#X connect 60 0 61 0;
#X connect 61 0 62 0;
#X connect 61 0 59 0;
#X connect 61 0 87 0;
#X connect 62 0 49 0;
#X connect 63 0 50 0;
#X connect 65 0 67 0;
#X connect 66 0 59 0;
#X connect 67 0 64 0;
#X connect 72 0 73 0;
#X connect 73 0 75 0;
#X connect 73 0 80 0;
#X connect 73 2 79 0;
#X connect 73 3 74 0;
#X connect 74 0 169 0;
#X connect 74 0 166 0;
#X connect 75 0 76 0;
#X connect 75 1 77 0;
#X connect 76 0 133 0;
#X connect 77 0 78 0;
#X connect 78 0 148 0;
#X connect 78 1 137 0;
#X connect 78 1 138 0;
#X connect 79 0 132 0;
#X connect 79 0 140 0;
#X connect 82 0 85 0;
#X connect 83 0 82 0;
#X connect 83 1 82 1;
#X connect 84 0 91 0;
#X connect 85 0 86 0;
#X connect 86 0 84 0;
#X connect 87 0 84 0;
#X connect 88 0 98 0;
#X connect 89 2 83 0;
#X connect 90 0 89 0;
#X connect 91 0 92 0;
#X connect 92 0 93 0;
#X connect 93 0 94 0;
#X connect 94 0 96 0;
#X connect 94 1 97 0;
#X connect 95 0 88 0;
#X connect 96 0 95 0;
#X connect 97 0 95 0;
#X connect 98 0 101 0;
#X connect 99 2 102 0;
#X connect 100 0 99 0;
#X connect 100 0 103 0;
#X connect 100 0 117 0;
#X connect 101 0 104 0;
#X connect 102 0 101 0;
#X connect 102 1 101 1;
#X connect 103 0 187 0;
#X connect 104 0 105 0;
#X connect 104 1 106 0;
#X connect 105 0 110 0;
#X connect 106 0 107 0;
#X connect 106 0 112 0;
#X connect 106 0 187 0;
#X connect 107 0 187 0;
#X connect 109 0 110 0;
#X connect 110 0 111 0;
#X connect 111 0 108 0;
#X connect 112 0 108 0;
#X connect 113 0 114 0;
#X connect 114 0 115 0;
#X connect 115 0 119 0;
#X connect 117 0 116 0;
#X connect 119 0 122 0;
#X connect 120 0 121 0;
#X connect 120 0 127 0;
#X connect 121 0 130 0;
#X connect 122 0 123 0;
#X connect 124 0 125 0;
#X connect 125 0 90 0;
#X connect 125 0 126 0;
#X connect 126 0 100 0;
#X connect 130 0 119 0;
#X connect 130 1 119 1;
#X connect 131 0 72 0;
#X connect 132 0 133 0;
#X connect 133 0 134 0;
#X connect 133 0 145 0;
#X connect 135 0 170 0;
#X connect 135 0 172 0;
#X connect 136 0 135 0;
#X connect 137 0 136 0;
#X connect 138 0 139 0;
#X connect 138 0 171 0;
#X connect 139 0 135 0;
#X connect 140 0 139 0;
#X connect 142 0 143 0;
#X connect 143 0 131 0;
#X connect 149 0 150 0;
#X connect 149 1 150 1;
#X connect 149 2 150 2;
#X connect 150 0 144 0;
#X connect 150 0 145 0;
#X connect 151 0 152 0;
#X connect 151 1 153 0;
#X connect 151 2 154 0;
#X connect 151 3 155 0;
#X connect 151 4 156 0;
#X connect 151 5 157 0;
#X connect 151 6 158 0;
#X connect 151 7 159 0;
#X connect 151 8 160 0;
#X connect 151 9 161 0;
#X connect 162 0 163 0;
#X connect 163 0 164 0;
#X connect 163 1 165 0;
#X connect 164 0 170 0;
#X connect 165 0 172 0;
#X connect 166 0 162 0;
#X connect 167 0 168 0;
#X connect 167 1 168 1;
#X connect 167 2 168 2;
#X connect 168 0 144 0;
#X connect 168 0 145 0;
#X connect 169 0 135 0;
#X connect 170 0 149 0;
#X connect 171 0 135 0;
#X connect 171 0 173 0;
#X connect 172 0 167 0;
#X connect 173 0 166 0;
#X connect 175 0 177 0;
#X connect 176 0 175 0;
#X connect 187 0 111 1;
#X connect 188 0 189 0;
#X connect 189 0 109 0;
#X connect 189 0 113 0;
#X connect 191 0 194 0;
#X connect 192 0 193 0;
#X connect 193 0 194 0;
#X connect 193 1 194 1;
#X connect 194 0 195 0;
#X connect 195 0 196 0;
#X connect 198 0 197 0;
#X connect 199 0 200 0;
#X connect 202 0 203 0;
#X connect 203 0 230 0;
#X connect 204 0 202 0;
#X connect 205 0 204 0;
#X connect 206 0 207 0;
#X connect 207 0 228 0;
#X connect 208 0 218 0;
#X connect 209 0 210 0;
#X connect 210 0 229 0;
#X connect 211 0 217 0;
#X connect 212 0 213 0;
#X connect 213 0 226 0;
#X connect 214 0 219 0;
#X connect 215 0 216 0;
#X connect 217 0 209 0;
#X connect 218 0 206 0;
#X connect 219 0 212 0;
#X connect 220 0 221 0;
#X connect 222 0 223 0;
#X connect 223 0 225 0;
#X connect 223 0 227 0;
#X connect 224 0 222 0;
#X connect 226 0 220 3;
#X connect 227 0 230 0;
#X connect 227 1 226 0;
#X connect 227 1 228 0;
#X connect 227 1 229 0;
#X connect 227 2 226 1;
#X connect 227 2 228 1;
#X connect 227 2 229 1;
#X connect 227 2 230 1;
#X connect 228 0 220 2;
#X connect 229 0 220 1;
#X connect 230 0 220 0;
#X connect 231 0 205 0;
#X connect 231 0 211 0;
#X connect 231 0 208 0;
#X connect 231 0 214 0;
#X coords 0 -1 1 1 650 550 1 100 100;
