#N struct 1004-slot float x float y float slotsize float color float width float bordercolor;
#N canvas 237 34 1447 927 12;
#X obj 41 22 drum.seq 2 8 20 0 0 0 0 0 0 0 0 0 0 0 0;
#X obj 41 68 route bang;
#X obj 108 93 route 1 2;
#X obj 96 118 sel 1;
#X obj 138 118 sel 1;
#X obj 72 169 bng 20 250 50 0 empty empty empty 0 -10 0 12 #fcfcfc #000000 #000000;
#X msg 32 194 1 0;
#X obj 72 194 del 1;
#X msg 72 219 75.8994;
#X obj 72 269 line~;
#X obj 128 169 hsl 170 20 0 127 0 0 empty empty empty -2 -10 0 12 #fcfcfc #000000 #000000 0 1;
#X msg 125 194 set \$1;
#X obj 72 319 expr~ ($v1*($v2-$v3)+$v3);
#X obj 72 294 expr~ pow($v1\\\,3);
#X floatatom 234 238 5 0 0 0 - - - 0;
#X floatatom 234 272 5 0 0 0 - - - 0;
#X text 273 238 min freq;
#X text 273 271 max freq;
#X obj 72 344 osc~;
#X obj 72 607 tanh~;
#X obj 72 632;
#X obj 72 632 dac~;
#X obj 372 169 bng 20 250 50 0 empty empty empty 0 -10 0 12 #fcfcfc #000000 #000000;
#X msg 332 194 1 0;
#X obj 372 194 del 1;
#X msg 372 219 508;
#X obj 372 269 line~;
#X obj 428 151 hsl 170 20 0 127 0 0 empty empty empty -2 -10 0 12 #fcfcfc #000000 #000000 0 1;
#X msg 425 194 set \$1;
#X obj 41 -56 tgl 20 0 empty empty empty 0 -10 0 12 #fcfcfc #000000 #000000 0 1;
#X obj 72 369 *~;
#X msg 72 244 0 \$1;
#X msg 372 244 0 \$1;
#X obj 41 -3 metro 300;
#X obj 425 174 * 4;
#X obj 372 294 expr~ pow($v1\\\,3);
#X obj 372 332 -~;
#X obj 372 350 abs~;
#X obj 72 441 +~;
#X obj 72 517 *~ 3;
#X obj 182 461 hsl 170 20 0 127 0 0 empty empty empty -2 -10 0 12 #fcfcfc #000000 #000000 0 1;
#X obj 179 504 * 4;
#X obj 179 486 / 127;
#X msg -68 194 1 0;
#X obj -28 194 del 1;
#X msg -28 219 0 3;
#X obj -68 242 line~, f 6;
#X obj -68 290 *~;
#X obj -50 264 noise~;
#X obj 372 368 *~ 4;
#X obj 372 386 *~;
#X obj 372 404 +~ 1;
#X obj 432 350 hsl 170 20 0 127 0 0 empty empty empty -2 -10 0 12 #fcfcfc #000000 #000000 0 1;
#X obj 429 373 / 127;
#X obj 72 417 *~;
#X floatatom 101 -24 5 0 0 0 - - - 0;
#X obj 115 584 overdrive~;
#X floatatom 182 558 5 0 0 0 - - - 0;
#X obj 106 557 svf~, f 10;
#X obj 238 507 hsl 170 20 0 127 0 0 empty empty empty -2 -10 0 12 #fcfcfc #000000 #000000 0 1;
#X obj 235 531 / 127;
#X obj 235 549 * 3;
#X obj 278 547 hsl 170 20 0 127 0 0 empty empty empty -2 -10 0 12 #fcfcfc #000000 #000000 0 1;
#X obj 275 572 mtof;
#X obj -19 452 freeverb~;
#X obj -19 469 *~;
#X obj -60 336 vsl 14 119 0 127 0 0 empty empty empty 0 -9 0 12 #fcfcfc #000000 #000000 0 1;
#X obj -60 467 / 127;
#X obj -60 485 *~;
#X obj 72 489 +~;
#X msg -195 302 roomsize \$1;
#X msg -195 347 damping \$1;
#X msg -195 391 width \$1;
#X msg -195 435 wet \$1;
#X msg -195 479 dry \$1;
#X obj -183 456 hsl 60 18 0 1 0 1 empty empty dry 2 9 1 12 #d8fcd8 #000000 #000000 0 0;
#X obj -183 412 hsl 60 18 0 1 0 1 empty empty wet 2 9 1 12 #d8fcd8 #000000 #000000 5900 0;
#X obj -183 368 hsl 60 18 0 1 0 1 empty empty width 2 9 1 12 #fcfcc8 #000000 #000000 900 0;
#X obj -183 324 hsl 60 18 0 2 0 1 empty empty damping 2 9 1 12 #fce0e0 #000000 #000000 3950 0;
#X obj -183 279 hsl 60 18 0.11 1.1 0 1 empty empty roomsize 2 9 1 12 #fce0e0 #000000 #000000 800 0;
#X floatatom -213 283 3 0 0 0 - - - 0;
#X floatatom -213 328 3 0 0 0 - - - 0;
#X floatatom -213 373 3 0 0 0 - - - 0;
#X floatatom -213 416 3 0 0 0 - - - 0;
#X floatatom -213 460 3 0 0 0 - - - 0;
#X obj -60 503 lop~ 200;
#X connect 0 0 1 0;
#X connect 1 1 2 0;
#X connect 2 0 3 0;
#X connect 2 1 4 0;
#X connect 3 0 5 0;
#X connect 4 0 22 0;
#X connect 5 0 6 0;
#X connect 5 0 7 0;
#X connect 5 0 44 0;
#X connect 5 0 43 0;
#X connect 6 0 9 0;
#X connect 7 0 8 0;
#X connect 8 0 31 0;
#X connect 9 0 13 0;
#X connect 10 0 11 0;
#X connect 11 0 8 0;
#X connect 12 0 18 0;
#X connect 13 0 12 0;
#X connect 13 0 36 1;
#X connect 14 0 12 1;
#X connect 15 0 12 2;
#X connect 18 0 30 0;
#X connect 19 0 20 0;
#X connect 19 0 21 0;
#X connect 19 0 21 1;
#X connect 22 0 23 0;
#X connect 22 0 24 0;
#X connect 23 0 26 0;
#X connect 24 0 25 0;
#X connect 25 0 32 0;
#X connect 26 0 35 0;
#X connect 27 0 34 0;
#X connect 28 0 25 0;
#X connect 29 0 33 0;
#X connect 30 0 54 0;
#X connect 31 0 9 0;
#X connect 32 0 26 0;
#X connect 33 0 0 0;
#X connect 34 0 28 0;
#X connect 35 0 30 1;
#X connect 35 0 36 0;
#X connect 36 0 37 0;
#X connect 37 0 49 0;
#X connect 38 0 64 0;
#X connect 38 0 64 1;
#X connect 38 0 69 0;
#X connect 39 0 19 0;
#X connect 39 0 58 0;
#X connect 40 0 42 0;
#X connect 41 0 39 1;
#X connect 42 0 41 0;
#X connect 43 0 46 0;
#X connect 44 0 45 0;
#X connect 45 0 46 0;
#X connect 46 0 47 0;
#X connect 47 0 38 1;
#X connect 48 0 47 1;
#X connect 49 0 50 0;
#X connect 50 0 51 0;
#X connect 51 0 54 1;
#X connect 51 0 65 1;
#X connect 52 0 53 0;
#X connect 53 0 50 1;
#X connect 54 0 38 0;
#X connect 55 0 33 1;
#X connect 56 0 19 0;
#X connect 57 0 56 1;
#X connect 58 2 56 0;
#X connect 59 0 60 0;
#X connect 60 0 61 0;
#X connect 61 0 58 2;
#X connect 62 0 63 0;
#X connect 63 0 58 1;
#X connect 64 0 65 0;
#X connect 65 0 68 1;
#X connect 66 0 67 0;
#X connect 67 0 68 0;
#X connect 68 0 85 0;
#X connect 69 0 39 0;
#X connect 70 0 64 0;
#X connect 71 0 64 0;
#X connect 72 0 64 0;
#X connect 73 0 64 0;
#X connect 74 0 64 0;
#X connect 75 0 74 0;
#X connect 75 0 84 0;
#X connect 76 0 73 0;
#X connect 76 0 83 0;
#X connect 77 0 72 0;
#X connect 77 0 82 0;
#X connect 78 0 71 0;
#X connect 78 0 81 0;
#X connect 79 0 70 0;
#X connect 79 0 80 0;
#X connect 85 0 69 1;
