#N canvas 0 134 1294 595 12;
#X obj 111 104 tgl 15 0 empty empty gate 17 7 0 10 #fcfcfc #000000 #000000 0 1;
#X obj 613 143 vsl 15 128 0 1 0 1 empty empty position 0 -9 0 10 #fcfcfc #000000 #000000 10800 1;
#X obj 212 117 vsl 15 128 0 1 0 1 empty empty contour 0 -9 0 10 #fcfcfc #000000 #000000 0 1;
#X obj 188 118 vsl 15 128 -1 1 0 1 empty empty pitch 0 -9 0 10 #fcfcfc #000000 #000000 6350 1;
#X obj 251 121 vsl 15 128 0 1 0 1 empty empty bow_level 0 -9 0 10 #fcfcfc #000000 #000000 0 1;
#X obj 270 130 vsl 15 128 0 1 0 1 empty empty bow_timbre 0 -9 0 10 #fcfcfc #000000 #000000 0 1;
#X obj 512 122 vsl 15 128 0 3 0 1 empty empty resonator 0 -9 0 10 #fcfcfc #000000 #000000 5050 1;
#X obj 536 133 vsl 15 128 0 1 0 1 empty empty geometry 0 -9 0 10 #fcfcfc #000000 #000000 11500 1;
#X obj 559 149 vsl 15 128 0 1 0 1 empty empty brightness 0 -9 0 10 #fcfcfc #000000 #000000 10750 1;
#X obj 121 421 tgl 15 1 empty empty bypass 17 7 0 10 #fcfcfc #000000 #000000 0 1;
#X msg 602 427 position \$1;
#X msg 187 290 pitch \$1;
#X msg 117 454 bypass \$1;
#X obj 160 115 vsl 15 128 0 1 0 1 empty empty vol 0 -9 0 10 #fcfcfc #000000 #000000 12700 1;
#X obj 441 656 *~;
#X obj 466 654 *~;
#X msg 900 168 \; pd dsp 1;
#X obj 900 145 loadbang;
#X obj 439 608 lmnts~;
#X msg 212 253 contour \$1;
#X msg 254 371 bow_level \$1;
#X msg 275 387 bow_timbre \$1;
#X obj 326 122 vsl 15 128 0 1 0 1 empty empty blow_level 0 -9 0 10 #fc0400 #000000 #fc0400 2900 1;
#X obj 342 132 vsl 15 128 0 1 0 1 empty empty blow_flow 0 -9 0 10 #fc0400 #202020 #fc0400 12600 1;
#X msg 302 286 blow_level \$1;
#X obj 359 142 vsl 15 128 0 1 0 1 empty empty blow_timbre 0 -9 0 10 #fc0400 #000000 #fc0400 650 1;
#X msg 354 350 blow_timbre \$1;
#X msg 334 320 blow_flow \$1;
#X obj 417 131 vsl 15 128 0 1 0 1 empty empty strike_level 0 -9 0 10 #00f8fc #000000 #00f8fc 11150 1;
#X obj 434 141 vsl 15 128 0 1 0 1 empty empty blow_mallet 0 -9 0 10 #00f8fc #000000 #00f8fc 1850 1;
#X obj 452 151 vsl 15 128 0 1 0 1 empty empty strike_timbre 0 -9 0 10 #00f8fc #000000 #00f8fc 11050 1;
#X msg 403 404 strike_level \$1;
#X msg 435 438 strike_mallet \$1;
#X msg 455 468 strike_timbre \$1;
#X msg 439 301 resonator \$1;
#X msg 490 329 geometry \$1;
#X msg 568 353 brightness \$1;
#X obj 594 124 vsl 15 128 0 1 0 1 empty empty damping 0 -9 0 10 #fcfcfc #000000 #000000 12150 1;
#X msg 584 378 damping \$1;
#X obj 634 155 vsl 15 128 0 1 0 1 empty empty space 0 -9 0 10 #fcfcfc #000000 #000000 5550 1;
#X obj 669 117 vsl 15 128 0 1 0 1 empty empty mod_pitch 0 -9 0 10 #fcfcfc #000000 #000000 0 1;
#X msg 633 457 space \$1;
#X msg 740 389 mod_pitch \$1;
#X obj 696 128 vsl 15 128 0 1 0 1 empty empty mod_depth 0 -9 0 10 #fcfcfc #000000 #000000 0 1;
#X msg 776 419 mod_depth \$1;
#X obj 724 128 tgl 15 1 empty empty easter_egg 17 7 0 10 #fcfcfc #000000 #000000 0 1;
#X msg 687 328 easter_egg \$1;
#X msg 111 308 gate \$1;
#X obj 756 157 vsl 15 128 0 32768 0 1 empty empty seed 0 -9 0 10 #fcfcfc #000000 #000000 4750 1;
#X msg 858 513 seed \$1;
#X obj 380 704 outlet~;
#X obj 388 722 outlet~;
#X obj 110 77 unpack f f f f f f;
#X obj 110 32 inlet;
#X connect 0 0 47 0;
#X connect 1 0 10 0;
#X connect 2 0 19 0;
#X connect 3 0 11 0;
#X connect 4 0 20 0;
#X connect 5 0 21 0;
#X connect 6 0 34 0;
#X connect 7 0 35 0;
#X connect 8 0 36 0;
#X connect 9 0 12 0;
#X connect 10 0 18 0;
#X connect 11 0 18 0;
#X connect 12 0 18 0;
#X connect 13 0 14 1;
#X connect 13 0 15 1;
#X connect 14 0 50 0;
#X connect 15 0 14 0;
#X connect 15 0 51 0;
#X connect 17 0 16 0;
#X connect 18 0 14 0;
#X connect 18 1 15 0;
#X connect 19 0 18 0;
#X connect 20 0 18 0;
#X connect 21 0 18 0;
#X connect 22 0 24 0;
#X connect 23 0 27 0;
#X connect 24 0 18 0;
#X connect 25 0 26 0;
#X connect 26 0 18 0;
#X connect 27 0 18 0;
#X connect 28 0 31 0;
#X connect 29 0 32 0;
#X connect 30 0 33 0;
#X connect 31 0 18 0;
#X connect 32 0 18 0;
#X connect 33 0 18 0;
#X connect 34 0 18 0;
#X connect 35 0 18 0;
#X connect 36 0 18 0;
#X connect 37 0 38 0;
#X connect 38 0 18 0;
#X connect 39 0 41 0;
#X connect 40 0 42 0;
#X connect 41 0 18 0;
#X connect 42 0 18 0;
#X connect 43 0 44 0;
#X connect 44 0 18 0;
#X connect 45 0 46 0;
#X connect 46 0 18 0;
#X connect 47 0 18 0;
#X connect 48 0 49 0;
#X connect 49 0 18 0;
#X connect 52 0 0 0;
#X connect 52 1 13 0;
#X connect 52 2 3 0;
#X connect 52 3 2 0;
#X connect 52 4 4 0;
#X connect 52 5 5 0;
#X connect 53 0 52 0;
#X coords 0 -1 1 1 700 200 1 100 100;
