#N struct 1035-slot float x float y float slotsize float color float width float bordercolor;
#N struct 1062-slot float x float y float slotsize float color float width float bordercolor;
#N struct 1089-slot float x float y float slotsize float color float width float bordercolor;
#N struct 1209-slot float x float y float slotsize float color float width float bordercolor;
#N canvas 114 96 1717 806 12;
#X obj -80 250 mixer;
#X obj -78 306 dac~;
#X obj 125 -1327 hradio 16 1 0 16 empty empty empty 0 -7 0 12 #fcfcfc #000000 #000000 0;
#X obj 124 -1302 vsl 15 15 0 10 0 0 empty empty empty 0 -9 0 12 #fcfcfc #000000 #000000 0 1;
#X obj 140 -1302 vsl 15 15 0 10 0 0 empty empty empty 0 -9 0 12 #fcfcfc #000000 #000000 0 1;
#X obj 156 -1302 vsl 15 15 0 10 0 0 empty empty empty 0 -9 0 12 #fcfcfc #000000 #000000 0 1;
#X obj 172 -1302 vsl 15 15 0 10 0 0 empty empty empty 0 -9 0 12 #fcfcfc #000000 #000000 0 1;
#X obj 188 -1302 vsl 15 15 0 10 0 0 empty empty empty 0 -9 0 12 #fcfcfc #000000 #000000 0 1;
#X obj 204 -1302 vsl 15 15 0 10 0 0 empty empty empty 0 -9 0 12 #fcfcfc #000000 #000000 0 1;
#X obj 220 -1302 vsl 15 15 0 10 0 0 empty empty empty 0 -9 0 12 #fcfcfc #000000 #000000 0 1;
#X obj 236 -1302 vsl 15 15 0 10 0 0 empty empty empty 0 -9 0 12 #fcfcfc #000000 #000000 0 1;
#X obj 252 -1302 vsl 15 15 0 10 0 0 empty empty empty 0 -9 0 12 #fcfcfc #000000 #000000 0 1;
#X obj 268 -1302 vsl 15 15 0 10 0 0 empty empty empty 0 -9 0 12 #fcfcfc #000000 #000000 0 1;
#X obj 284 -1302 vsl 15 15 0 10 0 0 empty empty empty 0 -9 0 12 #fcfcfc #000000 #000000 0 1;
#X obj 300 -1302 vsl 15 15 0 10 0 0 empty empty empty 0 -9 0 12 #fcfcfc #000000 #000000 0 1;
#X obj 316 -1302 vsl 15 15 0 10 0 0 empty empty empty 0 -9 0 12 #fcfcfc #000000 #000000 0 1;
#X obj 332 -1302 vsl 15 15 0 10 0 0 empty empty empty 0 -9 0 12 #fcfcfc #000000 #000000 0 1;
#X obj 348 -1302 vsl 15 15 0 10 0 0 empty empty empty 0 -9 0 12 #fcfcfc #000000 #000000 0 1;
#X obj 364 -1302 vsl 15 15 0 10 0 0 empty empty empty 0 -9 0 12 #fcfcfc #000000 #000000 0 1;
#X obj -101 -1369 tgl 14 0 empty empty empty 0 -7 0 12 #fcfcfc #000000 #000000 0 1;
#X obj -101 -1349 metro 500;
#X obj -101 -1330 count 15;
#X obj -101 -1311 + 1;
#X floatatom -106 -1282 5 0 0 0 - - - 0;
#X obj 44 -1284 zl.nth;
#X obj 124 -1271 pack f f f f f f f f f f f f f f f f;
#X obj 96 -1284 b;
#X obj 44 -1303 t b f;
#X floatatom 44 -1267 5 0 0 0 - - - 0;
#X obj 125 -1232 vsl 15 15 0 10 0 0 empty empty empty 0 -9 0 12 #fcfcfc #000000 #000000 0 1;
#X obj 140 -1232 vsl 15 15 0 10 0 0 empty empty empty 0 -9 0 12 #fcfcfc #000000 #000000 0 1;
#X obj 156 -1232 vsl 15 15 0 10 0 0 empty empty empty 0 -9 0 12 #fcfcfc #000000 #000000 0 1;
#X obj 191 -1227 vsl 15 15 0 10 0 0 empty empty empty 0 -9 0 12 #fcfcfc #000000 #000000 0 1;
#X obj 188 -1232 vsl 15 15 0 10 0 0 empty empty empty 0 -9 0 12 #fcfcfc #000000 #000000 0 1;
#X obj 204 -1232 vsl 15 15 0 10 0 0 empty empty empty 0 -9 0 12 #fcfcfc #000000 #000000 0 1;
#X obj 220 -1232 vsl 15 15 0 10 0 0 empty empty empty 0 -9 0 12 #fcfcfc #000000 #000000 0 1;
#X obj 236 -1232 vsl 15 15 0 10 0 0 empty empty empty 0 -9 0 12 #fcfcfc #000000 #000000 0 1;
#X obj 252 -1232 vsl 15 15 0 10 0 0 empty empty empty 0 -9 0 12 #fcfcfc #000000 #000000 0 1;
#X obj 268 -1232 vsl 15 15 0 10 0 0 empty empty empty 0 -9 0 12 #fcfcfc #000000 #000000 0 1;
#X obj 284 -1232 vsl 15 15 0 10 0 0 empty empty empty 0 -9 0 12 #fcfcfc #000000 #000000 0 1;
#X obj 300 -1232 vsl 15 15 0 10 0 0 empty empty empty 0 -9 0 12 #fcfcfc #000000 #000000 0 1;
#X obj 316 -1232 vsl 15 15 0 10 0 0 empty empty empty 0 -9 0 12 #fcfcfc #000000 #000000 0 1;
#X obj 332 -1232 vsl 15 15 0 10 0 0 empty empty empty 0 -9 0 12 #fcfcfc #000000 #000000 0 1;
#X obj 348 -1232 vsl 15 15 0 10 0 0 empty empty empty 0 -9 0 12 #fcfcfc #000000 #000000 0 1;
#X obj 364 -1232 vsl 15 15 0 10 0 0 empty empty empty 0 -9 0 12 #fcfcfc #000000 #000000 0 1;
#X obj 44 -1214 zl.nth;
#X obj 124 -1201 pack f f f f f f f f f f f f f f f f;
#X obj 96 -1214 b;
#X obj 44 -1233 t b f;
#X floatatom 44 -1197 5 0 0 0 - - - 0;
#X floatatom -39 -1377 5 0 0 0 - - - 0;
#X obj 410 -1090 route 1 2 3 4, f 24;
#X obj 410 -1038 s tr1;
#X obj 451 -1038 s tr2;
#X obj 492 -1038 s tr3;
#X obj 533 -1038 s tr4;
#X obj 46 -1159 +;
#X obj 46 -1140 % 4;
#X obj -54 -1456 notein;
#X floatatom -57 -1430 5 0 0 0 - - - 0;
#X floatatom -40 -1413 5 0 0 0 - - - 0;
#X floatatom 11 -1426 5 0 0 0 - - - 0;
#X obj -156 -1441 == 18;
#X floatatom -156 -1422 5 0 0 0 - - - 0;
#X obj -102 -1415 *;
#X obj -102 -1398 sel 127;
#X obj -212 -1338 noteout 1;
#X msg -220 -1360 18;
#X obj -206 -1387 t b f;
#X obj -182 -1368 * 1;
#X obj -99 466 else/resonant~;
#X obj -483 -192 sel 1;
#X obj -429 -208 + 60;
#X obj -429 -192 mtof;
#X obj 373 -1475 bng 14 250 50 0 empty empty empty 0 -7 0 12 #fcfcfc #000000 #000000;
#X obj 153 -1439 random 10;
#X obj 163 -1429 random 10;
#X obj 173 -1419 random 10;
#X obj 183 -1409 random 10;
#X obj 243 -1439 random 10;
#X obj 253 -1429 random 10;
#X obj 263 -1419 random 10;
#X obj 273 -1409 random 10;
#X obj 338 -1440 random 10;
#X obj 348 -1430 random 10;
#X obj 358 -1420 random 10;
#X obj 368 -1410 random 10;
#X obj 428 -1440 random 10;
#X obj 438 -1430 random 10;
#X obj 448 -1420 random 10;
#X obj 458 -1410 random 10;
#X obj -47 213 r~ synth;
#X obj -59 183 r~ break, f 11;
#X obj 29 -176 s~ break;
#X obj -1068 -615 tabread;
#X obj -375 144 s~ synth;
#N canvas 15 190 1788 682 (subpatch) 0;
#N canvas 0 0 450 250 (subpatch) 0;
#X array DB 64174 float 2;
#A color 0;
#A width 2;
#X coords 0 1 64174 -1 200 140 1;
#X restore 3 5 graph;
#X obj 199 161 openpanel;
#X obj 199 213 soundfiler;
#X floatatom 199 366 5 0 0 0 - - - 12;
#X obj 244 239 unpack f;
#X floatatom 244 366 5 0 0 0 - - - 12;
#X floatatom 106 315 5 0 0 0 - - - 12;
#X obj 106 340 * 0.001;
#X floatatom 106 366 5 0 0 0 - - - 12;
#X text 244 391 sample rate;
#X text 199 391 tsamp;
#X text 106 391 len sec;
#X text 201 107 load;
#X obj 21 346 s len;
#X obj 199 423 s tsamp;
#X obj 515 48 + 1;
#X obj 509 202 line~;
#X obj 738 374 s2f~;
#X floatatom 738 400 7 0 0 0 - - - 24;
#X obj 550 148 / 16;
#X obj 509 119 - 1;
#X obj 509 148 / 16;
#X obj 550 239 scope~ 200 122 256 3 128 0 1 0 0 0 0 77 77 77 228 228 228 183 183 183 0 empty;
#X obj 509 84 t b f;
#X obj 550 119 del;
#X obj 550 174 pack f f;
#X obj 461 311 *~;
#X obj 581 72 r len;
#X msg 634 101 set \$1;
#X msg 657 131 5614.4;
#X obj 658 201 / 16;
#X obj 725 19 vsl 17 128 0 1 0 0 empty empty empty 0 -9 0 10 #e4e4e4 #4d4d4d #373737 0 1;
#X text 781 200 speed;
#X obj 756 131 t b f;
#X floatatom 715 199 5 0 0 0 - - - 12;
#X obj 657 165 expr ($f1)*pow(2 \, (($f2*2)-1));
#X obj 756 101 !- 1;
#X obj 722 -15 r speed;
#X obj 125 148 s speed;
#X floatatom 288 122 5 0 0 0 - - - 12;
#X text 259 121 divs;
#X obj 288 148 s div;
#X obj 560 37 r div;
#X obj 268 11 hsl 56 16 0 1 0 0 empty empty empty -2 -8 0 10 #e4e4e4 #4d4d4d #373737 0 1;
#X obj 268 48 hsl 56 16 0 1 0 0 empty empty empty -2 -8 0 10 #e4e4e4 #4d4d4d #373737 0 1;
#X text 203 5 pitch;
#X text 290 29 skip;
#X text 295 61 far;
#X floatatom 349 34 5 0 0 0 - - - 12;
#X obj 360 -79 r div;
#X obj 349 -27 int;
#X obj 349 8 rand.i 0;
#X obj 349 -52 * 16;
#X obj 416 -27 rand.i 0 100;
#X obj 416 -1 / 100;
#X obj 416 84 >;
#X floatatom 416 110 5 0 0 0 - - - 12;
#X obj 428 48 !- 1;
#X obj 515 -27 +;
#X obj 375 152 *;
#X obj 515 11 %;
#X obj 578 -25 r div;
#X floatatom 469 84 5 0 0 0 - - - 12;
#X obj 217 -52 loadbang;
#X msg 217 -26 16;
#X floatatom 515 -129 5 0 0 0 - - - 12;
#X obj 515 -79 t b f;
#X obj 428 -165 inlet;
#X obj 462 751 outlet~;
#X floatatom 515 -233 5 0 0 0 - - - 12;
#X floatatom 565 -233 5 0 0 0 - - - 12;
#X obj 515 -271 stripnote;
#X floatatom -166 -15 5 0 0 0 - - - 12;
#X floatatom -96 -15 5 0 0 0 - - - 12;
#X obj -111 -61 ctl.in 17;
#X obj -166 66 spigot;
#X obj -166 92 / 127;
#X obj -96 19 == 20;
#X floatatom -293 -15 5 0 0 0 - - - 12;
#X floatatom -223 -15 5 0 0 0 - - - 12;
#X obj -238 -61 ctl.in 17;
#X obj -293 66 spigot;
#X obj -293 92 / 127;
#X obj -223 19 == 16;
#X obj 467 707 tanh~;
#X obj 463 607 *~ 0.8;
#X obj 515 -386 midi.in 5;
#X floatatom 559 -192 5 0 0 0 - - - 12;
#X obj 515 -203 - 61;
#X obj 203 119 bng 14 250 50 0 empty empty empty 0 -7 0 12 #fcfcfc #000000 #000000;
#X obj 246 6 vsl 14 119 0 1 0 0 empty empty empty 0 -9 0 12 #e3c6ff #000000 #000000 0 1;
#X obj 258 589 scope~ 200 122 256 3 128 0 1 0 0 0 0 77 77 77 228 228 228 183 183 183 0 empty;
#X obj 643 526;
#X obj 461 549 tabread4~ DB;
#X msg 199 187 read -resize \$1 DB;
#X obj 111 238 / 44.1;
#X connect 1 0 94 0;
#X connect 2 0 3 0;
#X connect 2 1 4 0;
#X connect 3 0 14 0;
#X connect 3 0 26 1;
#X connect 3 0 95 0;
#X connect 4 0 5 0;
#X connect 6 0 7 0;
#X connect 6 0 13 0;
#X connect 7 0 8 0;
#X connect 15 0 23 0;
#X connect 15 0 62 0;
#X connect 16 0 22 0;
#X connect 16 0 26 0;
#X connect 17 0 18 0;
#X connect 19 0 25 0;
#X connect 20 0 21 0;
#X connect 21 0 16 0;
#X connect 23 0 20 0;
#X connect 23 0 24 0;
#X connect 23 0 29 0;
#X connect 23 1 20 0;
#X connect 23 1 19 0;
#X connect 24 0 19 0;
#X connect 25 0 16 0;
#X connect 26 0 93 0;
#X connect 27 0 25 1;
#X connect 27 0 28 0;
#X connect 28 0 29 0;
#X connect 29 0 35 0;
#X connect 30 0 25 1;
#X connect 31 0 36 0;
#X connect 33 0 35 0;
#X connect 33 1 35 1;
#X connect 35 0 30 0;
#X connect 35 0 34 0;
#X connect 36 0 33 0;
#X connect 37 0 31 0;
#X connect 39 0 41 0;
#X connect 42 0 21 1;
#X connect 42 0 19 1;
#X connect 42 0 30 1;
#X connect 43 0 57 0;
#X connect 44 0 52 0;
#X connect 48 0 59 0;
#X connect 49 0 52 1;
#X connect 50 0 51 2;
#X connect 51 0 48 0;
#X connect 52 0 50 0;
#X connect 53 0 54 0;
#X connect 54 0 55 0;
#X connect 55 0 56 0;
#X connect 56 0 59 1;
#X connect 57 0 55 1;
#X connect 58 0 60 0;
#X connect 59 0 58 1;
#X connect 60 0 15 0;
#X connect 61 0 60 1;
#X connect 63 0 64 0;
#X connect 64 0 39 0;
#X connect 65 0 66 0;
#X connect 66 0 58 0;
#X connect 66 0 51 0;
#X connect 66 0 53 0;
#X connect 66 1 58 0;
#X connect 67 0 65 0;
#X connect 69 0 88 0;
#X connect 71 0 69 0;
#X connect 71 1 70 0;
#X connect 72 0 75 0;
#X connect 73 0 77 0;
#X connect 74 0 72 0;
#X connect 74 1 73 0;
#X connect 75 0 76 0;
#X connect 76 0 43 0;
#X connect 76 0 44 0;
#X connect 77 0 75 1;
#X connect 78 0 81 0;
#X connect 79 0 83 0;
#X connect 80 0 78 0;
#X connect 80 1 79 0;
#X connect 81 0 82 0;
#X connect 82 0 90 0;
#X connect 83 0 81 1;
#X connect 84 0 68 0;
#X connect 85 0 84 0;
#X connect 86 0 71 0;
#X connect 86 1 71 1;
#X connect 87 0 65 0;
#X connect 88 0 87 0;
#X connect 89 0 1 0;
#X connect 90 0 38 0;
#X connect 93 0 85 0;
#X connect 93 0 91 0;
#X connect 94 0 2 0;
#X connect 95 0 6 0;
#X coords 0 1 100 -1 400 150 1 0 2;
#X restore 29 -331 graph;
#X obj -483 -211 % 5;
#X obj -94 149 expr~ tanh($v1+$v2+$v3+$v4)/2;
#N canvas 15 190 1788 682 (subpatch) 0;
#N canvas 0 0 450 250 (subpatch) 0;
#X array DB2 247595 float 2;
#A color 0;
#A width 2;
#X coords 0 1 247595 -1 200 140 1;
#X restore 3 5 graph;
#X obj 199 161 openpanel;
#X obj 199 213 soundfiler;
#X floatatom 199 366 5 0 0 0 - - - 12;
#X obj 244 239 unpack f;
#X floatatom 244 366 5 0 0 0 - - - 12;
#X floatatom 106 315 5 0 0 0 - - - 12;
#X obj 106 340 * 0.001;
#X floatatom 106 366 5 0 0 0 - - - 12;
#X text 244 391 sample rate;
#X text 199 391 tsamp;
#X text 106 391 len sec;
#X text 201 107 load;
#X obj 21 346 s len;
#X obj 199 423 s tsamp;
#X obj 515 48 + 1;
#X obj 509 202 line~;
#X obj 738 374 s2f~;
#X floatatom 738 400 7 0 0 0 - - - 24;
#X obj 550 148 / 16;
#X obj 509 119 - 1;
#X obj 509 148 / 16;
#X obj 550 239 scope~ 200 122 256 3 128 0 1 0 0 0 0 77 77 77 228 228 228 183 183 183 0 empty;
#X obj 509 84 t b f;
#X obj 550 119 del;
#X obj 550 174 pack f f;
#X obj 461 311 *~;
#X obj 581 72 r len;
#X msg 634 101 set \$1;
#X msg 657 131 5614.4;
#X obj 658 201 / 16;
#X obj 725 19 vsl 17 128 0 1 0 0 empty empty empty 0 -9 0 10 #e4e4e4 #4d4d4d #373737 0 1;
#X text 781 200 speed;
#X obj 756 131 t b f;
#X floatatom 715 199 5 0 0 0 - - - 12;
#X obj 657 165 expr ($f1)*pow(2 \, (($f2*2)-1));
#X obj 756 101 !- 1;
#X floatatom 288 122 5 0 0 0 - - - 12;
#X text 259 121 divs;
#X obj 288 148 s div;
#X obj 560 37 r div;
#X obj 268 11 hsl 56 16 0 1 0 0 empty empty empty -2 -8 0 10 #e4e4e4 #4d4d4d #373737 0 1;
#X obj 268 48 hsl 56 16 0 1 0 0 empty empty empty -2 -8 0 10 #e4e4e4 #4d4d4d #373737 0 1;
#X text 203 5 pitch;
#X text 290 29 skip;
#X text 295 61 far;
#X floatatom 349 34 5 0 0 0 - - - 12;
#X obj 360 -79 r div;
#X obj 349 -27 int;
#X obj 349 8 rand.i 0;
#X obj 349 -52 * 16;
#X obj 416 -27 rand.i 0 100;
#X obj 416 -1 / 100;
#X obj 416 84 >;
#X floatatom 416 110 5 0 0 0 - - - 12;
#X obj 428 48 !- 1;
#X obj 515 -27 +;
#X obj 375 152 *;
#X obj 515 11 %;
#X obj 578 -25 r div;
#X floatatom 469 84 5 0 0 0 - - - 12;
#X obj 217 -52 loadbang;
#X msg 217 -26 16;
#X floatatom 515 -129 5 0 0 0 - - - 12;
#X obj 515 -79 t b f;
#X obj 428 -165 inlet;
#X obj 462 751 outlet~;
#X floatatom 515 -233 5 0 0 0 - - - 12;
#X floatatom 565 -233 5 0 0 0 - - - 12;
#X obj 515 -271 stripnote;
#X floatatom -166 -15 5 0 0 0 - - - 12;
#X floatatom -96 -15 5 0 0 0 - - - 12;
#X obj -111 -61 ctl.in 17;
#X obj -166 66 spigot;
#X obj -166 92 / 127;
#X obj -96 19 == 20;
#X floatatom -293 -15 5 0 0 0 - - - 12;
#X floatatom -223 -15 5 0 0 0 - - - 12;
#X obj -238 -61 ctl.in 17;
#X obj -293 66 spigot;
#X obj -293 92 / 127;
#X obj -223 19 == 16;
#X obj 467 707 tanh~;
#X obj 463 607 *~ 0.8;
#X obj 515 -386 midi.in 5;
#X floatatom 559 -192 5 0 0 0 - - - 12;
#X obj 515 -203 - 61;
#X obj 203 119 bng 14 250 50 0 empty empty empty 0 -7 0 12 #fcfcfc #000000 #000000;
#X obj 246 6 vsl 14 119 0 1 0 0 empty empty empty 0 -9 0 12 #e3c6ff #000000 #000000 0 1;
#X obj 258 589 scope~ 200 122 256 3 128 0 1 0 0 0 0 77 77 77 228 228 228 183 183 183 0 empty;
#X obj 643 526;
#X obj 111 238 / 44.1;
#X msg 199 187 read -resize \$1 DB2;
#X obj 461 549 tabread4~ DB2;
#X obj 125 148 s speed2;
#X obj 722 -15 r speed2;
#X connect 1 0 92 0;
#X connect 2 0 3 0;
#X connect 2 1 4 0;
#X connect 3 0 14 0;
#X connect 3 0 26 1;
#X connect 3 0 91 0;
#X connect 4 0 5 0;
#X connect 6 0 7 0;
#X connect 6 0 13 0;
#X connect 7 0 8 0;
#X connect 15 0 23 0;
#X connect 15 0 60 0;
#X connect 16 0 22 0;
#X connect 16 0 26 0;
#X connect 17 0 18 0;
#X connect 19 0 25 0;
#X connect 20 0 21 0;
#X connect 21 0 16 0;
#X connect 23 0 20 0;
#X connect 23 0 24 0;
#X connect 23 0 29 0;
#X connect 23 1 20 0;
#X connect 23 1 19 0;
#X connect 24 0 19 0;
#X connect 25 0 16 0;
#X connect 26 0 93 0;
#X connect 27 0 25 1;
#X connect 27 0 28 0;
#X connect 28 0 29 0;
#X connect 29 0 35 0;
#X connect 30 0 25 1;
#X connect 31 0 36 0;
#X connect 33 0 35 0;
#X connect 33 1 35 1;
#X connect 35 0 30 0;
#X connect 35 0 34 0;
#X connect 36 0 33 0;
#X connect 37 0 39 0;
#X connect 40 0 21 1;
#X connect 40 0 19 1;
#X connect 40 0 30 1;
#X connect 41 0 55 0;
#X connect 42 0 50 0;
#X connect 46 0 57 0;
#X connect 47 0 50 1;
#X connect 48 0 49 2;
#X connect 49 0 46 0;
#X connect 50 0 48 0;
#X connect 51 0 52 0;
#X connect 52 0 53 0;
#X connect 53 0 54 0;
#X connect 54 0 57 1;
#X connect 55 0 53 1;
#X connect 56 0 58 0;
#X connect 57 0 56 1;
#X connect 58 0 15 0;
#X connect 59 0 58 1;
#X connect 61 0 62 0;
#X connect 62 0 37 0;
#X connect 63 0 64 0;
#X connect 64 0 56 0;
#X connect 64 0 49 0;
#X connect 64 0 51 0;
#X connect 64 1 56 0;
#X connect 65 0 63 0;
#X connect 67 0 86 0;
#X connect 69 0 67 0;
#X connect 69 1 68 0;
#X connect 70 0 73 0;
#X connect 71 0 75 0;
#X connect 72 0 70 0;
#X connect 72 1 71 0;
#X connect 73 0 74 0;
#X connect 74 0 41 0;
#X connect 74 0 42 0;
#X connect 75 0 73 1;
#X connect 76 0 79 0;
#X connect 77 0 81 0;
#X connect 78 0 76 0;
#X connect 78 1 77 0;
#X connect 79 0 80 0;
#X connect 80 0 88 0;
#X connect 81 0 79 1;
#X connect 82 0 66 0;
#X connect 83 0 82 0;
#X connect 84 0 69 0;
#X connect 84 1 69 1;
#X connect 85 0 63 0;
#X connect 86 0 85 0;
#X connect 87 0 1 0;
#X connect 88 0 94 0;
#X connect 91 0 6 0;
#X connect 92 0 2 0;
#X connect 93 0 83 0;
#X connect 93 0 89 0;
#X connect 95 0 31 0;
#X coords 0 1 100 -1 400 150 1 0 2;
#X restore -374 -331 graph;
#X obj 959 -1712 else/drum.seq;
#X obj 410 -1180 else/drum.seq 4 16 20 0 0 0 0 0 0 0 0 0 0 0 0;
#X floatatom 492 -1271 5 0 0 0 - - - 0;
#X obj 735 -1180 else/drum.seq 2 16 20 0 0 0 0 0 0 0 0 0 0 0 0;
#X obj -209 197 r~ kb;
#X obj 355 186 s~ kb;
#X obj 410 -1062 sel 1;
#X obj 451 -1062 sel 1;
#X obj 492 -1062 sel 1;
#X obj 533 -1062 sel 1;
#X msg 740 -1230 export 0;
#X obj 748 -1263 bng 14 250 50 0 empty empty empty 0 -7 0 12 #fcfcfc #000000 #000000;
#X obj 1951 -1657 else/lua;
#X obj -69 -69 4_smplr, f 19;
#X obj 362 -69 Kick~;
#X obj -374 -173 Synth~;
#X obj -20 -1227 s seq1;
#X obj -20 -1147 s seq2;
#X obj -483 -234 r seq1;
#X obj -429 -233 r seq2;
#X obj -170 -1258 s dbreakcnt;
#X obj -484 -351 r dbreakcnt;
#X obj 765 -1112 s kptrn;
#X obj 354 -92 r kptrn;
#X obj -361 -920 cardreader;
#X obj -361 -366 s kptrn;
#X obj -359 -1033 hsl 119 14 0 100 0 0 empty empty empty -2 -7 0 12 #fcfcfc #000000 #000000 0 1;
#X text -363 -1051 transport;
#X obj -236 -1032 tgl 14 0 empty empty empty 0 -7 0 12 #fcfcfc #000000 #000000 0 1;
#X obj -361 -1015 metro;
#X obj -361 -996 counter;
#X obj -361 -977 % 5;
#X obj -361 -959 sel 0;
#X obj -361 -940 bng 14 250 50 0 empty empty empty 0 -7 0 12 #fcfcfc #000000 #000000;
#X obj 370 -466 unpack;
#X floatatom 370 -447 5 0 0 0 - - - 0;
#X floatatom 410 -447 5 0 0 0 - - - 0;
#X obj 368 -495 r kptrn;
#X obj -59 -152 r 4smpl;
#X obj -59 -136 unpack f f f f;
#X obj -60 -118 sel 1;
#X obj -18 -118 sel 1;
#X obj 32 -118 sel 1;
#X obj 82 -118 sel 1;
#X obj 282 -365 s 4smpl;
#X obj -35 -90 bng 14 250 50 0 empty empty empty 0 -7 0 12 #fcfcfc #000000 #000000;
#X obj -290 -1101 == 18;
#X floatatom -290 -1082 5 0 0 0 - - - 0;
#X obj -236 -1081 *;
#X obj -236 -1058 sel 127;
#X obj -256 -1120 notein 1;
#X obj -471 -826 s dbreakcnt;
#X obj -471 -920 bng 21 250 50 0 empty empty empty 0 -11 0 12 #fcfcfc #000000 #000000;
#X obj -471 -893 counter;
#X floatatom -541 -859 5 0 0 0 - - - 0;
#X obj -471 -866 expr ($f1%16)+1;
#X connect 0 0 1 0;
#X connect 0 0 1 1;
#X connect 3 0 25 0;
#X connect 3 0 26 0;
#X connect 4 0 25 1;
#X connect 4 0 26 0;
#X connect 5 0 25 2;
#X connect 5 0 26 0;
#X connect 6 0 25 3;
#X connect 6 0 26 0;
#X connect 7 0 25 4;
#X connect 7 0 26 0;
#X connect 8 0 25 5;
#X connect 8 0 26 0;
#X connect 9 0 25 6;
#X connect 9 0 26 0;
#X connect 10 0 25 7;
#X connect 10 0 26 0;
#X connect 11 0 25 8;
#X connect 11 0 26 0;
#X connect 12 0 25 9;
#X connect 12 0 26 0;
#X connect 13 0 25 10;
#X connect 13 0 26 0;
#X connect 14 0 25 11;
#X connect 14 0 26 0;
#X connect 15 0 25 12;
#X connect 15 0 26 0;
#X connect 16 0 25 13;
#X connect 16 0 26 0;
#X connect 17 0 25 14;
#X connect 17 0 26 0;
#X connect 18 0 25 15;
#X connect 18 0 26 0;
#X connect 19 0 20 0;
#X connect 19 0 68 0;
#X connect 20 0 21 0;
#X connect 21 0 22 0;
#X connect 21 0 2 0;
#X connect 21 0 102 0;
#X connect 22 0 23 0;
#X connect 22 0 27 0;
#X connect 22 0 48 0;
#X connect 23 0 120 0;
#X connect 24 0 28 0;
#X connect 25 0 24 0;
#X connect 26 0 25 0;
#X connect 27 0 24 0;
#X connect 27 1 24 1;
#X connect 28 0 56 0;
#X connect 28 0 116 0;
#X connect 29 0 46 0;
#X connect 29 0 47 0;
#X connect 30 0 46 1;
#X connect 30 0 47 0;
#X connect 31 0 46 2;
#X connect 31 0 47 0;
#X connect 32 0 46 3;
#X connect 32 0 47 0;
#X connect 33 0 46 4;
#X connect 33 0 47 0;
#X connect 34 0 46 5;
#X connect 34 0 47 0;
#X connect 35 0 46 6;
#X connect 35 0 47 0;
#X connect 36 0 46 7;
#X connect 36 0 47 0;
#X connect 37 0 46 8;
#X connect 37 0 47 0;
#X connect 38 0 46 9;
#X connect 38 0 47 0;
#X connect 39 0 46 10;
#X connect 39 0 47 0;
#X connect 40 0 46 11;
#X connect 40 0 47 0;
#X connect 41 0 46 12;
#X connect 41 0 47 0;
#X connect 42 0 46 13;
#X connect 42 0 47 0;
#X connect 43 0 46 14;
#X connect 43 0 47 0;
#X connect 44 0 46 15;
#X connect 44 0 47 0;
#X connect 45 0 49 0;
#X connect 46 0 45 0;
#X connect 47 0 46 0;
#X connect 48 0 45 0;
#X connect 48 1 45 1;
#X connect 49 0 56 1;
#X connect 49 0 117 0;
#X connect 50 0 20 1;
#X connect 51 0 106 0;
#X connect 51 1 107 0;
#X connect 51 2 108 0;
#X connect 51 3 109 0;
#X connect 56 0 57 0;
#X connect 58 0 59 0;
#X connect 58 0 62 0;
#X connect 58 1 60 0;
#X connect 58 1 64 0;
#X connect 58 2 61 0;
#X connect 58 2 66 2;
#X connect 62 0 63 0;
#X connect 62 0 64 1;
#X connect 64 0 65 0;
#X connect 65 0 19 0;
#X connect 67 0 66 0;
#X connect 68 0 67 0;
#X connect 68 0 69 0;
#X connect 68 1 69 0;
#X connect 69 0 66 1;
#X connect 71 0 115 1;
#X connect 72 0 73 0;
#X connect 73 0 115 0;
#X connect 74 0 75 0;
#X connect 74 0 76 0;
#X connect 74 0 77 0;
#X connect 74 0 78 0;
#X connect 74 0 79 0;
#X connect 74 0 80 0;
#X connect 74 0 81 0;
#X connect 74 0 82 0;
#X connect 74 0 83 0;
#X connect 74 0 84 0;
#X connect 74 0 85 0;
#X connect 74 0 86 0;
#X connect 74 0 87 0;
#X connect 74 0 88 0;
#X connect 74 0 89 0;
#X connect 74 0 90 0;
#X connect 75 0 3 0;
#X connect 75 0 32 0;
#X connect 76 0 4 0;
#X connect 76 0 43 0;
#X connect 77 0 5 0;
#X connect 77 0 30 0;
#X connect 78 0 6 0;
#X connect 78 0 29 0;
#X connect 79 0 7 0;
#X connect 79 0 34 0;
#X connect 80 0 8 0;
#X connect 80 0 35 0;
#X connect 81 0 9 0;
#X connect 81 0 36 0;
#X connect 82 0 10 0;
#X connect 82 0 37 0;
#X connect 83 0 11 0;
#X connect 83 0 41 0;
#X connect 84 0 12 0;
#X connect 84 0 40 0;
#X connect 85 0 13 0;
#X connect 85 0 44 0;
#X connect 86 0 14 0;
#X connect 86 0 38 0;
#X connect 87 0 15 0;
#X connect 87 0 33 0;
#X connect 88 0 16 0;
#X connect 88 0 42 0;
#X connect 89 0 17 0;
#X connect 90 0 18 0;
#X connect 90 0 39 0;
#X connect 91 0 0 3;
#X connect 92 0 0 2;
#X connect 96 0 93 0;
#X connect 97 0 71 0;
#X connect 98 0 0 1;
#X connect 99 0 93 0;
#X connect 101 0 51 0;
#X connect 102 0 101 0;
#X connect 102 0 103 0;
#X connect 103 0 122 0;
#X connect 104 0 0 0;
#X connect 106 0 52 0;
#X connect 107 0 53 0;
#X connect 108 0 54 0;
#X connect 109 0 55 0;
#X connect 110 0 103 0;
#X connect 111 0 110 0;
#X connect 113 0 98 0;
#X connect 113 1 98 1;
#X connect 113 2 98 2;
#X connect 113 3 98 3;
#X connect 114 0 105 0;
#X connect 115 0 95 0;
#X connect 118 0 97 0;
#X connect 119 0 72 0;
#X connect 121 0 99 0;
#X connect 121 0 96 0;
#X connect 123 0 114 0;
#X connect 124 0 125 0;
#X connect 124 1 144 0;
#X connect 126 0 129 1;
#X connect 128 0 129 0;
#X connect 129 0 130 0;
#X connect 130 0 131 0;
#X connect 131 0 132 0;
#X connect 132 0 133 0;
#X connect 133 0 124 0;
#X connect 133 0 152 0;
#X connect 134 0 135 0;
#X connect 134 1 136 0;
#X connect 137 0 134 0;
#X connect 138 0 139 0;
#X connect 139 0 140 0;
#X connect 139 1 141 0;
#X connect 139 2 142 0;
#X connect 139 3 143 0;
#X connect 140 0 113 0;
#X connect 140 0 145 0;
#X connect 141 0 113 1;
#X connect 142 0 113 2;
#X connect 143 0 113 3;
#X connect 146 0 147 0;
#X connect 146 0 148 1;
#X connect 148 0 149 0;
#X connect 149 0 128 0;
#X connect 150 0 146 0;
#X connect 150 1 148 0;
#X connect 152 0 153 0;
#X connect 153 0 155 0;
#X connect 155 0 151 0;
#X connect 155 0 154 0;
#X coords 0 0 6.1035e-05 6.1035e-05 0 0 0;
