#N canvas 66 127 1037 711 12;
#X obj 151 120 else/keyboard 17 80 1 4 0 0 empty empty;
#X msg 194 310 decay \$1;
#X msg 123 311 cutoff \$1;
#X obj 123 240 else/knob 50 0 1 0 0.5 \$0-cutoff \$0-set-cutoff #dfdfdf #7c7c7c black 1 0 0 0 1 320 0 0 0 empty empty 0 0 0 0 0 0 0 0 0 0;
#X obj 194 240 else/knob 50 0 1 0 0.5 \$0-decay \$0-set-decay #dfdfdf #7c7c7c black 1 0 0 0 1 320 0 0 0 empty empty 0 0 0 0 0 0 0 0 0 0;
#X text 133 223 Cutoff;
#X text 209 223 Decay;
#N canvas 165 143 257 191 nop 0;
#X obj 57 34 inlet;
#X obj 57 87 outlet;
#X connect 0 0 1 0;
#X restore 128 251 pd nop;
#X msg 104 223 tr_active \$1;
#X obj 2 335 else/plaits~ -midi -tr_active 60, f 18;
#X msg 22 265 midi_active \$1;
#X obj 104 250 tgl 23 0 empty empty empty 0 -8 0 10 #dfdfdf #000000 #000000 0 1;
#X obj 104 187 tgl 23 0 empty empty empty 0 -8 0 10 #dfdfdf #000000 #000000 0 1;
#X obj 287 316 else/randpulse~ 1;
#X obj 265 332 else/trighold~;
#X obj 265 363 else/numbox~ 6 10 100 #C0C0C4 #440008 10 0 0 0;
#X obj 128 365 *~;
#X msg 97 415 morph_mod \$1;
#X msg 147 415 freq_mod \$1;
#X obj 199 334 knob 50 -1 1 0 0 empty empty #202020 #7c7c7c #ff0400 1 0 0 0 1 320 0 0 0 empty empty 0 0 0 0 0 0 0 0 0 0;
#X msg 203 397 timbre_mod \$1;
#X floatatom 203 385 5 0 0 0 - - - 0;
#X floatatom 147 392 5 0 0 0 - - - 0;
#X floatatom 97 392 5 0 0 0 - - - 0;
#X obj 148 335 knob 50 -1 1 0 0 empty empty #202020 #7c7c7c #ff0400 1 0 0 0 1 320 0 0 0 empty empty 0 0 0 0 0 0 0 0 0 0;
#X obj 97 335 knob 50 -1 1 0 0 empty empty #202020 #7c7c7c #ff0400 1 0 0 0 1 320 0 0 0 empty empty 0 0 0 0 0 0 0 0 0 0;
#X obj 367 207 osc~ 0.5;
#X text 350 346 Note you can just use the frequency input to set linear FM instead or perform exponential FM with more accurate controls., f 47;
#X obj 367 225 osc~ 0.25;
#X obj 414 251 osc~ 0.333;
#X text 346 283 The harmonics inlet is for modulating the 'harmonics' setting and there's no attenuverter or need to activate the signal modulation input., f 48;
#N canvas 635 23 437 432 messages 0;
#X msg 228 141 harmonics \$1;
#X msg 256 192 timbre \$1;
#X msg 274 244 morph \$1;
#X obj 249 305 outlet;
#X obj 115 119 else/knob 50 0 1 0 0.5 empty empty #dfdfdf #7c7c7c black 0 0 0 0 1 320 0 0 0.5 empty empty 0 0 0 0 0 0 0 0 0 0;
#X text 111 104 Harmonics;
#X obj 115 188 else/knob 50 0 1 0 0.5 empty empty #dfdfdf #7c7c7c black 0 0 0 0 1 320 0 0 0.5 empty empty 0 0 0 0 0 0 0 0 0 0;
#X text 119 173 Timbre;
#X obj 115 257 else/knob 50 0 1 0 0.5 empty empty #dfdfdf #7c7c7c black 0 0 0 0 1 320 0 0 0.5 empty empty 0 0 0 0 0 0 0 0 0 0;
#X text 123 242 Morph;
#X connect 0 0 3 0;
#X connect 1 0 3 0;
#X connect 2 0 3 0;
#X connect 4 0 0 0;
#X connect 6 0 1 0;
#X connect 8 0 2 0;
#X coords 0 -1 1 1 81 214 2 100 100;
#X restore 463 432 pd messages;
#N canvas 635 23 396 412 messages 0;
#X obj 256 311 outlet;
#X obj 115 119 else/knob 50 0 1 0 0.5 empty empty #dfdfdf #7c7c7c black 0 0 0 0 1 320 0 0 0.5 empty empty 0 0 0 0 0 0 0 0 0 0;
#X obj 115 188 else/knob 50 0 1 0 0.5 empty empty #dfdfdf #7c7c7c black 0 0 0 0 1 320 0 0 0.5 empty empty 0 0 0 0 0 0 0 0 0 0;
#X text 120 104 cutoff;
#X msg 228 141 cutoff \$1;
#X text 119 173 decay;
#X obj 108 252 tgl 22 0 dfdgg sfgfgfhdfhdd empty 0 -8 0 10 #dfdfdf #000000 #000000 0 1;
#X obj 108 282 tgl 21 0 sfsvs ce5 empty 0 -8 0 10 #dfdfdf #000000 #000000 0 1;
#X msg 256 192 decay \$1;
#X text 132 285 Level;
#X text 132 255 Trigger;
#X msg 268 234 tr_active \$1;
#X msg 278 264 lvl_active \$1;
#X connect 1 0 4 0;
#X connect 2 0 8 0;
#X connect 4 0 0 0;
#X connect 6 0 11 0;
#X connect 7 0 12 0;
#X connect 8 0 0 0;
#X connect 11 0 0 0;
#X connect 12 0 0 0;
#X coords 0 -1 1 1 81 214 2 100 100;
#X restore 544 432 pd messages;
#X obj -4 378 outlet~;
#X obj 22 423 outlet~;
#X connect 0 0 7 0;
#X connect 1 0 7 0;
#X connect 2 0 7 0;
#X connect 3 0 2 0;
#X connect 4 0 1 0;
#X connect 7 0 9 0;
#X connect 8 0 7 0;
#X connect 9 0 16 0;
#X connect 9 0 33 0;
#X connect 9 1 34 0;
#X connect 10 0 9 0;
#X connect 11 0 10 0;
#X connect 12 0 8 0;
#X connect 13 0 9 1;
#X connect 13 0 14 0;
#X connect 14 0 15 0;
#X connect 15 0 16 1;
#X connect 17 0 9 0;
#X connect 18 0 9 0;
#X connect 19 0 21 0;
#X connect 21 0 20 0;
#X connect 22 0 18 0;
#X connect 23 0 17 0;
#X connect 24 0 22 0;
#X connect 25 0 23 0;
#X connect 26 0 9 3;
#X connect 28 0 9 4;
#X connect 29 0 9 6;
#X coords 0 -1 1 1 -115 749 1 100 100;
