#N canvas 0 0 1920 1020 12;
#X obj 465 101 bng 20 250 50 0 empty empty empty 0 -10 0 12 #fcfcfc #000000 #000000;
#X obj 72 150 else/colors;
#X obj 72 104 else/pack2 0 0 0;
#X obj 72 14 vsl 25 75 0 255 0 0 nope nada empty 0 -9 0 10 #fc0000 #fcfcfc #000000 0 0;
#X obj 99 14 vsl 25 75 0 255 0 0 nope nada empty 0 -9 0 10 #00fc00 #fcfcfc #000000 0 0;
#X obj 126 14 vsl 25 75 0 255 0 0 nope nada empty 0 -9 0 10 #0400fc #fcfcfc #000000 0 0;
#X obj 72 127 else/insert rgb;
#X msg 72 197 add2 #000000;
#X obj 190 150 else/colors;
#X obj 190 104 else/pack2 0 0 0;
#X obj 190 14 vsl 25 75 0 255 0 0 nope nada empty 0 -9 0 10 #fc0000 #fcfcfc #000000 0 0;
#X obj 217 14 vsl 25 75 0 255 0 0 nope nada empty 0 -9 0 10 #00fc00 #fcfcfc #000000 0 0;
#X obj 244 14 vsl 25 75 0 255 0 0 nope nada empty 0 -9 0 10 #0400fc #fcfcfc #000000 0 0;
#X obj 190 127 else/insert rgb;
#X msg 190 197 add2 #2d2d2d;
#X obj 308 150 else/colors;
#X obj 308 104 else/pack2 0 0 0;
#X obj 308 14 vsl 25 75 0 255 0 0 nope nada empty 0 -9 0 10 #fc0000 #fcfcfc #000000 0 0;
#X obj 335 14 vsl 25 75 0 255 0 0 nope nada empty 0 -9 0 10 #00fc00 #fcfcfc #000000 0 0;
#X obj 362 14 vsl 25 75 0 255 0 0 nope nada empty 0 -9 0 10 #0400fc #fcfcfc #000000 0 0;
#X obj 308 127 else/insert rgb;
#X msg 308 197 add2 #ffffff;
#X msg 74 332 \; pd colors #000000 #2d2d2d #ffffff;
#X obj 465 177 t b b b;
#X msg 329 266 add;
#X msg 359 266 set;
#X msg 222 266 add2 pd colors;
#X obj 464 205 t b b b b b b;
#X msg 72 174 set add2 \$1;
#X msg 190 174 set add2 \$1;
#X msg 308 174 set add2 \$1;
#X obj 453 264 del 2;
#X msg 72 -13 0;
#X msg 308 -13 255;
#X msg 191 -13 45;
#X obj 72 -58 loadbang;
#X text 8 15 Prsts ?;
#X connect 0 0 23 0;
#X connect 1 0 28 0;
#X connect 2 0 6 0;
#X connect 2 0 0 0;
#X connect 3 0 2 0;
#X connect 4 0 2 1;
#X connect 5 0 2 2;
#X connect 6 0 1 0;
#X connect 7 0 22 0;
#X connect 8 0 29 0;
#X connect 9 0 13 0;
#X connect 9 0 0 0;
#X connect 10 0 9 0;
#X connect 11 0 9 1;
#X connect 12 0 9 2;
#X connect 13 0 8 0;
#X connect 14 0 22 0;
#X connect 15 0 30 0;
#X connect 16 0 20 0;
#X connect 16 0 0 0;
#X connect 17 0 16 0;
#X connect 18 0 16 1;
#X connect 19 0 16 2;
#X connect 20 0 15 0;
#X connect 21 0 22 0;
#X connect 23 0 27 0;
#X connect 24 0 22 0;
#X connect 25 0 22 0;
#X connect 26 0 22 0;
#X connect 27 0 21 0;
#X connect 27 0 31 0;
#X connect 27 1 14 0;
#X connect 27 2 7 0;
#X connect 27 3 26 0;
#X connect 27 4 24 0;
#X connect 27 5 25 0;
#X connect 28 0 7 0;
#X connect 29 0 14 0;
#X connect 30 0 21 0;
#X connect 31 0 22 0;
#X connect 32 0 3 0;
#X connect 32 0 4 0;
#X connect 32 0 5 0;
#X connect 33 0 17 0;
#X connect 33 0 18 0;
#X connect 33 0 19 0;
#X connect 34 0 10 0;
#X connect 34 0 11 0;
#X connect 34 0 12 0;
#X connect 35 0 32 0;
#X connect 35 0 34 0;
#X connect 35 0 33 0;
#X coords 0 0 1 300 400 100 1 1 1;
