#N canvas 301 78 1511 922 12;
#N canvas 283 147 1486 713 (subpatch) 0;
#X obj 61 3 function 200 100 empty empty 0 1 228 228 228 55 55 55 1 0 0 0 1 16.575 0.14 170.723 0.085 159.12 0.375 316.582 0;
#X obj 0 3 bng 30 250 50 0 empty empty empty 0 -10 0 10 #e4e4e4 #4d4d4d #373737;
#X obj -116 3 expr int($f1*999);
#X obj -87 82 line;
#X msg -87 56 0 \, 1 \$1;
#X obj -87 27 f;
#X floatatom 61 110 5 0 0 0 - - - 12;
#X obj 31 5 vsl 29 95 0 1 0 0 empty empty empty 0 -9 0 10 #e4e4e4 #4d4d4d #373737 0 1;
#X obj 262 6 vsl 25 93 0 1 0 0 empty empty empty 0 -9 0 10 #e4e4e4 #606060 #000000 0 1;
#X obj 19 -30 inlet;
#X obj 123 138 outlet;
#X obj 61 138 pow;
#X floatatom 3 76 5 0 0 0 - - - 12;
#X text 3 57 pow;
#X connect 0 0 6 0;
#X connect 1 0 5 0;
#X connect 2 0 5 1;
#X connect 3 0 0 0;
#X connect 4 0 3 0;
#X connect 5 0 4 0;
#X connect 6 0 11 0;
#X connect 7 0 2 0;
#X connect 8 0 10 0;
#X connect 9 0 1 0;
#X connect 11 0 8 0;
#X connect 12 0 11 1;
#X coords 0 1 100 -1 288 100 1 0 3;
#X restore 140 123 graph;
#X obj 122 46 route 1 2 3 4;
#X obj 111 136 tgl 14 0 empty empty empty 0 -7 0 12 #fcfcfc #000000 #000000 0 1;
#X obj 111 156 sel 1;
#X obj 16 280 osc~;
#X floatatom -44 211 5 0 0 0 - - - 0;
#N canvas 915 0 571 713 (subpatch) 0;
#X obj 61 3 function 200 100 empty empty 0 1 228 228 228 55 55 55 1 0 0 0 1 208.845 0.105 243.652 0.28 0 0.29 210.503 0 0 0;
#X obj 0 3 bng 30 250 50 0 empty empty empty 0 -10 0 10 #e4e4e4 #4d4d4d #373737;
#X obj -116 3 expr int($f1*999);
#X obj -87 82 line;
#X msg -87 56 0 \, 1 \$1;
#X obj -87 27 f;
#X floatatom 61 110 5 0 0 0 - - - 12;
#X obj 31 5 vsl 29 95 0 1 0 0 empty empty empty 0 -9 0 10 #e4e4e4 #4d4d4d #373737 0 1;
#X obj 262 6 vsl 25 93 0 1 0 0 empty empty empty 0 -9 0 10 #e4e4e4 #606060 #000000 0 1;
#X obj 19 -30 inlet;
#X obj 123 138 outlet;
#X obj 61 138 pow;
#X floatatom 3 76 5 0 0 0 - - - 12;
#X text 4 57 pow;
#X connect 0 0 6 0;
#X connect 1 0 5 0;
#X connect 2 0 5 1;
#X connect 3 0 0 0;
#X connect 4 0 3 0;
#X connect 5 0 4 0;
#X connect 6 0 11 0;
#X connect 7 0 2 0;
#X connect 8 0 10 0;
#X connect 9 0 1 0;
#X connect 11 0 8 0;
#X connect 12 0 11 1;
#X coords 0 1 100 -1 288 100 1 0 3;
#X restore 140 226 graph;
#X obj 18 326 *~;
#X obj 108 241 tgl 14 0 empty empty empty 0 -7 0 12 #fcfcfc #000000 #000000 0 1;
#X obj 108 261 sel 1;
#X obj 19 360 tanh~;
#X floatatom 101 211 5 0 0 0 - - - 0;
#X obj -44 262 +~ 60;
#X obj -44 243 *~ 48;
#X obj 38 308 * 2;
#X obj 71 389 *~;
#X obj 91 371 * 1;
#X obj 119 16 inlet;
#X obj 119 425 outlet~;
#X connect 0 0 5 0;
#X connect 1 0 2 0;
#X connect 1 1 8 0;
#X connect 2 0 3 0;
#X connect 3 0 0 0;
#X connect 4 0 7 0;
#X connect 5 0 13 0;
#X connect 6 0 14 0;
#X connect 6 0 16 0;
#X connect 7 0 10 0;
#X connect 8 0 9 0;
#X connect 9 0 6 0;
#X connect 10 0 15 0;
#X connect 11 0 12 1;
#X connect 12 0 4 0;
#X connect 13 0 12 0;
#X connect 14 0 7 1;
#X connect 15 0 18 0;
#X connect 16 0 15 1;
#X connect 17 0 1 0;
#X coords 0 -1 1 1 350 250 1 100 100;
