#N canvas 361 55 1431 963 12;
#X obj -84 86 ctlin;
#X floatatom -83 109 5 0 0 0 - - - 0;
#X floatatom -17 110 5 0 0 0 - - - 0;
#X obj 63 192 vsl 13 110 0 127 0 0 empty empty empty 0 -9 0 12 #fcfcfc #000000 #000000 0 1;
#X obj 118 120 sel 48;
#X obj 101 136 bng 13 250 50 0 empty empty empty 0 -6 0 12 #fcfcfc #000000 #000000;
#X msg 31 149 63 75;
#X obj 224 189 vsl 13 110 0 127 0 0 empty empty empty 0 -9 0 12 #fcfcfc #000000 #000000 0 1;
#X obj 258 137 bng 13 250 50 0 empty empty empty 0 -6 0 12 #fcfcfc #000000 #000000;
#X msg 187 150 63 75;
#X obj 425 166 vsl 13 110 0 127 0 0 empty empty empty 0 -9 0 12 #fcfcfc #000000 #000000 0 1;
#X obj 399 134 bng 13 250 50 0 empty empty empty 0 -6 0 12 #fcfcfc #000000 #000000;
#X msg 325 147 63 75;
#X obj 555 157 vsl 13 110 0 127 0 0 empty empty empty 0 -9 0 12 #fcfcfc #000000 #000000 0 1;
#X obj 532 134 bng 13 250 50 0 empty empty empty 0 -6 0 12 #fcfcfc #000000 #000000;
#X msg 455 147 63 75;
#X obj 258 121 sel 49;
#X obj 399 118 sel 50;
#X obj 529 118 sel 51;
#X obj 138 293 / 127;
#X obj 222 324 / 127;
#X obj 425 295 / 127;
#X obj 553 295 / 127;
#X obj 198 -186 inlet~;
#X obj 311 258 inlet~;
#X obj 482 254 inlet~;
#X obj 85 505 outlet~;
#X obj 85 369 expr~ ($v1*$v2) + ($v3*$v4) + ($v5*$v6) + ($v7*$v8);
#X obj 86 483 tanh~;
#X msg -49 145;
#X obj 31 165 line;
#X msg 31 120 set \$1 75;
#X msg 187 121 set \$1 75;
#X obj 187 168 line;
#X msg 325 118 set \$1 75;
#X msg 455 118 set \$1 75;
#X obj 325 164 line;
#X obj 455 164 line;
#X obj 85 464 /~ 4;
#X floatatom 631 -192 5 0 0 0 - - - 0;
#X floatatom 675 -192 5 0 0 0 - - - 0;
#X obj 544 -216 ctlin;
#X obj 560 -197 == 19;
#X obj 544 -174 *;
#X obj 512 -221 vsl 14 119 0 127 0 0 empty empty empty 0 -9 0 12 #fcfcfc #000000 #000000 0 1;
#X obj 304 -226 function 200 100 empty empty 0 1 220 220 220 50 50 50 0 0 0 0 0 500 1 500 1;
#X obj 305 -110 function 200 100 empty empty 0 1 220 220 220 50 50 50 0 0 0 0 0 500 0 500 1;
#X obj 512 -94 / 127;
#X obj 230 -153 mtof;
#X obj 263 -166 * 127;
#X obj 263 -50 * 127;
#X obj 197 -24 hip~;
#X obj 230 -37 mtof;
#X obj 197 -140 lop~;
#X obj 271 -143 bng 14 250 50 0 empty empty empty 0 -7 0 12 #fcfcfc #000000 #000000;
#X obj 264 -239 bng 14 250 50 0 empty empty empty 0 -7 0 12 #fcfcfc #000000 #000000;
#X msg 357 -251 0 500 1 500 1;
#X msg 357 -127 0 500 0 500 1;
#X obj 176 -236 loadbang;
#X obj 318 331 tanh~;
#X obj 198 341 tanh~;
#X obj 198 88 *~ 2;
#X obj 335 304 *~ 1;
#X obj 611 -159 vsl 14 119 0 127 0 0 empty empty empty 0 -9 0 12 #fcfcfc #000000 #000000 0 1;
#X msg 544 -155 set \$1;
#X msg 544 -136 0;
#X obj 580 -178 sel 1;
#X obj 18 -456 inlet~;
#X floatatom 451 -462 5 0 0 0 - - - 0;
#X floatatom 495 -462 5 0 0 0 - - - 0;
#X obj 364 -486 ctlin;
#X obj 364 -444 *;
#X obj 332 -491 vsl 14 119 0 127 0 0 empty empty empty 0 -9 0 12 #fcfcfc #000000 #000000 0 1;
#X obj 124 -496 function 200 100 empty empty 0 1 220 220 220 50 50 50 0 0 0 0 0 100 0.95 400 1 500 1;
#X obj 131 -367 function 200 100 empty empty 0 1 220 220 220 50 50 50 0 0 0 0 0 250 0 250 0.15 100 1;
#X obj 332 -364 / 127;
#X obj 30 -427 mtof;
#X obj 50 -307 mtof;
#X obj 91 -413 bng 14 250 50 0 empty empty empty 0 -7 0 12 #fcfcfc #000000 #000000;
#X obj 84 -509 bng 14 250 50 0 empty empty empty 0 -7 0 12 #fcfcfc #000000 #000000;
#X obj -4 -506 loadbang;
#X obj 431 -429 vsl 14 119 0 127 0 0 empty empty empty 0 -9 0 12 #fcfcfc #000000 #000000 0 1;
#X msg 363 -425 set \$1;
#X msg 364 -406 0;
#X obj 400 -448 sel 1;
#X obj 380 -467 == 18;
#X obj 84 88 *~ 1;
#X obj -105 -810 cyclone/svf~;
#X obj -106 -908 else/lop.bw~;
#X obj -45 -817 vcf~;
#X obj -95 -324 line~;
#X obj -95 -355 pack f 50;
#X floatatom -95 -382 8 0 0 0 - - - 0;
#X obj -90 -407 hsl 162 19 60 5000 0 1 empty empty empty -2 -8 0 10 #dfdfdf #000000 #000000 8242 1;
#X floatatom 109 -391 5 0 0 0 - - - 0;
#X obj 83 -436 * 120;
#X obj -21 -654 else/svfilter~;
#X obj -96 -180 svf~, f 10;
#X obj 49 -256 svf~, f 7;
#X obj -38 -332 svf~, f 7;
#X msg 18 -368 0.2;
#X obj -99 -217 line~;
#X obj -99 -248 pack f 50;
#X floatatom -99 -275 8 0 0 0 - - - 0;
#X obj -96 -299 hsl 162 19 60 5000 0 1 empty empty empty -2 -8 0 10 #dfdfdf #000000 #000000 0 1;
#X floatatom 137 -245 5 0 0 0 - - - 0;
#X floatatom 88 -288 5 0 0 0 - - - 0;
#X msg 177 -521 0 100 0.95 400 1 500 1;
#X msg 177 -397 0 250 0 250 0.15 100 1;
#X obj 83 -320 * 90;
#X obj -43 36 cnv 14 93 56 empty empty volume 20 12 0 12 #e3c6ff #404040 0;
#X obj 197 56 flanger~;
#X floatatom 210 13 5 0 0 0 - - - 0;
#X floatatom 240 23 5 0 0 0 - - - 0;
#X floatatom 250 33 5 0 0 0 - - - 0;
#X obj 479 853 else/fbdelay~;
#X obj 84 441 +~;
#X obj 325 455 hsl 119 14 0 127 0 0 empty empty empty -2 -7 0 12 #fcfcfc #000000 #000000 0 1;
#X obj 320 471 * 10;
#X obj 291 487 fbdelay~;
#X obj 438 482 hsl 119 14 0 127 0 0 empty empty empty -2 -7 0 12 #fcfcfc #000000 #000000 0 1;
#X obj 389 498 * 100;
#X obj -209 231 ctlin;
#X floatatom -88 237 5 0 0 0 - - - 0;
#X floatatom -53 278 5 0 0 0 - - - 0;
#X obj -268 396 vsl 14 28 0 127 0 0 empty empty empty 0 -9 0 12 #fcfcfc #000000 #000000 0 1;
#X obj -252 396 vsl 14 28 0 127 0 0 empty empty empty 0 -9 0 12 #fcfcfc #000000 #000000 0 1;
#X obj -236 396 vsl 14 28 0 127 0 0 empty empty empty 0 -9 0 12 #fcfcfc #000000 #000000 0 1;
#X obj -220 396 vsl 14 28 0 127 0 0 empty empty empty 0 -9 0 12 #fcfcfc #000000 #000000 0 1;
#X obj -39 296 sel 2;
#X msg -70 353 0;
#X msg -70 336 set \$1;
#X obj -95 297 == 2;
#X obj -95 315 *;
#X obj 185 418 expr~ ($v1*$v2) + ($v3*$v4) + ($v5*$v6) + ($v7*$v8);
#X obj -78 397 / 127;
#X msg -166 335 0;
#X msg -166 318 set \$1;
#X obj -191 297 *;
#X msg -265 338 0;
#X msg -265 321 set \$1;
#X obj -290 300 *;
#X obj -34 392 / 127;
#X obj -116 403 / 127;
#X obj -234 281 sel 4;
#X obj -290 282 == 4;
#X floatatom -266 256 5 0 0 0 - - - 0;
#X floatatom -216 256 5 0 0 0 - - - 0;
#X obj -191 279 == 5;
#X obj -135 278 sel 5;
#X obj 577 378 scope~ 200 100 8 3 64 -1 1 0 0 0 0 30 30 30 190 190 190 160 160 160 0 empty;
#X obj -127 462 scope~ 200 100 8 3 64 -1 1 0 0 0 0 30 30 30 190 190 190 160 160 160 0 empty;
#X connect 0 0 1 0;
#X connect 0 1 2 0;
#X connect 1 0 32 0;
#X connect 1 0 34 0;
#X connect 1 0 35 0;
#X connect 1 0 31 0;
#X connect 2 0 4 0;
#X connect 2 0 16 0;
#X connect 2 0 17 0;
#X connect 2 0 18 0;
#X connect 3 0 19 0;
#X connect 4 0 5 0;
#X connect 5 0 6 0;
#X connect 6 0 30 0;
#X connect 7 0 20 0;
#X connect 8 0 9 0;
#X connect 9 0 33 0;
#X connect 10 0 21 0;
#X connect 11 0 12 0;
#X connect 12 0 36 0;
#X connect 13 0 22 0;
#X connect 14 0 15 0;
#X connect 15 0 37 0;
#X connect 16 0 8 0;
#X connect 17 0 11 0;
#X connect 18 0 14 0;
#X connect 19 0 27 1;
#X connect 20 0 27 3;
#X connect 21 0 27 5;
#X connect 22 0 27 7;
#X connect 23 0 53 0;
#X connect 24 0 62 0;
#X connect 25 0 27 6;
#X connect 25 0 134 6;
#X connect 25 0 150 0;
#X connect 27 0 116 0;
#X connect 28 0 26 0;
#X connect 28 0 151 0;
#X connect 30 0 3 0;
#X connect 31 0 6 0;
#X connect 32 0 9 0;
#X connect 33 0 7 0;
#X connect 34 0 12 0;
#X connect 35 0 15 0;
#X connect 36 0 10 0;
#X connect 37 0 13 0;
#X connect 38 0 28 0;
#X connect 41 0 39 0;
#X connect 41 0 43 0;
#X connect 41 1 40 0;
#X connect 41 1 42 0;
#X connect 42 0 43 1;
#X connect 42 0 66 0;
#X connect 43 0 64 0;
#X connect 44 0 47 0;
#X connect 45 0 49 0;
#X connect 46 0 50 0;
#X connect 47 0 46 0;
#X connect 47 0 45 0;
#X connect 48 0 53 1;
#X connect 48 0 54 0;
#X connect 49 0 48 0;
#X connect 50 0 52 0;
#X connect 51 0 111 0;
#X connect 52 0 51 1;
#X connect 53 0 51 0;
#X connect 55 0 56 0;
#X connect 55 0 57 0;
#X connect 56 0 45 0;
#X connect 57 0 46 0;
#X connect 58 0 55 0;
#X connect 59 0 27 4;
#X connect 59 0 134 4;
#X connect 60 0 27 2;
#X connect 60 0 134 2;
#X connect 61 0 60 0;
#X connect 62 0 59 0;
#X connect 63 0 44 0;
#X connect 64 0 65 0;
#X connect 65 0 63 0;
#X connect 66 0 65 0;
#X connect 67 0 99 0;
#X connect 70 0 68 0;
#X connect 70 0 71 0;
#X connect 70 1 69 0;
#X connect 70 1 85 0;
#X connect 71 0 82 0;
#X connect 72 0 75 0;
#X connect 73 0 95 0;
#X connect 74 0 105 0;
#X connect 74 0 109 0;
#X connect 75 0 74 0;
#X connect 75 0 73 0;
#X connect 76 0 78 0;
#X connect 76 0 93 0;
#X connect 77 0 104 0;
#X connect 78 0 100 0;
#X connect 79 0 107 0;
#X connect 79 0 108 0;
#X connect 80 0 79 0;
#X connect 81 0 72 0;
#X connect 82 0 83 0;
#X connect 83 0 81 0;
#X connect 84 0 83 0;
#X connect 85 0 71 1;
#X connect 85 0 84 0;
#X connect 86 0 27 0;
#X connect 86 0 134 0;
#X connect 90 0 99 1;
#X connect 91 0 90 0;
#X connect 92 0 91 0;
#X connect 93 0 92 0;
#X connect 95 0 76 0;
#X connect 98 1 86 0;
#X connect 99 0 98 0;
#X connect 100 0 98 2;
#X connect 100 0 99 2;
#X connect 101 0 98 1;
#X connect 102 0 101 0;
#X connect 103 0 102 0;
#X connect 104 0 103 0;
#X connect 107 0 73 0;
#X connect 108 0 74 0;
#X connect 109 0 77 0;
#X connect 109 0 106 0;
#X connect 111 0 61 0;
#X connect 112 0 111 1;
#X connect 113 0 111 2;
#X connect 114 0 111 3;
#X connect 116 0 38 0;
#X connect 117 0 118 0;
#X connect 118 0 119 1;
#X connect 119 0 116 1;
#X connect 120 0 121 0;
#X connect 121 0 119 2;
#X connect 122 0 123 0;
#X connect 122 1 124 0;
#X connect 122 1 146 0;
#X connect 122 1 147 0;
#X connect 123 0 133 1;
#X connect 123 0 138 1;
#X connect 123 0 141 1;
#X connect 124 0 129 0;
#X connect 124 0 132 0;
#X connect 126 0 135 0;
#X connect 127 0 142 0;
#X connect 128 0 143 0;
#X connect 129 0 130 0;
#X connect 130 0 126 0;
#X connect 131 0 130 0;
#X connect 132 0 133 0;
#X connect 133 0 131 0;
#X connect 134 0 119 0;
#X connect 135 0 134 3;
#X connect 136 0 128 0;
#X connect 137 0 136 0;
#X connect 138 0 137 0;
#X connect 139 0 127 0;
#X connect 140 0 139 0;
#X connect 141 0 140 0;
#X connect 142 0 134 5;
#X connect 143 0 134 7;
#X connect 144 0 139 0;
#X connect 145 0 141 0;
#X connect 146 0 145 0;
#X connect 146 0 144 0;
#X connect 147 0 148 0;
#X connect 147 0 149 0;
#X connect 148 0 138 0;
#X connect 149 0 136 0;
#X coords 0 0 0.0078125 0.0078125 0 0 0;
