#N canvas 271 133 1179 805 12;
#X obj 173 97 noise~;
#X obj 179 204 else/resonant~ 400 1000;
#X obj 259 177 else/resonant~ 700 2000;
#X obj 152 231 +~;
#X obj 313 132 line~;
#X obj 126 194 *~;
#X obj 105 248 /~ 10;
#N canvas -449 187 1641 700 (subpatch) 0;
#X obj 3 4 vsl 15 128 0 1 0 1 empty empty mix 0 -9 0 10 #fcfcfc #000000 #000000 11050 1;
#X obj 204 35 tgl 15 1 empty empty freeze 17 7 0 10 #fcfcfc #000000 #000000 0 1;
#X obj 210 57 tgl 15 1 empty empty trig 17 7 0 10 #fcfcfc #000000 #000000 0 1;
#X obj 24 6 vsl 15 128 0 1 0 1 empty empty position 0 -9 0 10 #fcfcfc #000000 #000000 2600 1;
#X obj 42 5 vsl 15 128 0 1 0 1 empty empty size 0 -9 0 10 #fcfcfc #000000 #000000 12700 1;
#X obj 61 6 vsl 15 128 0 1 0 1 empty empty pitch 0 -9 0 10 #fcfcfc #000000 #000000 0 1;
#X obj 79 5 vsl 15 128 0 1 0 1 empty empty density 0 -9 0 10 #fcfcfc #000000 #000000 12400 1;
#X obj 98 3 vsl 15 128 0 1 0 1 empty empty texture 0 -9 0 10 #fcfcfc #000000 #000000 9800 1;
#X obj 117 4 vsl 15 128 0 1 0 1 empty empty spread 0 -9 0 10 #fcfcfc #000000 #000000 6750 1;
#X obj 135 5 vsl 15 128 0 1 0 1 empty empty feedback 0 -9 0 10 #fcfcfc #000000 #000000 9000 1;
#X obj 153 4 vsl 15 128 0 1 0 1 empty empty reverb 0 -9 0 10 #fcfcfc #000000 #000000 6200 1;
#X obj 209 98 tgl 15 1 empty empty bypass 17 7 0 10 #fcfcfc #000000 #000000 0 1;
#X obj 218 82 tgl 15 1 empty empty silence 17 7 0 10 #fcfcfc #000000 #000000 0 1;
#X text 567 58 lofi and mono not enabled;
#X msg -10 206 mix \$1;
#X msg 102 206 position \$1;
#X msg 208 199 size \$1;
#X msg 277 202 pitch \$1;
#X msg 360 209 density \$1;
#X msg 451 209 texture \$1;
#X msg 537 209 spread \$1;
#X msg 627 209 feedback \$1;
#X msg 919 287 reverb \$1;
#X msg 994 289 mode \$1;
#X msg 1063 297 bypass \$1;
#X obj 441 509 vsl 15 128 0 1 0 1 empty empty vol 0 -9 0 10 #fcfcfc #000000 #000000 12700 1;
#X obj 292 530 *~;
#X obj 317 528 *~;
#X obj 289 460 clds~ 1.04858e+06 524288;
#X obj 172 10 vsl 15 128 0 3 0 1 empty empty mode 0 -9 0 10 #fcfcfc #000000 #000000 0 1;
#X obj 126 422 inlet~;
#X obj 360 415 inlet~;
#X obj 253 572 outlet~;
#X obj 263 582 outlet~;
#X connect 0 0 14 0;
#X connect 3 0 15 0;
#X connect 4 0 16 0;
#X connect 5 0 17 0;
#X connect 6 0 18 0;
#X connect 7 0 19 0;
#X connect 8 0 20 0;
#X connect 9 0 21 0;
#X connect 10 0 22 0;
#X connect 11 0 24 0;
#X connect 14 0 28 0;
#X connect 15 0 28 0;
#X connect 16 0 28 0;
#X connect 17 0 28 0;
#X connect 18 0 28 0;
#X connect 19 0 28 0;
#X connect 20 0 28 0;
#X connect 21 0 28 0;
#X connect 22 0 28 0;
#X connect 23 0 28 0;
#X connect 24 0 28 0;
#X connect 25 0 26 1;
#X connect 25 0 27 1;
#X connect 26 0 32 0;
#X connect 27 0 33 0;
#X connect 28 0 26 0;
#X connect 28 1 27 0;
#X connect 29 0 23 0;
#X connect 30 0 28 0;
#X connect 31 0 28 0;
#X coords 0 1 100 -1 200 140 1 0 0;
#X restore 193 251 graph;
#X obj 105 349 outlet~;
#X obj 115 124 inlet;
#X obj 167 125 inlet;
#X obj 167 150 bng 20 250 50 0 empty empty empty 0 -10 0 12 #fcfcfc #000000 #000000;
#X floatatom 115 149 5 0 0 0 - - - 0;
#X msg 313 109 1 \, 0 1 3 \, 1 3 5 \, 0 1 1;
#X connect 0 0 1 0;
#X connect 1 0 5 0;
#X connect 2 0 1 1;
#X connect 3 0 6 0;
#X connect 4 0 5 1;
#X connect 5 0 3 0;
#X connect 6 0 7 0;
#X connect 6 0 7 1;
#X connect 7 0 8 0;
#X connect 9 0 12 0;
#X connect 10 0 11 0;
#X connect 11 0 13 0;
#X connect 11 0 2 0;
#X connect 12 0 2 1;
#X connect 13 0 4 0;
#X coords 0 -1 1 1 300 300 1 100 100;
