#N canvas 735 419 450 300 12;
#X obj 172 233 dac~;
#X obj 134 178 *~;
#X obj 90 131 osc~ 200;
#X obj 188 136 osc~ 20;
#X obj 198 195 *~;
#X obj 248 184 osc~ 2;
#X connect 1 0 4 0;
#X connect 2 0 1 0;
#X connect 3 0 1 1;
#X connect 4 0 0 0;
#X connect 4 0 0 1;
#X connect 5 0 4 1;
